<?xml version="1.0" standalone="no"?>
<!DOCTYPE svg PUBLIC "-//W3C//DTD SVG 1.1//EN" "http://www.w3.org/Graphics/SVG/1.1/DTD/svg11.dtd" >
<svg xmlns="http://www.w3.org/2000/svg" xmlns:xlink="http://www.w3.org/1999/xlink" version="1.1">
<metadata></metadata>
<defs>
<font id="hospitalblack" horiz-adv-x="1079" >
<font-face units-per-em="2048" ascent="1530" descent="-518" />
<missing-glyph horiz-adv-x="368" />
<glyph horiz-adv-x="0" />
<glyph horiz-adv-x="682" />
<glyph unicode=" "  horiz-adv-x="368" />
<glyph unicode="&#x09;" horiz-adv-x="368" />
<glyph unicode="&#xa0;" horiz-adv-x="368" />
<glyph unicode="!" horiz-adv-x="499" d="M143 821v369h252v-369q0 -147 -28 -553h-193q-31 393 -31 553zM152 -43v213h235v-213h-235z" />
<glyph unicode="&#x22;" horiz-adv-x="880" d="M109 920q34 45 48.5 86.5t14.5 97.5q0 71 -39 151h279q14 -39 18 -100t-2 -90q-16 -90 -69 -156.5t-142 -99.5zM463 920q35 44 49 85.5t14 98.5q0 75 -37 151h277q14 -41 18.5 -100.5t-2.5 -89.5q-14 -89 -66.5 -156t-142.5 -100z" />
<glyph unicode="#" horiz-adv-x="1361" d="M158 287v219h157l33 137h-108v219h161l78 328h256l-78 -328h193l80 328h256l-78 -328h96v-219h-149l-33 -137h102v-219h-153l-78 -330h-256l78 330h-195l-78 -330h-256l78 330h-106zM573 506h193l33 137h-195z" />
<glyph unicode="$" horiz-adv-x="1208" d="M119 180l178 150q98 -103 203 -137v288q-57 14 -99.5 28.5t-91 42.5t-79 62.5t-51.5 89t-21 123.5q0 159 94.5 253.5t247.5 119.5v156h237v-158q205 -35 324 -176l-158 -162q-87 69 -166 96v-292q58 -14 102 -29.5t94 -44.5t82 -65.5t53.5 -94.5t21.5 -131 q0 -82 -28 -146.5t-78.5 -105.5t-111.5 -65t-135 -35v-187h-237v189q-227 43 -381 231zM418 829q0 -35 20 -58.5t62 -43.5v234q-82 -28 -82 -132zM737 184q92 21 92 117q0 83 -88 117l-4 2v-236z" />
<glyph unicode="%" horiz-adv-x="1378" d="M94 932q0 72 10 126.5t36 102.5t76.5 73.5t125.5 25.5q60 0 105 -17.5t71.5 -46.5t42.5 -73t21.5 -89t5.5 -102t-5.5 -102t-21.5 -88.5t-42.5 -72t-71.5 -46t-105 -17.5q-75 0 -125.5 25t-76.5 73t-36 102t-10 126zM248 -240l624 1596h258l-626 -1596h-256zM266 887 q0 -8 0.5 -24t3 -25t5.5 -22t9 -20.5t13.5 -15t19 -11t25.5 -3.5q22 0 37 8.5t22 18t10.5 31t4 32.5t0.5 37v72v11q0 29 -1 44.5t-7.5 37t-22.5 32t-43 10.5q-14 0 -25.5 -3.5t-19 -11t-13.5 -15t-9 -21t-5.5 -22t-3 -25t-0.5 -24.5v-24.5v-21.5v-21v-24zM788 184 q0 72 10 126t36 102t76.5 73t125.5 25t125.5 -25t76.5 -73t36 -102t10 -126t-10 -126t-36 -101.5t-76.5 -72.5t-125.5 -25t-125.5 25t-76.5 72.5t-36 101.5t-10 126zM963 116.5q0 -4.5 0.5 -18t2 -18.5t4 -16.5t6 -16t9.5 -12.5t13 -11t16.5 -5.5t21.5 -2.5q14 0 25.5 3.5 t19 11t13.5 15t9 21t5.5 22t3 25t0.5 24.5v24.5v21.5v21v24t-0.5 24.5t-3 25.5t-5.5 22t-9 20.5t-13.5 15.5t-19 11.5t-25.5 3.5q-22 0 -37 -9t-22 -18.5t-10.5 -32t-3.5 -32v-37.5v-69v-18v-19.5z" />
<glyph unicode="&#x26;" horiz-adv-x="1228" d="M86 303q0 202 211 346q-63 66 -93 129.5t-30 149.5q0 54 21 100.5t56.5 79t81.5 55.5t95 34t98 11q142 0 245 -83t103 -222q0 -178 -192 -307l170 -201q42 44 88 211l221 -53q-21 -183 -149 -350l209 -246h-326l-70 86q-147 -104 -325 -104q-106 0 -199.5 44t-154 129 t-60.5 191zM338 303q0 -56 48.5 -93.5t113.5 -37.5q97 0 174 51l-213 248q-123 -84 -123 -168zM428 905q0 -22 26.5 -63t55.5 -70q111 68 111 133q0 35 -25.5 53.5t-69.5 18.5q-45 0 -71.5 -18.5t-26.5 -53.5z" />
<glyph unicode="'" horiz-adv-x="542" d="M109 918q53 56 70.5 94t17.5 96q0 44 -50 147h277q27 -77 27 -141q0 -210 -222 -305z" />
<glyph unicode="(" horiz-adv-x="835" d="M170 555q0 73 6.5 151t24.5 174.5t46.5 178.5t78 155.5t112.5 112.5q86 52 228 43v-170q-72 -6 -123 -72t-75.5 -169.5t-35 -202t-10.5 -201.5q0 -104 10.5 -202.5t35 -202.5t75.5 -170t123 -72v-170q-144 -9 -228 45q-63 39 -112.5 112.5t-78 155.5t-46.5 178.5 t-24.5 174.5t-6.5 151z" />
<glyph unicode=")" horiz-adv-x="835" d="M170 -92q72 6 123.5 72t76 170t34.5 202.5t10 202.5t-10 201.5t-34.5 201.5t-76 170t-123.5 72v170q142 9 227 -43q64 -39 113.5 -112.5t78 -155.5t47 -178.5t24.5 -174.5t6 -151t-6 -151t-24.5 -174.5t-47 -178.5t-78 -155.5t-113.5 -112.5q-84 -54 -227 -45v170z" />
<glyph unicode="*" horiz-adv-x="897" d="M68 952l86 187l186 -78v207h213v-209l192 80l84 -187l-213 -88l156 -198l-170 -121l-153 196l-156 -196l-170 121l158 198z" />
<glyph unicode="+" horiz-adv-x="1040" d="M119 346v219h293v291h217v-291h293v-219h-293v-293h-217v293h-293z" />
<glyph unicode="," horiz-adv-x="528" d="M51 -334q45 324 119 527h260q-114 -344 -201 -527h-178z" />
<glyph unicode="-" horiz-adv-x="1212" d="M205 346v219h803v-219h-803z" />
<glyph unicode="." horiz-adv-x="454" d="M98 -43v236h258v-236h-258z" />
<glyph unicode="/" horiz-adv-x="1138" d="M150 -240l624 1596h256l-624 -1596h-256z" />
<glyph unicode="0" horiz-adv-x="1101" d="M129 334v479q0 45 8.5 90.5t35.5 102.5t71 100t123.5 72.5t183.5 29.5q103 0 182.5 -29.5t123 -72.5t71.5 -100t36.5 -102.5t8.5 -90.5v-479q0 -45 -8.5 -90.5t-36.5 -102.5t-71.5 -100t-123 -72.5t-182.5 -29.5q-77 0 -140 15.5t-106 40.5t-75.5 60t-51 70t-30.5 75.5 t-15.5 71.5t-3.5 62zM381 362q2 -38 8 -66t22.5 -59t52 -48t87.5 -17t87.5 17t51.5 47.5t22 59t7 66.5v424q-1 37 -7 65.5t-22 59.5t-51.5 48.5t-87.5 17.5q-42 0 -73.5 -12.5t-49 -30.5t-28.5 -45.5t-14.5 -50.5t-4.5 -52v-424z" />
<glyph unicode="1" horiz-adv-x="794" d="M109 754l321 438h225v-1235h-237v819l-123 -151z" />
<glyph unicode="2" horiz-adv-x="1103" d="M129 1012q159 196 377 196q76 0 142 -12.5t124 -41t99.5 -71t65.5 -106.5t24 -143q0 -45 -15 -91.5t-34 -82t-53 -79.5t-56 -68.5t-60 -63.5l-247 -256h479v-236h-842v211l324 336l51 51t68 71t61 71t52 77t18 64q0 139 -197 139q-95 0 -211 -96z" />
<glyph unicode="3" horiz-adv-x="1122" d="M129 143l168 138q60 -62 116.5 -86.5t131.5 -24.5q95 0 143.5 41.5t48.5 116.5q0 157 -159 157h-172v228h163q148 0 148 131q0 62 -42 95.5t-124 33.5q-131 0 -236 -92l-170 131q96 114 187.5 155t218.5 41q84 0 159.5 -23.5t134.5 -67.5t93.5 -113.5t34.5 -155.5 q0 -145 -86 -244q106 -109 106 -285q0 -97 -35 -171t-97.5 -119t-142.5 -67.5t-175 -22.5q-142 0 -236.5 44t-177.5 160zM293 -43h485h-485z" />
<glyph unicode="4" horiz-adv-x="1071" d="M109 295v197l503 700h240v-664h111v-233h-111v-338h-240v338h-503zM422 528h190v269z" />
<glyph unicode="5" horiz-adv-x="1112" d="M129 145l168 138q71 -71 120 -92t138 -21q97 0 135.5 41.5t38.5 138.5q0 104 -37.5 144.5t-142.5 40.5q-66 0 -115 -20t-106 -73l-168 103v645h755v-236h-501v-202q69 14 145 14q215 0 319.5 -108t104.5 -308q0 -199 -105.5 -305t-318.5 -106q-75 0 -128 7.5t-107 28.5 t-101 62.5t-94 107.5z" />
<glyph unicode="6" horiz-adv-x="1101" d="M129 295v518q0 189 114 292t298 103q144 0 236.5 -29t174.5 -100l-129 -157q-113 71 -239 71q-33 0 -60.5 -4.5t-47 -11t-35.5 -20t-26 -23t-17 -29t-10.5 -30.5t-5 -34.5t-2 -33.5t0 -35.5t0.5 -32.5q27 11 68.5 17.5t69.5 7.5h28q426 0 426 -420q0 -197 -108.5 -301 t-329.5 -104q-170 0 -288 96t-118 260zM381 346q0 -93 36.5 -135.5t125.5 -42.5q95 0 134.5 41.5t39.5 136.5q0 106 -33.5 147.5t-136.5 41.5q-95 0 -130.5 -44.5t-35.5 -144.5z" />
<glyph unicode="7" horiz-adv-x="1064" d="M109 -43l557 997h-555v236h845v-199l-577 -1034h-270z" />
<glyph unicode="8" horiz-adv-x="1105" d="M129 319q0 175 104 285q-88 98 -88 240q0 169 113.5 266.5t288.5 97.5q180 0 294.5 -95.5t114.5 -268.5q0 -143 -86 -242q52 -55 79.5 -130t27.5 -153q0 -177 -121.5 -278.5t-306.5 -101.5q-184 0 -302 101t-118 279zM381 324q0 -154 160 -154q90 0 135 35t45 114 q0 170 -172 170q-168 0 -168 -165zM401 844q0 -69 36.5 -99t113.5 -30t113 29t36 98q0 135 -143 135q-79 0 -117.5 -31.5t-38.5 -101.5z" />
<glyph unicode="9" horiz-adv-x="1101" d="M129 803q0 198 108 302.5t328 104.5q170 0 289 -97t119 -261v-518q0 -189 -115 -292t-299 -103q-152 0 -239.5 29t-169.5 100l129 159q103 -73 239 -73q33 0 60.5 4.5t47 11t35 19.5t25.5 23.5t17 29t10 30.5t5 34.5t2 34t-0.5 35t-0.5 32.5q-26 -11 -67.5 -17.5 t-69.5 -6.5l-29 -1q-424 0 -424 420zM383 801q0 -106 33.5 -147.5t136.5 -41.5q95 0 130.5 44.5t35.5 144.5q0 93 -36.5 135.5t-125.5 42.5q-95 0 -134.5 -41.5t-39.5 -136.5z" />
<glyph unicode=":" horiz-adv-x="454" d="M98 -43v236h258v-236h-258zM98 494v235h258v-235h-258z" />
<glyph unicode=";" horiz-adv-x="528" d="M51 -334q45 324 119 527h260q-114 -344 -201 -527h-178zM170 494v235h260v-235h-260z" />
<glyph unicode="&#x3c;" horiz-adv-x="983" d="M139 340v225l715 299v-258l-401 -153l401 -150v-260z" />
<glyph unicode="=" horiz-adv-x="1202" d="M201 145v220h800v-220h-800zM201 426v219h800v-219h-800z" />
<glyph unicode="&#x3e;" horiz-adv-x="983" d="M129 43v260l399 150l-399 153v258l715 -299v-225z" />
<glyph unicode="?" horiz-adv-x="907" d="M68 963q48 107 158 167t223 60q181 0 286 -89.5t105 -262.5q0 -144 -121 -265q-17 -18 -46.5 -45.5t-37.5 -35.5q-33 -36 -43 -68q-8 -50 -8 -74v-80h-238v133q0 82 31 143.5t90 117.5q26 21 47 47q72 76 72 133q0 61 -37 86.5t-111 25.5q-65 0 -107.5 -27t-101.5 -100z M346 -43v211h238v-211h-238z" />
<glyph unicode="@" horiz-adv-x="1712" d="M139 492q0 230 90 396t250 249.5t375 83.5q341 0 530 -184t189 -541q0 -68 -6.5 -123.5t-26 -114.5t-52 -98.5t-88.5 -65.5t-132 -26q-139 0 -205 69q-108 -80 -256 -80q-100 0 -173 34.5t-114.5 96.5t-60.5 136.5t-19 164.5t18.5 162.5t59 132.5t113 93.5t172.5 33.5 q97 0 166 -43v27h209v-498q0 -139 96 -139q24 0 41.5 7.5t27.5 22.5t16 30t8 38.5t2.5 38.5t-0.5 39.5t-1 32.5q0 155 -34.5 263t-103 170.5t-159.5 90t-215 27.5q-236 0 -374 -144t-138 -389q0 -228 126.5 -368t363.5 -140q121 0 266 56l84 -166q-177 -88 -371 -88 q-162 0 -291 54.5t-212 151t-127 226t-44 281.5zM659 489q0 -108 37 -167.5t129 -59.5q13 0 25 2t21 4t19.5 7.5t15.5 8t15 11.5t13 11.5t14 14t13 13.5v307q-74 74 -136 74q-93 0 -129.5 -59t-36.5 -167z" />
<glyph unicode="A" horiz-adv-x="1261" d="M78 -43l399 1235h309l398 -1235h-266l-113 365h-346l-115 -365h-266zM522 524h219l-110 342z" />
<glyph unicode="B" horiz-adv-x="1249" d="M164 -43v1231h452q71 0 137 -11t128.5 -38t108.5 -67t74 -102.5t28 -140.5q0 -140 -93 -221q67 -49 104.5 -124.5t37.5 -155.5q0 -79 -24 -142t-65.5 -105.5t-100 -70.5t-124.5 -40.5t-141 -12.5h-522zM422 190h260q107 0 156 31.5t49 120.5q0 135 -199 135h-266v-287z M422 705h221q93 0 144 28.5t51 100.5q0 63 -54.5 92.5t-138.5 29.5h-223v-251z" />
<glyph unicode="C" horiz-adv-x="1236" d="M129 573q0 113 15.5 204t54 173.5t100.5 137.5t159.5 87.5t225.5 32.5q133 0 242 -41.5t202 -144.5l-161 -154q-87 63 -143.5 85t-139.5 22q-78 0 -133 -20.5t-86 -53t-48.5 -87.5t-22.5 -108.5t-5 -132.5t5 -132.5t22.5 -108.5t48.5 -87t86 -52.5t133 -20.5 q82 0 138.5 22.5t144.5 86.5l161 -154q-93 -103 -201.5 -145.5t-242.5 -42.5q-129 0 -226.5 32t-159 87.5t-100.5 137.5t-54 173t-15 204z" />
<glyph unicode="D" horiz-adv-x="1304" d="M164 -43v1235h520q74 0 135.5 -11.5t108.5 -31.5t84 -51.5t63 -65.5t44.5 -80.5t29.5 -90t17 -99.5t8 -104t2 -109q0 -105 -10.5 -186t-42.5 -160.5t-85 -131t-142.5 -83t-211.5 -31.5h-520zM422 190h262q59 0 101.5 16t67.5 42t39 69t18.5 86t4.5 103v102q0 46 -1.5 79 t-7 72t-15 66t-27 54t-41.5 43t-59 26t-80 10h-262v-768z" />
<glyph unicode="E" horiz-adv-x="1232" d="M164 -43v1235h905v-238h-647v-241h584v-238h-584v-280h647v-238h-905z" />
<glyph unicode="F" horiz-adv-x="1208" d="M164 -43v1235h905v-238h-647v-241h506v-238h-506v-518h-258z" />
<glyph unicode="G" horiz-adv-x="1267" d="M129 567q0 112 14.5 203t52.5 175t98.5 140t158 89.5t225.5 33.5q140 0 247.5 -40t202.5 -146l-161 -154q-87 63 -143 85t-140 22q-57 0 -101.5 -11t-75 -29t-52.5 -48t-35 -61t-20 -76.5t-9 -86t-2 -96.5q0 -54 2.5 -95t10 -84.5t21 -74.5t35.5 -59.5t53 -46t74.5 -27.5 t98.5 -10q107 0 162 33v215h-240v225h500v-530q-125 -174 -422 -174q-128 0 -225 31.5t-159 85.5t-101 135t-54.5 172t-15.5 204z" />
<glyph unicode="H" horiz-adv-x="1304" d="M164 -43v1235h258v-487h459v487h260v-1235h-260v518h-459v-518h-258z" />
<glyph unicode="I" horiz-adv-x="585" d="M164 -43v1235h258v-1235h-258z" />
<glyph unicode="J" horiz-adv-x="1038" d="M104 86l154 158q62 -40 105 -55t98 -15q81 0 113.5 35.5t37.5 109.5q2 15 2 97v772h260v-842q0 -217 -92.5 -313t-318.5 -96q-107 0 -186 33t-173 116z" />
<glyph unicode="K" horiz-adv-x="1241" d="M164 -43v1235h258v-477l399 477h334l-483 -571l485 -664h-323l-338 471l-74 -86v-385h-258z" />
<glyph unicode="L" horiz-adv-x="999" d="M164 -43v1235h258v-997h479v-238h-737z" />
<glyph unicode="M" horiz-adv-x="1630" d="M164 -43v1235h325l324 -819l328 819h325v-1235h-258v748l-272 -713h-244l-270 713v-748h-258z" />
<glyph unicode="N" horiz-adv-x="1304" d="M164 -43v1235h325l392 -748v748h260v-1235h-328l-391 745v-745h-258z" />
<glyph unicode="O" horiz-adv-x="1349" d="M129 592q0 614 545 614q547 0 547 -614q0 -100 -5 -166.5t-33 -156.5t-81 -154q-74 -90 -187.5 -133t-240.5 -43t-240.5 43.5t-187.5 132.5q-41 48 -66.5 106t-35.5 128t-12.5 118t-2.5 125zM389 565q0 -80 4 -130t20 -105t45.5 -85.5t83.5 -50.5t132 -20q65 0 112.5 12 t78.5 38.5t50 57t28 79.5t12 92.5t3 109.5q0 58 -1.5 96t-7.5 85.5t-17.5 77.5t-32.5 61.5t-50.5 49t-73.5 29t-101 11.5q-50 0 -90 -7.5t-68.5 -24t-50 -36t-35 -50.5t-22 -59t-13 -70t-5.5 -76.5t-1 -84.5z" />
<glyph unicode="P" horiz-adv-x="1216" d="M164 -43v1235h469q95 0 175.5 -22.5t143.5 -67t99 -118.5t36 -171q0 -151 -62.5 -236.5t-176.5 -123.5q-82 -28 -221 -35q-52 -2 -103 -2t-102 2v-461h-258zM422 651h213q199 0 199 146q0 90 -50.5 125.5t-154.5 35.5h-207v-307z" />
<glyph unicode="Q" horiz-adv-x="1343" d="M129 592q0 614 545 614q547 0 547 -614q0 -75 -3 -124.5t-13 -118t-36 -127t-67 -107.5q-36 -43 -76 -72l139 -223h-299l-80 127q-49 -8 -112 -8q-127 0 -240.5 43.5t-187.5 132.5q-41 48 -66.5 106t-35.5 128t-12.5 118t-2.5 125zM389 565q0 -54 1.5 -91t7.5 -80.5 t17 -72t30 -57.5t46 -46.5t66 -29t90 -14.5l-94 150h299l43 -70q38 48 50.5 121.5t12.5 187.5q0 58 -1.5 96t-7.5 85.5t-17.5 77.5t-32.5 61.5t-50.5 49t-73.5 29t-101 11.5q-50 0 -90 -7.5t-68.5 -24t-50 -36t-35 -50.5t-22 -59t-13 -70t-5.5 -76.5t-1 -84.5z" />
<glyph unicode="R" horiz-adv-x="1259" d="M164 -43v1235h469q92 0 172 -22t144 -66t101 -117.5t37 -169.5q0 -252 -186 -344l264 -516h-270l-238 463h-235v-463h-258zM422 651h213q199 0 199 148q0 86 -51.5 121.5t-153.5 35.5h-207v-305z" />
<glyph unicode="S" horiz-adv-x="1208" d="M119 180l178 150q76 -80 151 -117t166 -37q29 0 44.5 0.5t42 2.5t41.5 6.5t34 13.5t29 22.5t17 33.5t7 46q0 41 -21.5 68.5t-66.5 48.5q-40 17 -104 33q-95 19 -123 26q-59 14 -103 28t-94.5 41.5t-83 63t-54 91.5t-21.5 126q0 126 63.5 214.5t163.5 128.5t225 40 q128 0 248.5 -45t202.5 -143l-158 -162q-79 62 -146.5 89.5t-146.5 27.5q-97 0 -144.5 -33t-47.5 -115q0 -37 21.5 -60.5t66.5 -43.5q53 -21 104 -31q21 -5 63 -14t60 -14q59 -14 103.5 -29.5t95 -44.5t83 -66t54 -95.5t21.5 -131.5q0 -79 -27 -141.5t-71.5 -103t-106 -67 t-127 -37.5t-137.5 -11q-305 0 -502 241z" />
<glyph unicode="T" horiz-adv-x="1226" d="M88 954v238h1051v-238h-398v-997h-258v997h-395z" />
<glyph unicode="U" horiz-adv-x="1413" d="M164 494v698h258v-653q0 -72 6 -123t23.5 -99.5t48.5 -78t83 -47t124 -17.5t123.5 18t82 47.5t48.5 78t24 99.5t6 122v653h258v-698q0 -167 -58.5 -290.5t-182 -195t-301.5 -71.5q-266 0 -404.5 150.5t-138.5 406.5z" />
<glyph unicode="V" horiz-adv-x="1271" d="M78 1192h266l293 -899l289 899h268l-391 -1235h-336z" />
<glyph unicode="W" horiz-adv-x="1816" d="M78 1192h266l225 -899l232 893h215l231 -893l226 899h266l-324 -1235h-336l-170 692l-172 -692h-336z" />
<glyph unicode="X" horiz-adv-x="1337" d="M109 -43l407 639l-379 596h287l248 -385l243 385h287l-381 -596l408 -639h-279l-278 436l-283 -436h-280z" />
<glyph unicode="Y" horiz-adv-x="1210" d="M78 1192h282l244 -404l250 404h279l-400 -647v-588h-258v588z" />
<glyph unicode="Z" horiz-adv-x="1239" d="M143 -43v227l592 781h-583v227h929v-227l-592 -781h607v-227h-953z" />
<glyph unicode="[" horiz-adv-x="862" d="M170 -264v1628h446v-223h-208v-1180h208v-225h-446z" />
<glyph unicode="\" horiz-adv-x="1138" d="M109 1356h256l624 -1596h-256z" />
<glyph unicode="]" horiz-adv-x="862" d="M246 -39h209v1180h-209v223h446v-1628h-446v225z" />
<glyph unicode="^" horiz-adv-x="1011" d="M109 713l301 532h192l301 -532h-258l-139 266l-139 -266h-258z" />
<glyph unicode="_" horiz-adv-x="1386" d="M190 -43v219h1006v-219h-1006z" />
<glyph unicode="`" horiz-adv-x="909" d="M109 1300h303q48 -75 91.5 -150.5t62.5 -113.5l20 -39h-228q-56 57 -136.5 157t-112.5 146z" />
<glyph unicode="a" d="M100 236q0 219 236 272q7 2 26 4t111 5q55 2 124 2q46 0 99 -1q-4 71 -59.5 98t-155.5 27q-112 0 -211 -70l-145 129q95 87 188 122.5t207 35.5q218 0 329.5 -91t111.5 -296v-516h-261v49q-94 -67 -227 -67q-373 0 -373 297zM358 238q0 -22 11 -38t25 -23.5t39.5 -11.5 t40.5 -4.5t43 -0.5h9q54 0 101 23t73 63v57h-211h-10q-28 0 -43 -1t-36.5 -6.5t-31.5 -20t-10 -37.5z" />
<glyph unicode="b" horiz-adv-x="1101" d="M129 -43v1235h258v-404q84 72 223 72q100 0 175 -32.5t120 -92.5t66.5 -139.5t21.5 -179.5q0 -250 -98 -363.5t-285 -113.5q-136 0 -223 71v-53h-258zM387 252q56 -94 168 -94q57 0 92.5 15.5t54 51t25 79t6.5 112.5q0 111 -37 166t-137 55q-116 0 -172 -92v-293z" />
<glyph unicode="c" horiz-adv-x="989" d="M109 397q0 100 22.5 181.5t70.5 146t131 100t195 35.5q101 0 195 -38.5t158 -121.5l-136 -135q-98 76 -186 76q-62 0 -100.5 -15t-57.5 -49.5t-25.5 -74.5t-6.5 -105q0 -64 6.5 -103.5t25.5 -73.5t57.5 -49t100.5 -15q88 0 186 82l136 -140q-61 -84 -156 -121.5 t-197 -37.5q-112 0 -195 35t-131 98.5t-70.5 144t-22.5 180.5z" />
<glyph unicode="d" horiz-adv-x="1101" d="M109 416q0 206 93 324t290 118q135 0 221 -70v404h260v-1235h-260v53q-87 -71 -221 -71q-188 0 -285.5 113.5t-97.5 363.5zM367 416q0 -69 6.5 -112.5t25 -79t54 -51t92.5 -15.5q112 0 168 94v293q-56 92 -172 92q-100 0 -137 -55t-37 -166z" />
<glyph unicode="e" d="M109 399q0 103 23.5 185t73.5 145t134.5 97t198.5 34q118 0 203.5 -35t134.5 -100.5t71.5 -147.5t22.5 -186v-86h-606q8 -72 58.5 -113.5t133.5 -41.5q136 0 238 86l139 -138q-124 -161 -371 -161q-240 0 -347 117t-107 345zM371 498h338q-15 73 -52.5 109t-117.5 36 q-77 0 -114 -37t-54 -108z" />
<glyph unicode="f" horiz-adv-x="882" d="M88 645v193h141v34q0 56 9 104t30.5 92t55 74.5t84.5 49t116 18.5q91 0 172.5 -41t139.5 -122l-134 -134q-45 40 -73 57t-56 17q-52 0 -69 -27t-17 -92v-30h267v-193h-267v-688h-258v688h-141z" />
<glyph unicode="g" horiz-adv-x="1099" d="M109 389q0 82 9 146t35 127t70 104t117 66.5t172 25.5q57 0 114 -22t87 -50v50h258v-768q0 -232 -110.5 -355t-352.5 -123q-244 0 -365 164l136 140q105 -89 233 -89q61 0 101 14t61 42.5t29.5 63t9.5 83.5q-84 -69 -201 -69q-114 0 -194.5 33t-125 95.5t-64 140.5 t-19.5 181zM367 389q0 -112 37.5 -170.5t136.5 -58.5q118 0 172 92v295q-55 92 -168 92q-104 0 -141 -58t-37 -192z" />
<glyph unicode="h" horiz-adv-x="1118" d="M129 -43v1235h258v-401q89 69 227 69q375 0 375 -397v-506h-258v500q0 55 -6 86.5t-25 54.5t-53 31t-92 8q-47 0 -94 -18.5t-74 -49.5v-612h-258z" />
<glyph unicode="i" horiz-adv-x="516" d="M129 -43v881h258v-881h-258zM129 952v238h258v-238h-258z" />
<glyph unicode="j" horiz-adv-x="567" d="M-106 -303l112 153q65 -36 100 -36q42 0 58 26t16 82v916h258v-865q0 -65 -5.5 -114t-23.5 -102t-50 -87.5t-88 -57t-134 -22.5q-139 0 -243 107zM180 952v236h258v-236h-258z" />
<glyph unicode="k" horiz-adv-x="1042" d="M123 -43v1233h258v-590l233 238h338l-336 -340l359 -541h-295l-244 367l-55 -56v-311h-258z" />
<glyph unicode="l" horiz-adv-x="516" d="M129 -43v1235h258v-1235h-258z" />
<glyph unicode="m" horiz-adv-x="1724" d="M129 -43v881h258v-47q89 69 227 69q200 0 297 -112q62 63 134 87.5t174 24.5q108 0 182 -27t116 -80.5t60 -123.5t18 -166v-506h-260v532q0 22 -6 43.5t-22.5 47t-54 41.5t-91.5 16q-49 0 -96 -18.5t-74 -49.5v-612h-260v504q0 98 -46 137t-130 39q-47 0 -94 -18.5 t-74 -49.5v-612h-258z" />
<glyph unicode="n" horiz-adv-x="1120" d="M129 -43v881h258v-47q89 69 227 69q107 0 181.5 -27t116.5 -80.5t60.5 -123.5t18.5 -166v-506h-260v500q0 98 -44 139t-132 41q-47 0 -94 -18.5t-74 -49.5v-612h-258z" />
<glyph unicode="o" d="M109 399q0 82 14.5 150.5t47 126.5t81.5 98.5t121.5 63t163.5 22.5q114 0 199 -34t135.5 -97t75 -145t24.5 -185q0 -102 -24 -183.5t-74 -145t-135 -97.5t-199 -34q-115 0 -199.5 33.5t-134 96.5t-73 144.5t-23.5 185.5zM367 399q0 -57 6 -96.5t23.5 -74.5t52.5 -52.5 t88 -17.5q54 0 90 17t53.5 52t24 74.5t6.5 97.5t-6.5 97.5t-24 74.5t-53.5 52.5t-90 17.5q-53 0 -88 -17.5t-52.5 -52.5t-23.5 -74.5t-6 -97.5z" />
<glyph unicode="p" horiz-adv-x="1101" d="M129 -410v1248h258v-52q88 72 223 72q187 0 285 -113.5t98 -361.5q0 -207 -93 -325.5t-290 -118.5q-139 0 -223 69v-418h-258zM387 252q56 -92 172 -92q100 0 137 55.5t37 167.5q0 54 -3.5 91t-14.5 70.5t-30.5 53t-51.5 30.5t-78 11q-114 0 -168 -94v-293z" />
<glyph unicode="q" horiz-adv-x="1101" d="M109 383q0 249 97.5 362t285.5 113q133 0 221 -72v52h260v-1248h-260v418q-84 -69 -221 -69q-197 0 -290 118.5t-93 325.5zM367 383q0 -112 37 -167.5t137 -55.5q116 0 172 92v295q-55 92 -168 92q-46 0 -78 -11t-51.5 -30.5t-30.5 -53t-14.5 -70.5t-3.5 -91z" />
<glyph unicode="r" horiz-adv-x="915" d="M129 -43v881h258v-41q78 63 186 63q82 0 135.5 -21t118.5 -75l-151 -162q-39 26 -62 34.5t-63 8.5q-50 0 -93.5 -25.5t-70.5 -66.5v-596h-258z" />
<glyph unicode="s" horiz-adv-x="1011" d="M109 123l139 133q72 -51 127 -73.5t119 -22.5q77 0 108 10q43 16 43 53q0 19 -5 31.5t-18 19.5t-20.5 9.5t-27.5 5.5t-25 4q-121 15 -168 26q-240 50 -240 256q0 65 22 115t57.5 81.5t86 52t102.5 28.5t111 8q207 0 367 -139l-142 -137q-119 67 -210 67q-34 0 -51.5 -1 t-40.5 -6.5t-33.5 -19.5t-10.5 -36q0 -21 13 -34.5t38 -20t51 -10t64 -8.5t64 -11q47 -11 79 -20.5t72.5 -30t64.5 -47.5t41 -71.5t17 -101.5q0 -101 -53.5 -169t-134 -96.5t-180.5 -28.5q-256 0 -426 184z" />
<glyph unicode="t" horiz-adv-x="862" d="M88 645v193h141v206h258v-206h267v-193h-267v-379q0 -56 16 -82t58 -26q34 0 101 37l112 -152q-101 -104 -246 -104q-84 0 -143 27t-89 62.5t-46 99.5t-18.5 108t-2.5 118v291h-141z" />
<glyph unicode="u" horiz-adv-x="1120" d="M129 336v502h258v-496q0 -99 43.5 -139.5t132.5 -40.5q48 0 94.5 18t73.5 49v609h260v-881h-260v51q-89 -69 -227 -69q-375 0 -375 397z" />
<glyph unicode="v" horiz-adv-x="1034" d="M57 838h285l172 -519l178 519h285l-330 -881h-262z" />
<glyph unicode="w" horiz-adv-x="1538" d="M57 838h283l139 -488l154 488h270l162 -488l135 488h281l-275 -881h-270l-166 498l-162 -498h-268z" />
<glyph unicode="x" horiz-adv-x="1071" d="M68 -43l319 442l-309 439h299l170 -244l172 244h280l-311 -432l316 -449h-293l-181 254l-184 -254h-278z" />
<glyph unicode="y" horiz-adv-x="1026" d="M47 -305l105 147q50 -32 90 -32q57 0 90 57q24 44 43 119l-320 850h283l176 -506l182 506h283q-235 -619 -334 -867q-92 -246 -188 -321q-75 -58 -191 -58q-148 0 -219 105z" />
<glyph unicode="z" horiz-adv-x="784" d="M16 -43v178l404 479h-389v224h737v-181l-406 -483h406v-217h-752z" />
<glyph unicode="{" horiz-adv-x="716" d="M63 432v248q95 0 117.5 14.5t22.5 77.5v221q0 109 10 154q11 53 27.5 90t47 71t81.5 50t123 14l75 -2v-170q-73 -10 -96.5 -42t-21.5 -103l4 -256q4 -167 -60 -242q64 -77 60 -242l-4 -256q-2 -72 21.5 -104.5t96.5 -42.5v-170l-75 -2q-72 -1 -123 15.5t-81.5 50.5 t-47 71t-27.5 90q-10 45 -10 152v223q0 62 -22 76t-118 14z" />
<glyph unicode="|" horiz-adv-x="495" d="M129 -240v1596h238v-1596h-238z" />
<glyph unicode="}" horiz-adv-x="696" d="M150 -88q73 10 96.5 42.5t21.5 104.5l-4 256q-4 165 60 242q-64 75 -60 242l4 256q2 71 -21.5 103t-96.5 42v170l75 2q72 2 123 -14t81.5 -50t47 -71t27.5 -90q10 -45 10 -154v-221q0 -63 22 -77.5t117 -14.5v-248q-96 0 -117.5 -13.5t-21.5 -76.5q2 0 0 -223 q0 -107 -10 -152q-11 -53 -27.5 -90t-47 -71t-81.5 -50t-123 -14l-75 2v168z" />
<glyph unicode="~" horiz-adv-x="753" d="M51 963q43 180 225 180q50 0 142 -33q4 -1 25 -9t40 -13t35 -5q40 0 60 43l163 -41q-48 -182 -227 -182q-19 0 -41 4.5t-32 7t-38 12.5t-30 11q-30 10 -54 16q-40 9 -45 9q-42 0 -59 -41z" />
<glyph unicode="&#xa1;" horiz-adv-x="534" d="M164 -41q0 63 3 137.5t6.5 125.5t11 147t10.5 143h190q31 -393 31 -553v-369h-252v369zM172 612v211h236v-211h-236z" />
<glyph unicode="&#xa8;" horiz-adv-x="933" d="M119 999v236h258v-236h-258zM528 999v236h258v-236h-258z" />
<glyph unicode="&#xaa;" horiz-adv-x="849" d="M102 723q0 168 179 205q6 1 20 3t83.5 4.5t168.5 0.5q-3 54 -43.5 72t-118.5 18q-91 0 -160 -49l-110 98q72 64 142 89.5t157 25.5q165 0 248.5 -66.5t83.5 -222.5v-389h-195v37q-68 -51 -172 -51q-283 0 -283 225zM297 723q0 -20 10.5 -33t32 -17.5t36 -5.5t41.5 -1h9 q40 0 75.5 16.5t55.5 46.5v45h-160h-27.5t-25 -2.5t-25.5 -7.5t-15 -15.5t-7 -25.5z" />
<glyph unicode="&#xac;" horiz-adv-x="1216" d="M170 354v217h877v-389h-220v172h-657z" />
<glyph unicode="&#xad;" horiz-adv-x="1212" d="M205 346v219h803v-219h-803z" />
<glyph unicode="&#xb0;" horiz-adv-x="851" d="M102 887q0 325 324 325q328 0 328 -325q0 -328 -326 -328q-173 0 -249.5 84t-76.5 244zM299 887q0 -86 24.5 -124t102.5 -38q81 0 107 37.5t26 124.5q0 85 -26 122.5t-107 37.5q-78 0 -102.5 -37.5t-24.5 -122.5z" />
<glyph unicode="&#xb4;" horiz-adv-x="909" d="M272 997q65 135 174 303h306q-148 -196 -250 -303h-230z" />
<glyph unicode="&#xb7;" horiz-adv-x="485" d="M156 362v236h258v-236h-258z" />
<glyph unicode="&#xba;" horiz-adv-x="851" d="M102 846q0 160 78 253t246 93q170 0 249 -93.5t79 -252.5q0 -160 -78.5 -254t-247.5 -94q-326 0 -326 348zM299 846q0 -44 4.5 -73.5t17 -56t39 -39.5t66.5 -13q42 0 69 13t40.5 39t18.5 56t5 74q0 88 -27 134t-106 46q-76 0 -101.5 -45.5t-25.5 -134.5z" />
<glyph unicode="&#xbf;" horiz-adv-x="825" d="M109 -57q0 144 120 264q15 16 43.5 43.5t40.5 40.5q37 37 43 67q11 46 11 74v78h235v-131q0 -83 -30.5 -145t-90.5 -117q-23 -21 -47 -47q-72 -76 -72 -133q0 -61 37 -87t111 -26q65 0 107.5 27t101.5 100l162 -133q-32 -73 -97.5 -126t-138.5 -77.5t-145 -24.5 q-181 0 -286 89.5t-105 263.5zM367 612v211h235v-211h-235z" />
<glyph unicode="&#xc0;" horiz-adv-x="1263" d="M78 -43l399 1233h309l400 -1233h-268l-113 365h-346l-115 -365h-266zM268 1636h303q49 -75 92.5 -150.5t62.5 -113.5l19 -39h-227q-54 56 -133 153t-117 150zM522 524h219l-110 342z" />
<glyph unicode="&#xc1;" horiz-adv-x="1263" d="M78 -43l399 1233h309l400 -1233h-268l-113 365h-346l-115 -365h-266zM518 1333q65 137 174 305h303q-30 -44 -111 -145t-136 -160h-230zM522 524h219l-110 342z" />
<glyph unicode="&#xc2;" horiz-adv-x="1261" d="M78 -43l399 1235h309l398 -1235h-266l-113 365h-346l-115 -365h-266zM262 1331l248 307h244l247 -307h-245l-123 158l-123 -158h-248zM522 524h219l-110 342z" />
<glyph unicode="&#xc4;" horiz-adv-x="1263" d="M78 -43l399 1233h309l400 -1233h-268l-113 365h-346l-115 -365h-266zM297 1331v238h258v-238h-258zM522 524h219l-110 342zM707 1331v238h258v-238h-258z" />
<glyph unicode="&#xc7;" horiz-adv-x="1212" d="M129 559q0 110 15 199.5t53 170t98.5 134.5t156 85.5t220.5 31.5q129 0 235.5 -41.5t196.5 -141.5l-158 -151q-84 62 -138.5 83t-135.5 21q-64 0 -111.5 -12.5t-79 -39t-51.5 -58t-30 -79.5t-13.5 -93.5t-3.5 -108.5q0 -77 5 -129t22 -106t48 -86t84.5 -52t129.5 -20 q81 0 135 22t139 84l158 -149q-91 -101 -196.5 -142.5t-235.5 -41.5q-126 0 -221.5 31.5t-156 85.5t-98 134.5t-52.5 169t-15 199.5zM422 -449l143 281h205q-28 -144 -90 -281h-258z" />
<glyph unicode="&#xc8;" horiz-adv-x="1232" d="M164 -43v1235h905v-238h-647v-241h584v-238h-584v-280h647v-238h-905zM236 1636h303q49 -75 92.5 -150.5t62.5 -113.5l19 -39h-228q-54 55 -131.5 151.5t-117.5 151.5z" />
<glyph unicode="&#xc9;" horiz-adv-x="1232" d="M164 -43v1235h905v-238h-647v-241h584v-238h-584v-280h647v-238h-905zM487 1331q66 135 175 305h305q-37 -51 -117 -150t-133 -155h-230z" />
<glyph unicode="&#xca;" horiz-adv-x="1232" d="M164 -43v1235h905v-238h-647v-241h584v-238h-584v-280h647v-238h-905zM240 1333l245 305h246l246 -305h-246l-123 156l-123 -156h-245z" />
<glyph unicode="&#xcb;" horiz-adv-x="1232" d="M164 -43v1235h905v-238h-647v-241h584v-238h-584v-280h647v-238h-905zM283 1333v236h258v-236h-258zM692 1333v236h258v-236h-258z" />
<glyph unicode="&#xcc;" horiz-adv-x="608" d="M-53 1638h303q49 -75 92.5 -150.5t62.5 -113.5l19 -39h-227q-54 56 -133 153t-117 150zM186 -43v1235h258v-1235h-258z" />
<glyph unicode="&#xcd;" horiz-adv-x="608" d="M164 -43v1235h258v-1235h-258zM184 1335q63 135 172 303h306q-38 -53 -117 -150t-133 -153h-228z" />
<glyph unicode="&#xce;" horiz-adv-x="739" d="M0 1333l248 305h244l247 -305h-247l-123 156l-123 -156h-246zM240 -43v1235h258v-1235h-258z" />
<glyph unicode="&#xcf;" horiz-adv-x="667" d="M0 1331v238h258v-238h-258zM205 -43v1235h258v-1235h-258zM410 1331v238h258v-238h-258z" />
<glyph unicode="&#xd1;" horiz-adv-x="1304" d="M164 -43v1235h325l392 -748v748h260v-1235h-328l-391 745v-745h-258zM307 1391q19 86 76 133t149 47q50 0 142 -33q4 -1 25 -9t40 -13t35 -5q40 0 60 43l161 -41q-45 -182 -225 -182q-19 0 -41 4.5t-32 7t-38 12.5t-30 11q-30 10 -54 16q-40 9 -45 9q-42 0 -59 -41z" />
<glyph unicode="&#xd2;" horiz-adv-x="1349" d="M129 592q0 614 545 614q547 0 547 -614q0 -75 -3 -124.5t-13 -118.5t-35.5 -127.5t-65.5 -106.5q-76 -89 -189.5 -132.5t-240.5 -43.5q-126 0 -239 43t-187 133q-53 64 -81 154t-33 156.5t-5 166.5zM295 1638h305q48 -75 91 -151t62 -115l19 -39h-227q-55 57 -133.5 155 t-116.5 150zM391 563q0 -56 2 -94.5t8.5 -82.5t18.5 -73t33 -57.5t50.5 -45t72.5 -26.5t98 -10q56 0 100 10t74 26.5t51.5 45.5t33 58t18 73.5t8.5 83t2 94.5q0 57 -1.5 96t-8 85.5t-18.5 77t-33 61.5t-51 48.5t-74 28.5t-101 11q-56 0 -100 -11.5t-73.5 -29t-50.5 -49 t-32.5 -61.5t-17.5 -77.5t-7.5 -85.5t-1.5 -96z" />
<glyph unicode="&#xd3;" horiz-adv-x="1349" d="M129 592q0 614 545 614q547 0 547 -614q0 -100 -5 -166.5t-33 -156.5t-81 -154q-74 -90 -187.5 -133t-240.5 -43t-240.5 43.5t-187.5 132.5q-41 48 -66.5 106t-35.5 128t-12.5 118t-2.5 125zM389 565q0 -80 4 -130t20 -105t45.5 -85.5t83.5 -50.5t132 -20q65 0 112.5 12 t78.5 38.5t50 57t28 79.5t12 92.5t3 109.5q0 58 -1.5 96t-7.5 85.5t-17.5 77.5t-32.5 61.5t-50.5 49t-73.5 29t-101 11.5q-50 0 -90 -7.5t-68.5 -24t-50 -36t-35 -50.5t-22 -59t-13 -70t-5.5 -76.5t-1 -84.5zM575 1333q66 137 175 305h303q-30 -43 -111 -144t-137 -161h-230 z" />
<glyph unicode="&#xd4;" horiz-adv-x="1349" d="M129 592q0 614 545 614q547 0 547 -614q0 -75 -3 -124.5t-13 -118.5t-35.5 -127.5t-65.5 -106.5q-76 -89 -189.5 -132.5t-240.5 -43.5q-126 0 -239 43t-187 133q-53 64 -81 154t-33 156.5t-5 166.5zM307 1331l246 307h246l245 -307h-245l-123 158l-123 -158h-246z M391 563q0 -56 2 -94.5t8.5 -82.5t18.5 -73t33 -57.5t50.5 -45t72.5 -26.5t98 -10q56 0 99.5 10t73.5 26.5t51.5 45.5t33.5 58.5t18.5 73.5t8.5 82.5t2 94.5q0 57 -1.5 96t-8 85.5t-18.5 77t-33 61.5t-51 48.5t-74 28.5t-101 11q-56 0 -100 -11.5t-73.5 -29t-50.5 -49 t-32.5 -61.5t-17.5 -77.5t-7.5 -85.5t-1.5 -96z" />
<glyph unicode="&#xd6;" horiz-adv-x="1452" d="M231 592q0 614 545 614q547 0 547 -614q0 -75 -3 -124.5t-13 -118.5t-35.5 -127.5t-65.5 -106.5q-76 -89 -189.5 -132.5t-240.5 -43.5q-126 0 -239 43t-187 133q-53 64 -81 154t-33 156.5t-5 166.5zM442 1331v238h258v-238h-258zM494 563q0 -56 2 -94.5t8.5 -82.5t18 -73 t32.5 -57.5t50.5 -45t72.5 -26.5t98 -10q56 0 99.5 10t73.5 26.5t51.5 45.5t33.5 58.5t18.5 73.5t8.5 82.5t2 94.5q0 57 -1.5 96t-8 85.5t-18.5 77t-33 61.5t-51 48.5t-74 28.5t-101 11q-56 0 -100 -11.5t-73.5 -29t-50 -49t-32 -61.5t-17.5 -77.5t-7.5 -85.5t-1.5 -96z M852 1331v238h258v-238h-258z" />
<glyph unicode="&#xd9;" horiz-adv-x="1413" d="M164 494v698h258v-653q0 -71 6 -122t24 -99.5t49 -78t82 -47.5t122 -18q90 0 148 25t87.5 77t40 112.5t10.5 150.5v653h258v-698q0 -256 -138.5 -406.5t-405.5 -150.5q-264 0 -402.5 151.5t-138.5 405.5zM342 1638h303q49 -75 92.5 -151t62.5 -115l19 -39h-227 q-55 57 -133.5 155t-116.5 150z" />
<glyph unicode="&#xda;" horiz-adv-x="1413" d="M164 494v698h258v-653q0 -72 6 -123t23.5 -99.5t48.5 -78t83 -47t124 -17.5t123.5 18t82 47.5t48.5 78t24 99.5t6 122v653h258v-698q0 -167 -58.5 -290.5t-182 -195t-301.5 -71.5q-266 0 -404.5 150.5t-138.5 406.5zM594 1333q63 137 172 305h305q-38 -52 -116.5 -150 t-133.5 -155h-227z" />
<glyph unicode="&#xdb;" horiz-adv-x="1413" d="M164 494v698h258v-653q0 -71 6 -122t24 -99.5t49 -78t82 -47.5t122 -18q90 0 148 25t87.5 77t40 112.5t10.5 150.5v653h258v-698q0 -256 -138.5 -406.5t-405.5 -150.5q-264 0 -402.5 151.5t-138.5 405.5zM338 1331l248 307h243l248 -307h-248l-120 158l-125 -158h-246z " />
<glyph unicode="&#xdc;" horiz-adv-x="1413" d="M164 494v698h258v-653q0 -71 6 -122t24 -99.5t49 -78t82 -47.5t122 -18q90 0 148 25t87.5 77t40 112.5t10.5 150.5v653h258v-698q0 -256 -138.5 -406.5t-405.5 -150.5q-264 0 -402.5 151.5t-138.5 405.5zM373 1331v238h258v-238h-258zM782 1331v238h258v-238h-258z" />
<glyph unicode="&#xe0;" d="M100 236q0 219 236 272q7 2 26 4t111 5t223 1q-4 71 -59.5 98t-155.5 27q-112 0 -211 -70l-145 132q95 85 188 120t207 35q218 0 329.5 -90.5t111.5 -296.5v-516h-261v49q-94 -67 -227 -67q-373 0 -373 297zM164 1309h305q48 -75 91.5 -150.5t63.5 -114.5l19 -38h-229 q-54 56 -133 153t-117 150zM358 238q0 -22 11 -38t25 -23.5t39.5 -11.5t40.5 -4.5t43 -0.5h9q54 0 101 23t73 63v57h-211h-10q-28 0 -43 -1t-36.5 -6.5t-31.5 -20t-10 -37.5z" />
<glyph unicode="&#xe1;" d="M100 236q0 219 236 272q7 2 26 4t111 5t223 1q-4 71 -59.5 98t-155.5 27q-112 0 -211 -70l-145 129q95 87 188 122.5t207 35.5q218 0 329.5 -91t111.5 -296v-516h-261v49q-94 -67 -227 -67q-373 0 -373 297zM358 238q0 -22 11 -38t25 -23.5t39.5 -11.5t40.5 -4.5t43 -0.5 h9q54 0 101 23t73 63v57h-211h-10q-28 0 -43 -1t-36.5 -6.5t-31.5 -20t-10 -37.5zM434 1006q63 135 174 303h303q-40 -55 -117.5 -151.5t-131.5 -151.5h-228z" />
<glyph unicode="&#xe2;" d="M100 236q0 219 236 272q7 2 26 4t111 5t223 1q-4 71 -59.5 98t-155.5 27q-112 0 -211 -70l-145 132q95 85 188 120t207 35q218 0 329.5 -90.5t111.5 -296.5v-516h-261v49q-94 -67 -227 -67q-373 0 -373 297zM172 1004l246 307h246l245 -307h-245l-123 157l-123 -157h-246 zM358 238q0 -22 11 -38t25 -23.5t39.5 -11.5t40.5 -4.5t43 -0.5h9q54 0 101 23t73 63v57h-211h-10q-28 0 -43 -1t-36.5 -6.5t-31.5 -20t-10 -37.5z" />
<glyph unicode="&#xe4;" d="M100 236q0 219 236 272q7 2 26 4t111 5t223 1q-4 71 -59.5 98t-155.5 27q-112 0 -211 -70l-145 129q95 87 188 122.5t207 35.5q218 0 329.5 -90.5t111.5 -296.5v-516h-261v49q-94 -67 -227 -67q-373 0 -373 297zM219 1004v237h258v-237h-258zM358 238q0 -22 11 -38 t25 -23.5t39.5 -11.5t40.5 -4.5t43 -0.5h9q54 0 101 23t73 63v57h-211h-10q-28 0 -43 -1t-36.5 -6.5t-31.5 -20t-10 -37.5zM629 1004v237h258v-237h-258z" />
<glyph unicode="&#xe7;" horiz-adv-x="980" d="M109 389q0 99 22 179t69.5 144t129.5 99t194 35q99 0 191 -38t157 -120l-133 -133q-99 74 -184 74q-61 0 -99 -15t-57.5 -48.5t-25.5 -73t-6 -103.5t6 -103.5t25.5 -73t57.5 -48t99 -14.5q90 0 184 79l133 -135q-61 -84 -155 -122t-193 -38q-112 0 -194 35t-129 98.5 t-69.5 143.5t-22.5 178zM246 -430l143 285h207q-27 -143 -90 -285h-260z" />
<glyph unicode="&#xe8;" d="M109 399q0 103 23.5 185t73.5 145t134.5 97t198.5 34q118 0 203.5 -35t134.5 -100.5t71.5 -147.5t22.5 -186v-86h-606q8 -72 58.5 -113.5t133.5 -41.5q136 0 238 86l139 -138q-124 -161 -371 -161q-240 0 -347 117t-107 345zM170 1309h303q49 -75 92.5 -150.5 t62.5 -114.5l19 -38h-227q-54 56 -133 153t-117 150zM371 498h338q-15 73 -52.5 109t-117.5 36q-77 0 -114 -37t-54 -108z" />
<glyph unicode="&#xe9;" d="M109 399q0 103 23.5 185t73.5 145t134.5 97t198.5 34q118 0 203.5 -35t134.5 -100.5t71.5 -147.5t22.5 -186v-86h-606q8 -72 58.5 -113.5t133.5 -41.5q136 0 238 86l139 -138q-124 -161 -371 -161q-240 0 -347 117t-107 345zM371 498h338q-15 73 -52.5 109t-117.5 36 q-77 0 -114 -37t-54 -108zM446 1006q64 135 175 303h303q-38 -53 -117 -150t-133 -153h-228z" />
<glyph unicode="&#xea;" d="M109 399q0 103 23.5 185t73.5 145t134.5 97t198.5 34q118 0 203.5 -35t134.5 -100.5t71.5 -147.5t22.5 -186v-86h-606q8 -72 58.5 -113.5t133.5 -41.5q136 0 238 86l137 -138q-122 -161 -369 -161q-240 0 -347 117t-107 345zM178 1004l248 307h244l248 -307h-246 l-123 157l-123 -157h-248zM371 498h338q-15 73 -52.5 109t-117.5 36q-77 0 -114 -37t-54 -108z" />
<glyph unicode="&#xeb;" d="M109 399q0 103 23.5 185t73.5 145t134.5 97t198.5 34q118 0 203.5 -35t134.5 -100.5t71.5 -147.5t22.5 -186v-86h-606q8 -72 58.5 -113.5t133.5 -41.5q136 0 238 86l137 -138q-122 -161 -369 -161q-240 0 -347 117t-107 345zM215 1004v237h258v-237h-258zM371 498h338 q-15 73 -52.5 109t-117.5 36q-77 0 -114 -37t-54 -108zM625 1004v237h258v-237h-258z" />
<glyph unicode="&#xec;" horiz-adv-x="591" d="M-35 1309h303q49 -76 92.5 -152t62.5 -115l19 -38h-227q-54 55 -132 152t-118 153zM205 -43v881h258v-881h-258z" />
<glyph unicode="&#xed;" horiz-adv-x="591" d="M129 -43v881h258v-881h-258zM150 1004q63 135 174 305h303q-40 -56 -118 -153t-132 -152h-227z" />
<glyph unicode="&#xee;" horiz-adv-x="698" d="M-20 1004l247 307h244l248 -307h-248l-123 157l-123 -157h-245zM219 -43v881h258v-881h-258z" />
<glyph unicode="&#xef;" horiz-adv-x="626" d="M-20 1004v237h258v-237h-258zM184 -43v881h258v-881h-258zM389 1004v237h258v-237h-258z" />
<glyph unicode="&#xf1;" horiz-adv-x="1120" d="M129 -43v881h258v-47q89 69 227 69q107 0 181.5 -27t116.5 -80.5t60.5 -123.5t18.5 -166v-506h-260v500q0 98 -44 139t-132 41q-47 0 -94 -18.5t-74 -49.5v-612h-258zM248 1006q43 180 225 180q49 0 141 -33q3 -1 25 -9t41 -13t35 -5q39 0 59 43l164 -41 q-48 -182 -227 -182q-15 0 -30 2t-31.5 6.5t-27 8t-29 10t-24.5 8.5q-33 11 -53 16q-40 9 -45 9q-42 0 -59 -41z" />
<glyph unicode="&#xf2;" d="M109 399q0 82 14.5 150.5t47 126.5t81.5 98.5t121.5 63t163.5 22.5q114 0 199 -34t135.5 -97t75 -145t24.5 -185q0 -102 -24 -183.5t-74 -145t-135 -97.5t-199 -34q-115 0 -199.5 33.5t-134 96.5t-73 144.5t-23.5 185.5zM158 1309h303q49 -75 92.5 -150.5t62.5 -114.5 l19 -38h-227q-54 56 -133 153t-117 150zM367 399q0 -57 6 -96.5t23.5 -74.5t52.5 -52.5t88 -17.5q54 0 90 17t53.5 52t24 74.5t6.5 97.5t-6.5 97.5t-24 74.5t-53.5 52.5t-90 17.5q-53 0 -88 -17.5t-52.5 -52.5t-23.5 -74.5t-6 -97.5z" />
<glyph unicode="&#xf3;" d="M109 399q0 82 14.5 150.5t47 126.5t81.5 98.5t121.5 63t163.5 22.5q114 0 199 -34t135.5 -97t75 -145t24.5 -185q0 -102 -24 -183.5t-74 -145t-135 -97.5t-199 -34q-115 0 -199.5 33.5t-134 96.5t-73 144.5t-23.5 185.5zM367 399q0 -57 6 -96.5t23.5 -74.5t52.5 -52.5 t88 -17.5q54 0 90 17t53.5 52t24 74.5t6.5 97.5t-6.5 97.5t-24 74.5t-53.5 52.5t-90 17.5q-53 0 -88 -17.5t-52.5 -52.5t-23.5 -74.5t-6 -97.5zM446 1006q64 135 175 303h303q-38 -53 -117 -150t-133 -153h-228z" />
<glyph unicode="&#xf4;" d="M109 399q0 82 14.5 150.5t47 126.5t81.5 98.5t121.5 63t163.5 22.5q114 0 199 -34t135.5 -97t75 -145t24.5 -185q0 -102 -24 -183.5t-74 -145t-135 -97.5t-199 -34q-115 0 -199.5 33.5t-134 96.5t-73 144.5t-23.5 185.5zM170 1004l248 307h244l247 -307h-247l-123 157 l-123 -157h-246zM367 399q0 -57 6 -96.5t23.5 -74.5t52.5 -52.5t88 -17.5q54 0 90 17t53.5 52t24 74.5t6.5 97.5t-6.5 97.5t-24 74.5t-53.5 52.5t-90 17.5q-53 0 -88 -17.5t-52.5 -52.5t-23.5 -74.5t-6 -97.5z" />
<glyph unicode="&#xf6;" d="M109 399q0 82 14.5 150.5t47 126.5t81.5 98.5t121.5 63t163.5 22.5q114 0 199 -34t135.5 -97t75 -145t24.5 -185q0 -102 -24 -183.5t-74 -145t-135 -97.5t-199 -34q-115 0 -199.5 33.5t-134 96.5t-73 144.5t-23.5 185.5zM211 1004v237h258v-237h-258zM367 399 q0 -57 6 -96.5t23.5 -74.5t52.5 -52.5t88 -17.5q54 0 90 17t53.5 52t24 74.5t6.5 97.5t-6.5 97.5t-24 74.5t-53.5 52.5t-90 17.5q-53 0 -88 -17.5t-52.5 -52.5t-23.5 -74.5t-6 -97.5zM621 1004v237h258v-237h-258z" />
<glyph unicode="&#xf8;" d="M100 -240l625 1596h256l-625 -1596h-256zM109 399q0 82 14.5 150.5t47 126.5t81.5 98.5t121.5 63t163.5 22.5q114 0 199 -34t135.5 -97t75 -145t24.5 -185q0 -102 -24 -183.5t-74 -145t-135 -97.5t-199 -34q-115 0 -199.5 33.5t-134 96.5t-73 144.5t-23.5 185.5zM367 399 q0 -57 6 -96.5t23.5 -74.5t52.5 -52.5t88 -17.5q54 0 90 17t53.5 52t24 74.5t6.5 97.5t-6.5 97.5t-24 74.5t-53.5 52.5t-90 17.5q-53 0 -88 -17.5t-52.5 -52.5t-23.5 -74.5t-6 -97.5z" />
<glyph unicode="&#xf9;" horiz-adv-x="1120" d="M129 336v502h258v-496q0 -99 43.5 -139.5t132.5 -40.5q48 0 94.5 18t73.5 49v609h260v-881h-260v51q-89 -69 -227 -69q-375 0 -375 397zM190 1309h306q48 -75 91 -150.5t62 -114.5l19 -38h-228q-54 56 -133 153t-117 150z" />
<glyph unicode="&#xfa;" horiz-adv-x="1120" d="M129 336v502h258v-496q0 -99 43.5 -139.5t132.5 -40.5q48 0 94.5 18t73.5 49v609h260v-881h-260v51q-89 -69 -227 -69q-375 0 -375 397zM449 1006q63 135 174 303h303q-38 -53 -117 -150t-133 -153h-227z" />
<glyph unicode="&#xfb;" horiz-adv-x="1118" d="M129 336v502h258v-496q0 -99 43.5 -139.5t132.5 -40.5q48 0 94.5 18t73.5 49v609h258v-881h-258v51q-89 -69 -227 -69q-375 0 -375 397zM193 1006l247 307h244l248 -307h-248l-123 157l-123 -157h-245z" />
<glyph unicode="&#xfc;" horiz-adv-x="1120" d="M129 336v502h258v-496q0 -99 43.5 -139.5t132.5 -40.5q48 0 94.5 18t73.5 49v609h260v-881h-260v51q-89 -69 -227 -69q-375 0 -375 397zM225 1006v237h258v-237h-258zM635 1006v237h258v-237h-258z" />
<glyph unicode="&#x2000;" horiz-adv-x="819" />
<glyph unicode="&#x2001;" horiz-adv-x="1638" />
<glyph unicode="&#x2002;" horiz-adv-x="819" />
<glyph unicode="&#x2003;" horiz-adv-x="1638" />
<glyph unicode="&#x2004;" horiz-adv-x="546" />
<glyph unicode="&#x2005;" horiz-adv-x="409" />
<glyph unicode="&#x2006;" horiz-adv-x="273" />
<glyph unicode="&#x2007;" horiz-adv-x="273" />
<glyph unicode="&#x2008;" horiz-adv-x="204" />
<glyph unicode="&#x2009;" horiz-adv-x="327" />
<glyph unicode="&#x200a;" horiz-adv-x="91" />
<glyph unicode="&#x2010;" horiz-adv-x="1212" d="M205 346v219h803v-219h-803z" />
<glyph unicode="&#x2011;" horiz-adv-x="1212" d="M205 346v219h803v-219h-803z" />
<glyph unicode="&#x2012;" horiz-adv-x="1212" d="M205 346v219h803v-219h-803z" />
<glyph unicode="&#x2013;" horiz-adv-x="1212" d="M205 346v219h803v-219h-803z" />
<glyph unicode="&#x2014;" horiz-adv-x="1746" d="M205 346v219h1337v-219h-1337z" />
<glyph unicode="&#x2018;" horiz-adv-x="505" d="M94 911.5q-5 59.5 2 89.5q14 90 67 158t142 101l109 -113q-34 -44 -49 -85t-15 -97q0 -74 39 -154h-276q-14 41 -19 100.5z" />
<glyph unicode="&#x2019;" horiz-adv-x="542" d="M109 918q53 56 70.5 94t17.5 96q0 44 -50 147h277q27 -77 27 -141q0 -210 -222 -305z" />
<glyph unicode="&#x201c;" horiz-adv-x="880" d="M96 911.5q-5 59.5 2 89.5q14 90 67 158t142 101l111 -113q-36 -43 -51 -84.5t-15 -97.5q0 -74 39 -154h-276q-14 41 -19 100.5zM450.5 911.5q-4.5 59.5 2.5 89.5q14 90 67 158t142 101l110 -113q-35 -42 -49 -83t-14 -99q0 -80 36 -154h-276q-14 41 -18.5 100.5z" />
<glyph unicode="&#x201d;" horiz-adv-x="878" d="M109 920q34 45 48.5 86.5t14.5 97.5q0 71 -39 151h279q14 -39 18 -100t-2 -90q-16 -90 -69 -156.5t-142 -99.5zM463 920q35 44 49 85.5t14 98.5q0 75 -37 151h277q14 -41 18.5 -100.5t-2.5 -89.5q-14 -89 -66.5 -156t-142.5 -100z" />
<glyph unicode="&#x2022;" horiz-adv-x="970" d="M150 567q0 131 93 225.5t226 94.5q132 0 227 -94.5t95 -225.5q0 -133 -94.5 -226t-227.5 -93t-226 93t-93 226z" />
<glyph unicode="&#x202f;" horiz-adv-x="327" />
<glyph unicode="&#x205f;" horiz-adv-x="409" />
<glyph unicode="&#x25fc;" horiz-adv-x="839" d="M0 0v840h840v-840h-840z" />
</font>
</defs>
</svg>
