<?xml version="1.0" standalone="no"?>
<!DOCTYPE svg PUBLIC "-//W3C//DTD SVG 1.1//EN" "http://www.w3.org/Graphics/SVG/1.1/DTD/svg11.dtd" >
<svg xmlns="http://www.w3.org/2000/svg" xmlns:xlink="http://www.w3.org/1999/xlink" version="1.1">
<metadata></metadata>
<defs>
<font id="hospitaliconos" horiz-adv-x="921" >
<font-face units-per-em="2048" ascent="1460" descent="-588" />
<missing-glyph horiz-adv-x="409" />
<glyph horiz-adv-x="0" />
<glyph horiz-adv-x="682" />
<glyph unicode=" "  horiz-adv-x="409" />
<glyph unicode="&#x09;" horiz-adv-x="409" />
<glyph unicode="&#xa0;" horiz-adv-x="409" />
<glyph unicode="!" horiz-adv-x="1646" d="M205 94v1102h1110l127 -125h-1018l1010 -1010l-88 -90l-1016 1016v-1018z" />
<glyph unicode="&#x22;" horiz-adv-x="2080" d="M205 584l786 786h176l-718 -721h1427v-125h-1434l719 -719h-178z" />
<glyph unicode="#" horiz-adv-x="1636" d="M205 -35v1110l125 125v-1016l1009 1010l91 -90l-1016 -1014h1018l-125 -125h-1102z" />
<glyph unicode="$" horiz-adv-x="1974" d="M205 750v178l719 -721v1429h125v-1435l720 719v-177l-780 -780z" />
<glyph unicode="%" horiz-adv-x="1646" d="M205 94h1018l-1010 1010l88 88l1014 -1014v1018l127 -125v-1102h-1112z" />
<glyph unicode="&#x26;" horiz-adv-x="2080" d="M205 524v127h1435l-720 719h178l778 -778l-786 -787h-177l719 719h-1427z" />
<glyph unicode="'" horiz-adv-x="389" d="M102 821q74 101 74 254q0 62 -20 115h131q14 -55 14 -117q0 -101 -33.5 -187t-109.5 -132z" />
<glyph unicode="(" horiz-adv-x="1974" d="M205 244v176l778 778l786 -784v-178l-718 718v-1427h-127v1436z" />
<glyph unicode=")" horiz-adv-x="1814" d="M205 1300v549l522 -82q77 68 179 102t212 34q135 0 264 -48.5t222 -140.5l-86 -88q-74 76 -181.5 116t-218.5 40q-209 0 -350 -144l-440 70v-250l442 117v-332q-94 -13 -163.5 -57t-110 -112t-59.5 -148.5t-19 -175.5v-1231q0 -48 16 -72.5t60 -24.5h673q80 0 80 97v1231 q0 103 -15.5 182t-53.5 146.5t-107 110t-170 56.5l-2 297q137 53 236 53q157 0 287 -87t188 -232l-115 -47q-44 112 -143.5 178t-218.5 66q-48 0 -111 -17l2 -108q77 -21 137.5 -67t99 -104.5t63.5 -131.5t35.5 -145.5t10.5 -149.5v-1231q0 -95 -55 -156t-148 -61h-673 q-97 0 -148 59.5t-51 157.5v1231q0 94 20.5 184.5t61 174t110.5 147t160 90.5v71z" />
<glyph unicode="*" horiz-adv-x="737" d="M41 993l41 92q21 -9 74 -31.5t90.5 -39.5t72.5 -35q-6 55 -6 108q0 27 2 82t2 82h101q0 -27 1.5 -85t1 -103t-4.5 -84q35 18 74 35.5t90 38.5t75 32l41 -94q-21 -9 -61.5 -27.5t-65.5 -30t-60.5 -25.5t-66.5 -23q25 -25 52 -57t44.5 -56t46 -64t42.5 -59l-82 -61 q-15 20 -58 74.5t-70.5 93.5t-47.5 80q-21 -40 -49.5 -80.5t-70.5 -92.5t-59 -75l-79 61q14 19 52.5 75t68 92.5t61.5 68.5q-39 12 -80 29.5t-94.5 42.5t-77.5 36z" />
<glyph unicode="+" horiz-adv-x="944" d="M113 377v115h303v301h112v-301h303v-115h-303v-303h-112v303h-303z" />
<glyph unicode="," horiz-adv-x="364" d="M41 -332q45 263 92 434h139q-83 -270 -149 -434h-82z" />
<glyph unicode="-" horiz-adv-x="1087" d="M184 356v115h719v-115h-719z" />
<glyph unicode="." horiz-adv-x="309" d="M92 -43v145h125v-145h-125z" />
<glyph unicode="/" horiz-adv-x="1636" d="M205 1075l125 125h1102v-1112l-125 -123v1016l-1012 -1012l-88 88l1016 1018h-1018z" />
<glyph unicode="0" horiz-adv-x="2377" d="M205 614q0 200 78 382t209.5 313.5t313.5 209.5t382 78t382.5 -78t314.5 -209.5t210 -313.5t78 -382q0 -160 -50 -310.5t-141 -271.5t-212 -212t-271.5 -141t-310.5 -50q-200 0 -382 78t-313.5 210t-209.5 314.5t-78 382.5zM512 406h1354v432h-1354v-432z" />
<glyph unicode="1" horiz-adv-x="2496" d="M205 608q0 142 37.5 277t104.5 249.5t163.5 211.5t210.5 164.5t249 105t277 37.5t277 -37.5t249.5 -105t211.5 -164.5t164.5 -211.5t105 -249.5t37.5 -277q0 -210 -79 -399.5t-228 -337.5q-148 -148 -338.5 -226.5t-399.5 -78.5q-170 0 -329 52.5t-287 149t-224.5 224.5 t-149 287t-52.5 329zM377 608q0 -311 196 -553l328 328l-235 809l96 27l219 -756l47 47l-117 410l537 153l33 -110l45 45l-17 53q-24 83 -104 61l-485 -141l-29 96l483 142q35 10 66 10t52.5 -7.5t40.5 -22t30.5 -28.5t21 -32.5t13.5 -29t8 -22.5l194 195q-239 199 -553 199 q-177 0 -338.5 -69.5t-277.5 -186.5t-185 -278.5t-69 -338.5zM694 -66q245 -198 553 -198q177 0 338.5 69.5t278.5 186.5t186.5 278.5t69.5 337.5q0 314 -199 553l-260 -260l164 -561q26 -92 -17.5 -151t-107.5 -76l-486 -142q-81 -24 -143 9t-86 118l-29 97zM1020 858 l78 -276l311 309l-20 74zM1036 276l43 -145q25 -87 107 -63l493 143q73 22 45 111l-145 497l-45 -45l78 -274l-496 -144zM1245 485l258 74l-41 143z" />
<glyph unicode="2" horiz-adv-x="2496" d="M205 608q0 142 37.5 277t105 249.5t164 211.5t210.5 164.5t249 105t276 37.5q142 0 277 -37.5t249.5 -105t211.5 -164.5t164.5 -211.5t105 -249.5t37.5 -277q0 -141 -37.5 -276t-105 -249t-164.5 -210.5t-211.5 -164t-249.5 -105t-277 -37.5q-211 0 -404 83t-332.5 222.5 t-222.5 332.5t-83 404zM377 608q0 -151 50.5 -293.5t145.5 -259.5l252 252h-315v314h629l661 661q-115 96 -258.5 147.5t-294.5 51.5q-176 0 -337.5 -69.5t-278 -186.5t-185.5 -278.5t-69 -338.5zM610 408h316l112 112h-428v-112zM694 -66q117 -96 260 -147t293 -51 q177 0 338.5 69.5t278.5 186.5t186.5 278.5t69.5 337.5q0 151 -51.5 294.5t-147.5 258.5l-541 -540h99v-314h-410zM1169 408h209v112h-98zM1546 311v305h80v-305h-80zM1686 516v55q25 4 36 13l4 6q3 15 3 31q0 12 -0.5 43.5t-0.5 48.5t2.5 46.5t7.5 46.5t15.5 39t26 33.5 t39.5 20t55 8.5q16 0 24 -2l9 -55q-49 -5 -71 -42.5t-24 -86.5t-4 -97t-24 -80t-72 -30l-22 2h-4zM1690 408l2 55q6 1 26.5 4.5t31 5.5t26.5 7t28 12t21 16q14 27 14 88v40t2.5 39.5t6.5 41.5t12.5 34t21 30t32 18t44.5 8q24 0 70 -12l-7 -58q-48 8 -73 -4l-11 -10 q-8 -27 -8 -57q0 -126 -13 -166q-20 -68 -96 -86q-39 -9 -96 -8z" />
<glyph unicode="3" horiz-adv-x="2480" d="M205 621q0 213 83 406.5t223 333.5t333.5 223t406.5 83t406.5 -83t333.5 -223t222.5 -333.5t82.5 -406.5t-82.5 -406.5t-222.5 -333.5t-333.5 -222.5t-406.5 -82.5t-406.5 82.5t-333.5 222.5t-223 333.5t-83 406.5zM377 621q0 -223 107.5 -419.5t295.5 -318.5 q-20 64 -20 135q0 146 99 239.5t247 109.5q1 18 1.5 58.5t1.5 65.5t6.5 61.5t15 61.5t28 50.5t45.5 42.5q-8 71 -8 161q-9 4 -37.5 16t-42 18.5t-36 20.5t-33.5 27.5t-20 33.5t-9 44q0 31 40 121.5t88.5 184t49.5 96.5v65q-169 -11 -321 -84.5t-261 -190t-173 -273 t-64 -326.5zM885 18q0 -126 72.5 -194t197.5 -68q108 0 168.5 59.5t60.5 166.5q0 32 -17.5 80t-20.5 67q-15 105 -15 262q0 4 1.5 33.5t2 57t-1 58t-8 49.5t-18.5 19q-25 0 -41 -15t-22 -43t-8 -51t-2 -56.5t-1 -43.5l-8 -153q-67 -1 -119.5 -9.5t-106.5 -31t-84 -70 t-30 -117.5zM1145 1032l178 -86q0 -17 -0.5 -51.5t-0.5 -55.5t1 -51t4 -55q35 -4 61 -22t39.5 -41.5t21 -58t9.5 -61t2 -61.5l-2 -45q114 -106 305 -106l64 2v-377q141 125 220 298t79 360q0 168 -62.5 322.5t-169.5 270.5t-256 190.5t-315 88.5v-92zM1448 -231 q137 30 254 104v342q-137 13 -242 74q5 -117 8 -137q3 -14 22 -71.5t19 -94.5q0 -125 -61 -217z" />
<glyph unicode="4" horiz-adv-x="2832" d="M205 -553l1210 2322l1213 -2322h-2423zM422 -420h1988l-995 1905zM887 268q6 115 67.5 215.5t161.5 157.5l207 -326q-46 -29 -53 -86zM1190 -309l172 346q25 -14 55 -14q26 0 47 12l164 -348q-101 -56 -209 -56q-121 0 -229 60zM1307 182q0 43 31 76t75 33q45 0 78 -31.5 t33 -75.5t-32 -76t-77 -32q-44 0 -76 30.5t-32 75.5zM1501 309l193 336q103 -53 169 -150t76 -212l-380 -58q-7 57 -58 84z" />
<glyph unicode="5" horiz-adv-x="2832" d="M205 -551l1210 2320l1213 -2320h-2423zM422 -420h1988l-995 1905zM975 211q0 183 88 451q20 -97 143 -170q9 16 36.5 63.5t39.5 70t33 66t31 74t18 70.5t8 77t-10 82q217 -249 315 -477q85 63 101 144q90 -263 90 -451q0 -41 -8 -96.5t-23 -81.5q-84 -135 -383 -221 q93 40 146.5 74.5t89 85.5t47.5 115.5t12 166.5q0 77 -14 180q-11 -51 -52 -86t-104 -67q-51 202 -141 428q11 -45 -6.5 -104t-46 -106.5t-64 -108t-49.5 -95.5q-112 57 -129 139q-15 -88 -15 -180q0 -101 11 -163t46 -112.5t81.5 -84t136.5 -84.5q-78 19 -147.5 45.5 t-141.5 73.5t-108 104q-15 26 -23 81.5t-8 96.5zM1114 -217h590v-127h-590v127zM1192 135q0 48 14 109q17 -64 99 -109q15 38 52.5 98t63 114.5t25.5 107.5q0 22 -2 34q115 -240 110 -370v-2q63 27 80 82q15 -62 15 -103q0 -82 -29 -127q-18 -29 -79.5 -75.5t-106.5 -63.5 q-15 -6 -27 -6q-50 34 -84 62.5t-66.5 66.5t-48.5 83.5t-16 98.5z" />
<glyph unicode="6" horiz-adv-x="2832" d="M205 -551l1210 2320l1213 -2320h-2423zM422 -420h1988l-995 1905zM1108 385l270 616l127 -45l-174 -350l277 99l-205 -457l274 63l-409 -639l170 445l-289 -103l207 457z" />
<glyph unicode="7" horiz-adv-x="1679" d="M205 -49v1321q0 51 17 102.5t56.5 91t92.5 39.5h938q54 0 93.5 -39.5t56 -91t16.5 -102.5v-1321q0 -52 -16.5 -103.5t-56 -91t-93.5 -39.5h-938q-53 0 -92.5 39.5t-56.5 91t-17 103.5zM643 16h414v125h-135v652h-271v-125h144v-527h-152v-125zM795 971h127v143h-127v-143 z" />
<glyph unicode="8" horiz-adv-x="1679" d="M205 -57v1321q0 51 17 102.5t56.5 91t92.5 39.5h938q54 0 93.5 -39.5t56 -91t16.5 -102.5v-1321q0 -51 -16.5 -102.5t-56 -91.5t-93.5 -40h-938q-53 0 -92.5 39.5t-56.5 91t-17 103.5zM514 53h649v125h-524v385h473v127h-473v334h524v125h-649v-1096z" />
<glyph unicode="9" horiz-adv-x="1679" d="M205 -55v1321q0 51 17 102.5t56.5 91t92.5 39.5h938q39 0 73 -24l-221 -322h-647v-940l-278 -406q-31 67 -31 138zM328 -281l231 336h604v125h-518l264 385h203v127h-117l463 674q17 -47 17 -100v-1321q0 -51 -16.5 -102.5t-56 -91.5t-93.5 -40h-938q-27 0 -43 8z M639 395v170h119zM639 692v334h436l-231 -334h-205z" />
<glyph unicode=":" horiz-adv-x="309" d="M92 -43v145h125v-145h-125zM92 668v147h125v-147h-125z" />
<glyph unicode=";" horiz-adv-x="364" d="M41 -332q45 263 92 434h139q-83 -270 -149 -434h-82zM139 668v145h125v-145h-125z" />
<glyph unicode="&#x3c;" horiz-adv-x="927" d="M164 332v166l661 276v-141l-544 -219l544 -217v-142z" />
<glyph unicode="=" horiz-adv-x="1046" d="M164 209v115h719v-115h-719zM164 465v115h719v-115h-719z" />
<glyph unicode="&#x3e;" horiz-adv-x="927" d="M102 55v142l545 217l-545 219v141l662 -276v-166z" />
<glyph unicode="?" horiz-adv-x="804" d="M61 1026q122 164 312 164q159 0 244 -83t85 -243q0 -68 -26.5 -127t-64 -102t-75 -84.5t-64 -93.5t-26.5 -109q0 -16 1.5 -46t1.5 -46h-125v127q0 60 26 115t63 97.5t73.5 83t62.5 90t26 101.5q0 102 -48 147.5t-150 45.5q-68 0 -120 -28.5t-110 -86.5zM324 -43v145h125 v-145h-125z" />
<glyph unicode="@" horiz-adv-x="2080" d="M205 584l786 786h176l-718 -721h1427v-125h-1434l719 -719h-178z" />
<glyph unicode="A" horiz-adv-x="2447" d="M205 385q0 23 26.5 86.5t57 125t61.5 122t33 65.5q0 140 14 241t58 208q109 260 343 416.5t515 156.5q189 0 361 -73.5t296.5 -197.5t198.5 -296.5t74 -361.5q0 -178 -68 -346.5t-193 -297.5v-825h-124v877q260 254 260 592q0 164 -64 312.5t-171.5 256.5t-256.5 171.5 t-313 63.5q-197 0 -371 -91.5t-287 -251.5t-139 -355q-8 -61 -8 -227l-176 -369l176 -84q0 -74 3 -133.5t15.5 -125t32 -114.5t53 -95t79 -75.5t111.5 -46.5q62 -16 139 -16h9h62v-289h-125v166q-110 9 -196.5 47.5t-143.5 97.5t-94.5 139.5t-53.5 170.5t-16 194 q-11 5 -37.5 17t-41.5 19t-36.5 21t-33 27.5t-20.5 33.5t-9 44zM768 1239v68l70 12q5 14 16 33l-41 57l47 49l60 -43q22 11 34 15l13 67h67l13 -70q12 -4 32 -16l58 41l49 -49l-43 -57q7 -14 14 -35l68 -13v-67l-72 -12q-2 -13 -14 -33l41 -58l-50 -49l-57 43 q-14 -7 -35 -14l-12 -68h-68l-12 72q-13 2 -33 14l-57 -41l-49 50l43 59q-7 11 -14 33zM920 1276q0 -31 21.5 -53.5t51.5 -22.5q31 0 53.5 22.5t22.5 53.5q0 29 -22.5 51.5t-53.5 22.5q-30 0 -51.5 -22t-21.5 -52zM1196 1092v102l109 18q9 30 24 54l-61 86l73 73l89 -61 q15 7 55 20l16 105h105l18 -109q28 -8 53 -24l88 61l72 -74l-61 -88q7 -15 20 -55l105 -18v-103l-109 -20q-8 -24 -25 -51l62 -88l-74 -74l-88 63q-35 -16 -55 -20l-17 -105h-104l-21 109q-21 7 -51 22l-88 -59l-71 74l61 88q-18 39 -21 55zM1470 1143q0 -31 22.5 -52.5 t53.5 -21.5q30 0 52 22t22 52t-22 52t-52 22q-31 0 -53.5 -21.5t-22.5 -52.5zM1614 682l6 47h53q10 20 23 33l-23 47l39 27l39 -37q24 8 39 8l16 47l47 -8v-51q20 -10 33 -23l45 23l29 -39l-37 -39q4 -13 8 -39l47 -16l-8 -48h-53q-3 -10 -21 -32l21 -47l-39 -27l-37 37 q-24 -8 -39 -8l-16 -48l-47 9v53q-17 6 -35 20l-45 -22l-27 41l37 37q-8 24 -8 39zM1720 666q0 -31 23.5 -51.5t54.5 -20.5t51.5 23.5t20.5 54.5q0 30 -24 50.5t-54 20.5t-51 -23t-21 -54z" />
<glyph unicode="B" horiz-adv-x="3092" d="M205 -25q0 164 81 313.5t220 231.5l72 -74q-123 -67 -198 -198.5t-75 -272.5q0 -155 84.5 -291t224.5 -200l-73 -74q-152 79 -244 235.5t-92 329.5zM416 -37q0 126 62.5 239t170.5 175l72 -74q-93 -45 -149 -139.5t-56 -200.5q0 -110 63 -209t164 -141l-75 -74 q-114 59 -183 176.5t-69 247.5zM633 -37q0 84 48 154.5t126 99.5l82 -82q-64 -6 -110 -56.5t-46 -115.5q0 -71 48 -117.5t128 -66.5l-78 -78q-86 21 -142 97t-56 165zM838 385q0 27 27.5 94t59 129.5t62 120.5t31.5 59q0 163 10 228q34 225 165.5 408.5t331.5 288t427 104.5 q191 0 365 -74.5t299 -200t198.5 -299t73.5 -364.5q0 -180 -68.5 -348.5t-193.5 -297.5v-829h-125v881q262 256 262 596q0 219 -108.5 405.5t-295 295t-407.5 108.5q-149 0 -287.5 -54t-244.5 -147.5t-177.5 -224t-91.5 -277.5q-8 -61 -8 -227l-178 -371l176 -84l6 -90 q155 -11 222 -35q93 -35 93 -102q0 -86 -251 -129q-8 -1 -11 -2q10 -31 20 -74.5t15.5 -66t20 -50t35.5 -40.5t58.5 -22t92.5 -9q39 0 110 4.5t99 5.5v-291h-127v160q-41 -3 -78 -3q-166 0 -242 63q-61 50 -98 174q-10 34 -28 110q-19 77 -31 119q183 4 270 55 q-63 32 -193 32q-18 0 -37 -1h-55q0 2 -12 110q-12 6 -38 17t-42 18.5t-37.5 21t-34 27t-21.5 34t-9 44.5zM1898 727v9q0 94 58 154q62 64 162 64q94 0 164.5 -71.5t70.5 -165.5q0 -38 -11.5 -71t-25.5 -51t-25.5 -35t-11.5 -28q0 -103 -11 -142q-24 -87 -114 -87 q-134 0 -137 143l76 3q0 -37 13 -53.5t48 -16.5q7 0 19 4q31 10 31 66q0 6 -1 58t5 58q6 23 24 43t31.5 44t13.5 61q0 66 -47.5 116t-113.5 50q-69 0 -105.5 -41.5t-36.5 -110.5h-76zM1995 737q8 43 41.5 71t77.5 28q56 0 98.5 -40t42.5 -96q0 -24 -10 -51l-72 25 q12 34 -6 60t-53 26q-7 0 -15.5 -2.5t-18.5 -12t-14 -24.5z" />
<glyph unicode="C" horiz-adv-x="2451" d="M205 383q0 26 27 92t58 128t61.5 120t31.5 61q0 141 14 241t60 208q107 260 342 417.5t516 157.5q189 0 361.5 -74t297.5 -198.5t199 -297t74 -361.5q0 -180 -67.5 -348.5t-192.5 -299.5v-825h-125v879q260 254 260 594q0 163 -64 312t-172.5 257t-257.5 171.5t-313 63.5 q-148 0 -286 -54t-244 -147t-177.5 -222.5t-91.5 -276.5q-4 -33 -5.5 -69.5t-1.5 -85t-1 -70.5q-56 -121 -176 -371l176 -84q0 -141 4 -180h578q67 0 120 -7.5t104.5 -27.5t85.5 -52.5t54.5 -86t20.5 -125.5v-418h-125v274v141q-7 106 -65 145q-48 30 -134 30h-619 q40 -151 150 -227q107 -74 260 -74h8h64v-289h-125v166q-191 15 -318 126t-168 298h-192v127h174q-2 33 -2 100q-12 6 -38 17t-41 18.5t-36.5 21t-33 27t-20.5 34t-9 44.5z" />
<glyph unicode="D" horiz-adv-x="1648" d="M205 -121v873q0 35 9 63t22.5 47t36 32.5t44 20.5t52 11t54 5t56.5 1q11 8 18 18.5t9.5 26.5t3.5 24t0.5 29.5t-0.5 24.5h126v-39q0 -80 -38 -139q-22 -35 -60 -48q-36 -13 -69 -13h-3q-7 0 -14 1q-27 0 -52 -2q-32 -2 -51 -25.5t-19 -74.5v-84h989v53q0 62 -8 82 q-10 28 -46 38q-26 7 -55 7q-12 -1 -22 -1q-14 -1 -29 -1q-28 1 -60 5q-49 6 -79 28q-44 32 -62 76q-16 39 -16 71v9q1 11 1 22q1 24 -3 47q-6 34 -29 49h-213q-16 0 -49.5 -0.5t-52 -0.5t-49.5 1.5t-49.5 4.5t-44.5 9.5t-41.5 16.5t-33.5 25.5t-27.5 35.5t-16 47.5 t-6.5 61.5q0 103 44 169t144 66h451h5h4q195 0 195 -190v-57h-124v20.5v22.5t-1 19.5t-4 19.5t-8 15.5t-12.5 13.5t-18.5 7.5t-26 3.5h-465q-14 0 -24 -3.5t-16 -12.5t-10 -16t-5.5 -21.5t-2 -21t-0.5 -23t1 -18.5q0 -17 5.5 -29t18 -19.5t23 -12t31 -6t30.5 -2t32.5 -0.5 t27.5 1q260 0 311 -2q23 0 57 -29q43 -38 61 -84q15 -41 15 -72q-1 -4 -1 -8q-1 -11 0 -22q0 -24 4 -44q6 -30 26 -40q16 -7 50 -9q28 -2 56 -2q7 1 15 1h4q35 0 75 -8q42 -8 73.5 -23.5t53 -52.5t21.5 -92v-881q0 -94 -68.5 -159.5t-163.5 -65.5h-770q-100 0 -168.5 64.5 t-68.5 164.5zM330 8v-129q0 -41 30.5 -72.5t71.5 -31.5h752q135 0 135 102v131h-989zM330 135h989v371h-989v-371zM666 244v125h96v92h125v-92h96v-125h-96v-92h-125v92h-96z" />
<glyph unicode="E" horiz-adv-x="1452" d="M205 -141v811h125v-445v-227q0 -48 0.5 -73t3.5 -56t8.5 -45t16 -28.5t26.5 -19.5t39 -5h612q42 0 61 27t22 60t3 112v32v178v359v180q0 18 -12.5 27.5t-28.5 9.5h-618q-47 0 -76.5 2t-62 9.5t-51 22.5t-34.5 40.5t-23 64t-7 92.5q0 37 2 66.5t8 53.5t12.5 42.5 t19.5 32.5t25 23.5t34.5 16.5t41.5 10.5t51 5.5t59 2.5t70 0.5q0 129 4 161q15 109 95 139q39 15 94 15q28 0 51.5 -6t40.5 -13.5t30.5 -23.5t22 -28t14.5 -36.5t9 -38t4.5 -42.5t2 -41.5t0.5 -44.5t-1 -41q11 0 47.5 0.5t52.5 0.5t50.5 -2t52 -7t44.5 -13t42 -21.5 t30.5 -32t22 -44.5t6.5 -59v-90h-125v14q0 27 -0.5 40.5t-5 33.5t-14.5 30t-29 17.5t-47 7.5h-254q0 234 -1 250q-4 53 -26 62q-9 4 -28 4q-43 0 -50.5 -37.5t-7.5 -218.5v-20v-18.5v-21.5h-178q-51 0 -80 -5.5t-45 -21.5t-20 -36.5t-4 -59.5q0 -76 27.5 -96t119.5 -20h561 q94 0 150.5 -34.5t56.5 -123.5v-68v-786q0 -15 -2 -33.5t-13 -54.5t-29.5 -62.5t-58.5 -47.5t-93 -21h-648q-88 0 -143 62t-55 151z" />
<glyph unicode="F" horiz-adv-x="1941" d="M205 1087q0 71 10 132.5t35 118.5t63 97t98 63.5t136 23.5q74 0 159 -23.5t156.5 -47.5t108.5 -26h2q29 0 101 25q75 26 163.5 52t146.5 26q93 0 162.5 -34t110.5 -94.5t60.5 -135.5t19.5 -166q0 -201 -38 -349.5t-149 -269.5q15 -120 15 -241q0 -275 -97 -549l-118 41 q90 250 90 508q0 118 -21 286q63 63 102.5 127.5t58.5 139.5t24.5 141.5t5.5 167.5q0 64 -10 112t-34 88t-69.5 61t-110.5 21q-74 0 -213.5 -41t-203.5 -41q-52 0 -195 48.5t-223 48.5q-66 0 -111 -24t-68 -68t-32.5 -93t-9.5 -112q0 -93 13.5 -167t46 -143.5t69.5 -126 t100 -137.5q-27 -234 -27 -317q0 -252 103 -473l-115 -53q-112 233 -112 524q0 128 20 285q-116 150 -169.5 285t-53.5 310z" />
<glyph unicode="G" horiz-adv-x="2285" d="M205 487v658q0 44 23 75t62 45.5t76 20.5t80 6h146q33 0 67.5 -4.5t74 -15t67.5 -33.5t35 -55q4 -13 4 -76q34 -59 113 -98t157 -52q71 -12 141 -12h11v-88q-278 4 -422 119v-277q153 121 428 121v-86h-12q-51 0 -105 -7q-60 -9 -122 -27.5t-113 -54t-76 -83.5 q0 -61 -5.5 -94.5t-26 -61t-57 -40.5t-100.5 -23v-1112h-250v1110q-40 3 -70.5 10.5t-61 23t-47.5 43.5t-17 68zM330 485q44 -20 114 -20h154q26 0 62 8t53 21v651q-43 22 -117 22h-141q-77 0 -125 -22v-660zM791 1321v20q0 272 163 445q168 178 453 178q183 0 338.5 -94.5 t245.5 -252.5t90 -339q0 -95 -23.5 -173.5t-56.5 -128.5t-66 -90.5t-56.5 -78.5t-23.5 -72q0 -29 1.5 -80.5t2.5 -87.5v-26q0 -27 -1 -61q-2 -51 -7 -88t-17.5 -81t-31 -77t-49 -65t-70.5 -54q-75 -43 -157 -43q-186 0 -282 101q-89 95 -89 266v22h125q0 -138 55 -201 t191 -63q69 0 117.5 41.5t68 99.5t19.5 125q0 27 2 78.5t2 93.5t-4 78q-1 14 -1 28q0 39 10 73q15 46 40 77t55 69.5t56.5 77t44.5 101.5t18 141q0 146 -73.5 275t-201 206.5t-274.5 77.5q-234 0 -362 -140.5t-128 -377.5h-124zM1081 1339q23 116 111 189.5t205 73.5 q100 0 187.5 -48t140.5 -132.5t53 -184.5q0 -75 -27 -139l-117 43q17 53 17 96q0 99 -76.5 168.5t-175.5 69.5q-77 0 -127 -43.5t-68 -120.5z" />
<glyph unicode="H" horiz-adv-x="2564" d="M205 530q106 109 207.5 199t230 182t252.5 155t269 102.5t286 39.5q459 0 909 -432l-88 -90q-181 181 -390.5 289t-436.5 108q-125 0 -258.5 -38.5t-250.5 -100t-237 -148.5t-215 -172t-188 -182zM371 211q88 116 191.5 214t224.5 178t260.5 125.5t279.5 45.5 q253 0 505 -104t400 -289q74 -99 74 -107q-86 -52 -123 -75l-350 -207l-64 108l357 211q-119 147 -330 234q0 -86 -47 -157.5t-120.5 -113.5t-156.5 -65t-163 -23q-96 0 -193.5 32.5t-177.5 103t-100 163.5q-193 -127 -369 -352zM1184 555q0 -52 38 -89.5t91 -37.5t90 37 t37 90q0 54 -37 91.5t-90 37.5t-91 -37.5t-38 -91.5z" />
<glyph unicode="I" horiz-adv-x="2553" d="M205 963q0 155 76.5 290.5t209.5 216t289 80.5q140 0 265 -70t208 -190q83 121 215 190.5t279 69.5q122 0 233.5 -47.5t192.5 -127.5t128.5 -191.5t47.5 -233.5q0 -73 -15 -137t-34.5 -108t-62 -99.5t-72 -86.5t-90.5 -92l-13 -13l-770 -770l-530 526l-268 266l-24 24 q-49 49 -73 74t-61.5 68.5t-55.5 76.5t-38.5 79t-28.5 96.5t-8 108.5zM330 963q0 -55 11.5 -103t26 -81.5t47.5 -75t55.5 -65.5t70.5 -71h153l111 523l164 -457l96 190l96 -188l115 338l143 -342l90 192l105 -190l119 360l98 -426h205q98 98 143 180t45 201 q0 198 -139.5 337.5t-337.5 139.5q-61 0 -114.5 -12t-94 -30.5t-78 -51.5t-63.5 -64.5t-54.5 -80t-47.5 -88t-44 -97.5q-24 56 -41 93t-43.5 85.5t-51.5 80t-60.5 65.5t-74.5 53.5t-90 32t-110 12.5q-122 0 -226.5 -63.5t-164 -169t-59.5 -227.5zM629 479l661 -657l660 657 h-189l-43 187l-84 -252l-118 215l-101 -215l-131 311l-108 -315l-111 219l-109 -217l-129 358l-61 -291h-137z" />
<glyph unicode="J" horiz-adv-x="2824" d="M205 502l61 63l211 -211l-61 -63zM348 549l66 65l-45 45l837 838l45 -45l68 68l90 -88l-68 -68l43 -43l-409 -410q136 -42 235.5 -141t149 -227.5t49.5 -270.5q0 -160 -60.5 -302t-179.5 -236h658v-125h-1360v125q36 0 121 -2q57 -1 104 -1h44q63 1 120 7 q136 16 234.5 93.5t146 191t47.5 249.5q0 199 -111.5 352t-302.5 183l-323 -326l-45 45l-64 -65zM1454 1024q0 118 46.5 225.5t124.5 185.5t186 124.5t227 46.5q157 0 291 -78.5t212 -212.5t78 -291q0 -119 -46.5 -227t-124.5 -186t-185 -124.5t-225 -46.5 q-158 0 -292.5 78.5t-213 213t-78.5 292.5zM1579 1022q0 -189 135 -323t324 -134q124 0 229 62t166 167.5t61 229.5q0 123 -61 228.5t-166 167t-229 61.5q-190 0 -324.5 -135t-134.5 -324zM1686 1036q0 77 55 132t131 55q83 0 145 -72q-1 8 -1 17q0 73 48 128q54 62 138 62 q76 0 131 -56t55 -133q0 -57 -32 -105.5t-85 -66.5q43 -52 43 -120v-8q0 -71 -54 -123q-56 -56 -132 -56q-72 0 -126 50t-58 122q-28 -14 -72 -14q-76 0 -131 55.5t-55 132.5zM1772 1034q0 -38 29 -68t67 -30q42 0 72 29t30 71q0 39 -29 69t-67 30q-42 0 -72 -29.5 t-30 -71.5zM2030 874q0 -38 29 -68t67 -30q43 0 72.5 29t29.5 72q0 38 -29 68t-67 30q-43 0 -72.5 -29t-29.5 -72zM2103 1169q0 -39 29 -68.5t68 -29.5q42 0 72 28.5t30 69.5q0 40 -29 70.5t-67 30.5q-43 0 -73 -29t-30 -72z" />
<glyph unicode="K" horiz-adv-x="1859" d="M205 952q0 196 97.5 363t264.5 264.5t363 97.5t363 -97.5t264.5 -264.5t97.5 -363q0 -181 -87 -342t-239 -263.5t-334 -115.5v-321h285v-127h-285v-260h-125v260h-280v127h280v321q-184 13 -337 114t-240.5 262t-87.5 345zM330 950q0 -122 48 -232.5t129 -190t192 -126.5 t233 -47q162 0 300 80.5t218 218.5t80 299q0 122 -47.5 233.5t-128 191.5t-191.5 127.5t-233 47.5t-233.5 -47.5t-191.5 -128.5t-127.5 -192.5t-47.5 -233.5z" />
<glyph unicode="L" horiz-adv-x="2840" d="M205 -166q0 5 27.5 60t29.5 57l57 110l449 881l2 504h-82v125h207l-2 -660l-561 -1097v-6q0 -7 7.5 -12t27.5 -5h1228q14 0 22.5 3t10 6t2.5 8v6q-93 183 -280.5 548t-280.5 549l-2 660h209v-125h-84l2 -504l448 -881l58 -110q2 -2 29.5 -57t27.5 -60q0 -73 -45.5 -120.5 t-118.5 -47.5h-1224q-73 0 -118.5 47.5t-45.5 120.5zM446 -139l129 256h822l131 -256h-1082zM1894 1452v125h204v-1528v-12q0 -36 1 -55.5t4 -54.5t8.5 -55.5t17.5 -46.5t29.5 -40t44 -24.5t60.5 -10.5q35 0 62 10.5t44 24.5t29 40.5t18 46.5t9 55.5t3.5 54.5t0.5 55v12 v1528h207v-125h-82v-1290q0 -178 -5 -233q-22 -214 -148 -276q-57 -28 -138 -28q-61 0 -108.5 16.5t-77 45t-51.5 67.5t-31 83.5t-15 93.5q-6 42 -6 85v12v48v47v43v1286h-80zM2152 -70v797h226v-797q0 -56 -29.5 -94.5t-83.5 -38.5t-83.5 38.5t-29.5 94.5z" />
<glyph unicode="M" horiz-adv-x="1794" d="M205 463v1179q0 126 77 202.5t203 76.5h822q126 0 203 -76.5t77 -202.5l1 -590q0 -589 -1 -589q0 -64 -18 -112.5t-45 -79t-71.5 -50.5t-84.5 -29q-42 -9 -100 -12q-39 -2 -70 -2h-30q-42 2 -102.5 4t-92.5 2v-96q24 0 39.5 -2t32 -14t16.5 -35v-420q0 -23 -16.5 -35 t-32 -14t-39.5 -2q-11 -70 -50.5 -120.5t-97.5 -77t-119.5 -38.5t-130.5 -12q-77 0 -184 14l19 125q93 -14 163 -14q227 0 271 123q-78 0 -78 51v420q0 51 82 51v96h-289q-62 0 -111.5 7t-96 25.5t-78 49t-50 80.5t-18.5 117zM330 461q0 -73 41 -112.5t114 -39.5h815 q77 0 119.5 39t42.5 115v1173q0 78 -39 119t-116 41h-795q-91 0 -136.5 -35t-45.5 -123v-1177zM420 510v252h936v-252q0 -44 -25 -70t-69 -26h-750q-44 0 -68 25.5t-24 70.5zM420 1341v252q0 45 24 71t68 26h750q44 0 69 -26t25 -71v-252h-936zM760 967q0 26 26 72.5 t52 100.5t26 99q0 13 -4 37q59 -68 113.5 -158t54.5 -151q0 -57 -40 -97.5t-97 -40.5q-56 0 -93.5 40t-37.5 98z" />
<glyph unicode="N" horiz-adv-x="1792" d="M205 463v1177q0 127 77 204t203 77h822q126 0 203 -76.5t77 -202.5v-1185q0 -62 -18 -109.5t-45.5 -77.5t-72.5 -49.5t-87 -28.5q-42 -8 -100 -12q-41 -2 -73 -2h-27q-42 2 -101.5 4t-89.5 2v-96q24 0 39.5 -2t32 -14t16.5 -35v-420q0 -23 -16.5 -35t-32 -14t-39.5 -2 q-11 -70 -50.5 -120.5t-97.5 -77t-119.5 -38.5t-130.5 -12q-77 0 -184 14l19 125q74 -14 163 -14q227 0 271 123q-78 0 -78 51v420q0 51 82 51v96h-205q-170 0 -240 16q-154 34 -187 169q-11 41 -11 94zM330 461q0 -73 41.5 -112.5t115.5 -39.5h813q75 0 118.5 38.5 t43.5 111.5v1183q0 73 -40.5 113.5t-114.5 40.5h-826q-69 0 -110 -40.5t-41 -110.5v-1184zM401 745v613h990v-613h-990z" />
<glyph unicode="O" horiz-adv-x="2449" d="M205 600q0 207 81 396t218 325.5t325.5 217.5t395.5 81t396 -81t325.5 -218t217.5 -325.5t81 -395.5t-81 -396t-217.5 -325.5t-325.5 -217.5t-396 -81t-395.5 81t-325.5 217.5t-218 325.5t-81 396zM330 596q0 -183 71.5 -348t192 -284t287 -189t348.5 -70q181 0 346 71 t284.5 191.5t190 286t70.5 346.5q0 182 -71 347.5t-191 285.5t-285.5 191t-347.5 71q-183 0 -349 -71t-285.5 -191.5t-190 -287t-70.5 -349.5zM664 305q60 65 143 126t141 61q37 0 63 -26.5t42 -65t33 -76.5t47 -64.5t73 -26.5q66 0 126 210q2 7 3 10q-190 204 -254 280 l68 78l356 -311q-33 -156 -47 -202q-62 -198 -196 -229q-26 -6 -56 -6q-33 0 -61 4t-50.5 14t-40 19.5t-33 29t-25.5 32.5t-23 40t-19 42t-19 48.5t-20 49.5q-82 -37 -190 -119zM1384 801q0 81 58.5 146t138.5 65q68 0 112 -48t44 -116q0 -82 -59 -146.5t-140 -64.5 q-67 0 -110.5 48t-43.5 116z" />
<glyph unicode="P" horiz-adv-x="3911" d="M205 -119v1379q0 78 56.5 135t135.5 57h2304q75 0 162.5 -46.5t134.5 -107.5q12 -16 23 -35.5t24.5 -48.5t18.5 -38l225 -435q7 -1 50 1q18 1 34 1q21 0 36 -1q27 -2 52 -9q35 -10 63 -42t44.5 -70.5t29.5 -92t19 -92.5t12 -87t8 -62q5 -29 24 -121t32.5 -169.5 t13.5 -119.5q0 -77 -51.5 -132.5t-128.5 -55.5h-666q-20 124 -88 197t-190 73q-124 0 -192.5 -72.5t-88.5 -197.5h-1055q-19 123 -86 196.5t-188 73.5q-125 0 -194 -72.5t-89 -197.5h-264q-94 0 -157.5 49.5t-63.5 142.5zM330 -111q0 -18 4 -31.5t13 -21.5t17 -12.5 t24.5 -6.5t26 -2t30 0.5t28.5 0.5h113q19 76 81.5 138.5t143 96t158.5 33.5q122 0 238.5 -77t144.5 -191h848q27 114 143 191t237 77q123 0 239.5 -77t143.5 -191h566q22 0 39 17.5t14 37.5l-4 27l-72 413q0 1 -7 49.5t-15.5 96.5t-24 96t-31.5 59h-913l2 715h-2122 q-26 0 -45.5 -20.5t-19.5 -46.5v-1371zM741 -322q0 94 66 160t158 66q93 0 159 -66t66 -160q0 -92 -66.5 -157.5t-158.5 -65.5t-158 65.5t-66 157.5zM866 -322q0 -39 29 -68.5t68 -29.5q42 0 72 28.5t30 69.5q0 40 -29.5 70.5t-68.5 30.5q-42 0 -71.5 -29.5t-29.5 -71.5z M1300 496v249h369v359h250v-359h369v-249h-369v-359h-250v359h-369zM2130 1544v17v94q0 63 56 102t122 39t123 -39t57 -102v-94l-2 -17h-356zM2353 -322q0 94 65.5 160t159.5 66q92 0 158 -66t66 -160q0 -92 -66 -157.5t-158 -65.5q-94 0 -159.5 65.5t-65.5 157.5z M2478 -322q0 -38 29 -68t67 -30q42 0 72.5 28.5t30.5 69.5q0 40 -29 70.5t-68 30.5q-43 0 -72.5 -29t-29.5 -72zM2642 737h508l-252 488q-19 35 -89.5 68.5t-113.5 33.5h-53v-590z" />
<glyph unicode="Q" horiz-adv-x="3641" d="M0 -55q0 69 57 139t133 114t144 56l137 303q10 21 28 68t33 81t36.5 74.5t50 70t61.5 46.5l57 -111q-17 -10 -31.5 -28t-20 -28t-19 -41.5t-15.5 -35.5l-231 -516q-211 -21 -283 -166l-12 -24q0 -46 63 -97t147.5 -88t166.5 -61.5t123 -24.5q27 0 46.5 8t29.5 20t15.5 33 t7 39.5t1.5 47.5q0 64 -19.5 109.5t-62.5 105.5q1 2 34.5 72.5t71.5 152t79 172.5t67.5 158t26.5 84t-3 31t-12.5 26t-14.5 19.5t-22.5 17t-22.5 12.5t-28 13.5t-26 11.5q3 5 21 39.5t26 47.5t27 43.5t33.5 44.5t35.5 33t43.5 26.5t46.5 7.5q49 0 93.5 -39.5t80 -103 t69.5 -140.5t68.5 -155t70 -143t81 -108t94.5 -47v1053q0 124 86.5 207.5t210.5 83.5h1264q119 0 206 -84t87 -203v-1335q0 -123 -87 -207t-210 -84h-1264q-114 0 -200.5 78.5t-90.5 191.5q-2 29 -2 174q-60 2 -115.5 35t-98 85t-82.5 118t-70 134.5t-58.5 134t-50 116.5 t-43 82t-39.5 31q-10 0 -30.5 -25.5t-30.5 -42.5q82 -76 82 -180q0 -32 -24.5 -102.5t-62.5 -156t-72.5 -158.5t-67.5 -139.5t-34 -68.5q31 -44 48.5 -106.5t17.5 -120.5q0 -275 -227 -275q-69 0 -173.5 32t-206 83t-173.5 126.5t-72 152.5zM1710 33q0 -65 49.5 -112.5 t114.5 -47.5h1272q66 0 115 48t49 114v1333q0 78 -52.5 122t-130.5 44h-1245q-70 0 -121 -46t-51 -116v-1339zM1841 592l488 485q37 -45 90 -70.5t110 -25.5q116 0 199 90l446 -444q-41 -149 -140 -265t-237.5 -180.5t-293.5 -64.5q-225 0 -408.5 131t-253.5 344z" />
<glyph unicode="R" horiz-adv-x="3010" d="M205 -55v260v1065q0 121 85 205t206 84h2023q115 0 201 -83t86 -198v-1360q0 -121 -85 -205t-206 -84h-2023q-132 0 -209.5 91.5t-77.5 224.5zM330 -100q0 -73 48.5 -119.5t121.5 -46.5h2015q68 0 117 48t49 116v1329q0 83 -44 134.5t-126 51.5h-2013q-72 0 -120 -49 t-48 -121v-799v-544zM655 588l621 620q46 -57 113.5 -90t140.5 -33q72 0 138.5 30.5t113.5 84.5l569 -569q-80 -287 -318 -469t-536 -182q-189 0 -360.5 76t-297 214.5t-184.5 317.5zM995 381l47 -72q90 57 172 92q6 -13 16.5 -39t16 -38.5t15.5 -34t18.5 -32.5t21.5 -27 t26.5 -24t31.5 -16.5t40 -12t48 -3.5q53 0 94 22.5t63.5 47t43.5 81t27 82t19 92.5q5 22 7 33l-293 256l-57 -65q45 -53 209 -231q-33 -111 -60 -147q-22 -30 -47 -30q-33 0 -57.5 21.5t-38.5 52.5t-28 62.5t-35 53t-50 21.5q-47 0 -120 -47.5t-130 -97.5zM1602 778 q0 -56 35.5 -95.5t91.5 -39.5q65 0 113 53t48 119q0 57 -35.5 96t-91.5 39q-66 0 -113.5 -52.5t-47.5 -119.5z" />
<glyph unicode="S" horiz-adv-x="3010" d="M205 -49v260v1065q0 121 85 205t206 84h2023q115 0 201 -83.5t86 -199.5v-1358q0 -121 -85 -205t-206 -84h-2023q-132 0 -209.5 91.5t-77.5 224.5zM330 -94q0 -73 48.5 -119.5t121.5 -46.5h567q0 97 8.5 162.5t32.5 124.5t67 93.5t112.5 55.5t168.5 25v235h-541v125h541 v180h-471v125h471v181h-405v124h405v248h-958q-72 0 -120 -49t-48 -121v-798v-545zM1192 -223v-37h614v37q0 91 -15 147.5t-52.5 91t-94.5 47.5t-149 13q-95 0 -151 -12t-91.5 -47t-48 -90.5t-12.5 -149.5zM1581 199q89 -8 152 -33.5t101 -62t60 -95t30 -119.5t9 -149h582 q68 0 117 48t49 116v1329q0 83 -44 134.5t-126 51.5h-930v-248h412v-124h-412v-181h469v-125h-469v-180h553v-125h-553v-237z" />
<glyph unicode="T" horiz-adv-x="3010" d="M205 -49v260v1065q0 120 85.5 204.5t205.5 84.5h2023q115 0 201 -83.5t86 -199.5v-1358q0 -121 -85.5 -206t-205.5 -85h-2023q-132 0 -209.5 92t-77.5 226zM330 -94q0 -73 48.5 -120.5t121.5 -47.5h2015q68 0 117 48.5t49 115.5v1331q0 83 -44 133.5t-126 50.5h-2013 q-72 0 -120 -48t-48 -120v-800v-543zM915 956q0 56 8.5 104t28 92t50 74.5t77.5 49t107 18.5q50 0 101.5 -11.5t112.5 -30.5t99 -27h1q6 0 65 14q63 15 138 30t103 15q142 0 209.5 -86.5t67.5 -232.5q0 -151 -27.5 -262.5t-109.5 -202.5q10 -95 10 -174q0 -208 -72 -412 l-119 41q66 183 66 373q0 69 -16 217q91 91 117 180.5t26 241.5q0 92 -32.5 142t-119.5 50q-54 0 -156 -30.5t-151 -30.5q-50 0 -153 35.5t-158 35.5q-46 0 -77 -17t-45.5 -49.5t-20 -66t-5.5 -78.5q0 -124 39 -209t131 -204q-20 -160 -20 -240q0 -182 76 -344l-115 -53 q-86 179 -86 397q0 83 14 205q-84 110 -124 213.5t-40 232.5z" />
<glyph unicode="U" horiz-adv-x="2603" d="M205 1516v36h1499v-16v-24q0 -83 -0.5 -127.5t-4 -126t-11 -133t-21.5 -124t-35 -126t-53.5 -111.5t-73.5 -105q-46 -52 -104 -92q-19 -13 -96 -52.5t-129.5 -78.5t-59.5 -78q-8 -45 -8 -123q0 -10 -1 -20q-1 -71 3 -157q4 -99 4 -130q0 -41 13.5 -71t40.5 -46.5 t55 -26.5q29 -10 69 -12q34 -2 59 -2h11q30 0 70.5 2.5t58.5 2.5v-125h-227q-113 0 -194 81t-81 195v418q0 60 31 109t81.5 84t104 64t110.5 64.5t89 69.5q47 51 80 119.5t50.5 133t27.5 150.5t12.5 145t3.5 144h-1249q1 -107 6 -183t21.5 -177t53.5 -185t95 -147 q27 -29 72.5 -59.5t89 -52.5t90.5 -52t82 -59.5t57.5 -73t22.5 -94.5v-418q0 -114 -81 -195t-194 -81h-227v125q21 1 78 -1q34 -1 63 -1h35q41 1 78 6q55 7 89 52t34 101v406q0 28 -16 53.5t-47.5 48t-57 37t-65 33.5t-50.5 25q-98 58 -160 131q-41 48 -72.5 106.5 t-51.5 111t-34 126t-21 123.5t-10.5 132.5t-4 124.5t-0.5 126zM1815 801v772h124v-772h-124zM1901 -367v863q107 1 178.5 24.5t114 75t60 124t17.5 179.5v674h127v-774q0 -159 -107 -280t-266 -144v-742h-124zM2044 801v772h125v-772h-125z" />
<glyph unicode="V" horiz-adv-x="2375" d="M205 -262v950q0 111 77 166t191 55v785h1698v-1956q0 -96 -69 -158.5t-165 -62.5h-1509q-91 0 -157 65t-66 156zM330 -231q0 -37 10 -62t23 -37.5t39.5 -19t44 -7.5t51.5 -1h8h1388q32 0 50.5 1.5t40.5 9t33.5 21.5t19.5 39.5t8 63.5v1181h-455q-24 0 -24 -16v-158h-62 h-702h-322q-27 0 -43 -1t-39.5 -8t-36.5 -19.5t-22.5 -37.5t-9.5 -61v-888zM598 909h844q0 29 3.5 52t7 40.5t14.5 30.5t18.5 22t25.5 14.5t28.5 8.5t36 4.5t38.5 1.5h45h387v486h-1448v-660zM842 1133v88h973v-88h-973zM842 1321v88h973v-88h-973z" />
<glyph unicode="W" horiz-adv-x="2347" d="M205 346v504h717v725h503v-725h717v-504h-717v-708h-503v708h-717z" />
<glyph unicode="X" horiz-adv-x="2684" d="M205 -117v1035q0 67 28 131q22 46 53.5 80.5t64.5 56t78.5 35.5t84 20t90.5 8q30 1 56 1h35q38 -2 92.5 -3.5t86.5 -1.5q23 175 156.5 291.5t310.5 116.5t309.5 -116.5t157.5 -291.5q33 0 90 3q58 2 98 2q10 0 21 1q33 1 73 -1q54 -2 96 -11.5t86 -25.5t81 -45t66 -70 q59 -83 59 -187l2 -519v-227q0 -292 -2 -292q-3 -140 -106.5 -234t-245.5 -94h-1573q-144 0 -246 97t-102 241zM330 -55q0 -134 53 -204.5t184 -70.5h1559q90 0 158.5 58.5t68.5 146.5v608h-541v-131h-124v131h-693v-127h-125v127h-540v-538zM330 569h540v136h125v-136h693 v131h124v-131h541v338q0 92 -65.5 152.5t-159.5 60.5h-1573q-92 0 -158.5 -59.5t-66.5 -149.5v-342zM1001 1245h680q-23 123 -119 203t-221 80q-124 0 -220.5 -80.5t-119.5 -202.5z" />
<glyph unicode="Y" horiz-adv-x="2324" d="M205 -76v1385q0 105 77 183.5t183 78.5h1390q110 0 187.5 -78t77.5 -188v-1383q0 -106 -76.5 -185t-183.5 -79h-1391q-111 0 -187.5 78t-76.5 188zM330 -76q0 -57 39 -99t96 -42h1386q58 0 100 39.5t42 97.5v1385q0 60 -41 100.5t-101 40.5h-1384q-59 0 -98 -41.5 t-39 -99.5v-1381zM451 973v125h458l-2 -293l334 -2v-293h348v-274h285v-127h-410v276h-348v293h-334v295h-331z" />
<glyph unicode="Z" horiz-adv-x="2324" d="M205 -76v1385q0 105 77 183.5t183 78.5h1390q110 0 187.5 -78t77.5 -188v-1383q0 -106 -76.5 -185t-183.5 -79h-1391q-111 0 -187.5 78t-76.5 188zM330 -76q0 -57 39 -99t96 -42h1386q58 0 100 39.5t42 97.5v1385q0 60 -41 100.5t-101 40.5h-1384q-59 0 -98 -41.5 t-39 -99.5v-1381zM432 696l371 371l373 -371l-91 -90l-225 228v-566h-115v566l-225 -228zM1149 535l88 88l225 -226v566h115v-566l227 226l88 -88l-372 -373z" />
<glyph unicode="[" horiz-adv-x="759" d="M164 -256v1626h350v-110h-225v-1403h225v-113h-350z" />
<glyph unicode="\" horiz-adv-x="962" d="M102 1356h121l596 -1594h-121z" />
<glyph unicode="]" horiz-adv-x="759" d="M246 -143h225v1403h-225v110h350v-1626h-350v113z" />
<glyph unicode="^" horiz-adv-x="864" d="M102 741l248 467h164l248 -467h-141l-189 349l-188 -349h-142z" />
<glyph unicode="_" horiz-adv-x="1306" d="M184 -43v94h938v-94h-938z" />
<glyph unicode="`" horiz-adv-x="776" d="M143 1300h164q10 -16 33.5 -53.5t36.5 -59t31.5 -53t33.5 -60t27 -56.5h-107q-81 99 -219 282z" />
<glyph unicode="a" horiz-adv-x="1310" d="M205 139q0 580 428 1211q98 -130 180.5 -271.5t150.5 -298.5t106 -323q34 -150 34 -289v-29h-68q-26 457 -399 1012q-338 -563 -363 -1012h-69zM465 1581q0 85 44.5 158t123.5 73q54 0 93.5 -38.5t56 -89.5t16.5 -103t-16.5 -103t-56 -89.5t-93.5 -38.5q-80 0 -124 73.5 t-44 157.5zM504 348h315v-1147h-100v1047h-117v-1047h-98v1147zM565 1581q0 -96 60 -129l6 -2h8q30 8 44.5 50t14.5 81t-15 81t-46 50h-12q-60 -34 -60 -131z" />
<glyph unicode="b" horiz-adv-x="1329" d="M205 131q0 589 426 1219h-3q-52 0 -90 38q-40 39 -56.5 90.5t-16.5 102.5q0 53 17 103.5t57.5 89t95.5 38.5q54 0 93.5 -38.5t56 -89.5t16.5 -103t-16.5 -102.5t-56 -89t-93.5 -39.5q100 -131 185 -273.5t156 -301.5q70 -159 110 -327q36 -153 36 -293v-28h-67 q-25 454 -416 1028q-350 -586 -365 -1024h-69zM303 -223q3 214 36 397t110 356l51 -18q-85 -290 -101 -643h203v-668h-94v574zM565 1581q0 -98 60 -131l8 -2l6 2q30 8 45.5 50t15.5 81q0 38 -15.5 80.5t-45.5 50.5h-14q-60 -36 -60 -131zM727 -131h203q-13 340 -101 643 l52 18q135 -310 145 -753l-205 -2v-574h-94v668z" />
<glyph unicode="c" horiz-adv-x="1318" d="M205 131q3 593 428 1221q69 -95 124.5 -177t125.5 -201t117.5 -222.5t80.5 -220.5t33 -214q0 -107 -45.5 -195.5t-136.5 -129.5l-31 61q63 34 95 99t32 141q0 293 -391 860q-159 -267 -257.5 -522t-105.5 -500h-69zM328 -223q10 439 145 753l53 -18q-89 -293 -102 -641 l319 -2l-2 -668h-94l2 574zM467 1585q0 85 44.5 158.5t123.5 73.5q55 0 95 -39.5t56.5 -91t16.5 -103.5t-17 -103t-57 -89.5t-94 -38.5q-55 0 -95 39t-56.5 90t-16.5 104zM567 1583q0 -96 60 -129l8 -2h6q30 8 45.5 50.5t15.5 80.5q0 40 -15.5 82.5t-45.5 50.5l-14 -2 q-60 -33 -60 -131z" />
<glyph unicode="d" horiz-adv-x="1921" d="M205 -305q0 121 58.5 229.5t156.5 175.5v650h100v-596q43 16 82 24q-3 38 -3 75q0 250 144 505q-77 66 -77 196q0 53 17 104t57.5 89.5t95.5 38.5q54 0 93 -39t55.5 -90t16.5 -103q0 -81 -36 -145.5t-109 -83.5q-143 -238 -143 -475q0 -24 4 -64q137 0 258 -86t176 -215 h295l270 -637l-92 -39l-244 576h-198q8 -41 8 -90q0 -134 -66.5 -247.5t-180 -180t-247.5 -66.5q-133 0 -246 66.5t-179 180t-66 247.5zM305 -307q0 -159 114 -275t273 -116q165 0 281.5 114t116.5 279q0 150 -103.5 264.5t-251.5 124.5q54 -207 160 -324l-45 -51 q-81 59 -143.5 161.5t-88.5 207.5q-136 -28 -224.5 -136.5t-88.5 -248.5zM766 954q0 -98 59 -131l9 -2l6 2q30 8 45.5 50t15.5 81q0 38 -15.5 80.5t-45.5 50.5h-15q-59 -35 -59 -131z" />
<glyph unicode="e" horiz-adv-x="1329" d="M205 137q0 608 428 1213h-9q-47 0 -84 36q-40 40 -57.5 93t-17.5 102q0 88 41 154l-90 204h442l-92 -217q35 -55 35 -141q0 -84 -44 -157.5t-124 -73.5q227 -278 361 -588q131 -301 130 -607v-18h-69q-3 171 -65.5 362t-149.5 348t-201 312q-357 -569 -365 -1022h-69z M303 -221q10 440 146 753l53 -20q-86 -284 -103 -641h203v-668h-94l2 574zM565 1581q0 -95 60 -131h8h6q30 8 45.5 50.5t15.5 80.5t-15 80.5t-44 50.5h-16q-60 -36 -60 -131zM727 -129h227q-7 150 -38 298.5t-87 342.5l54 18q89 -208 126.5 -371t41.5 -382h-230l2 -574h-96 v668z" />
<glyph unicode="f" horiz-adv-x="1247" d="M205 283q0 532 250 979q3 -4 26.5 -34t37.5 -46t38 -32.5t45 -16.5q22 0 40 7t33.5 23.5t24.5 28.5t24 36.5t21 33.5q142 -229 219.5 -484t77.5 -516q0 -20 -1 -60t-1 -61h-69v7q0 233 -61 468q-62 238 -177 447q-48 -32 -84 -39v-240q41 -24 41 -73q0 -37 -25.5 -62.5 t-60.5 -25.5q-37 0 -62.5 25.5t-25.5 62.5q0 53 45 75v238q-37 9 -84 41q-96 -204 -149 -450q-52 -237 -52 -458v-16h-67q-4 94 -4 142zM272 -217q62 442 125 749l58 -8q-26 -312 -74 -649h174l-2 -668h-94l2 576h-189zM434 1587q0 53 17 104t57.5 89.5t95.5 38.5 q54 0 94 -39t57 -90t17 -103q0 -85 -44.5 -159t-123.5 -74q-80 0 -125 74.5t-45 158.5zM535 1587q0 -99 61 -131l6 -2l8 2q30 8 46 50t16 81q0 38 -16.5 80.5t-47.5 50.5h-12q-61 -35 -61 -131zM678 -125h186q-56 350 -84 649l56 8q76 -344 139 -749h-201v-576h-94z" />
<glyph unicode="g" horiz-adv-x="1159" d="M205 -254q0 365 344 784q-69 3 -108.5 70t-39.5 143q0 78 41.5 144.5t114.5 66.5t113.5 -67.5t40.5 -145.5q0 -45 -16 -92.5t-52 -84.5q-34 -34 -79 -34h-5q76 -81 142.5 -168.5t127 -190.5t94.5 -215q31 -102 31 -196v-16h-67q-8 82 -38.5 166.5t-81 166.5t-97.5 145 t-111 140q-120 -164 -197 -315.5t-88 -300.5h-69zM315 -504q3 134 22 218t71 237l96 -33q-76 -206 -86 -321h112l-2 -396h-100l2 295h-115zM502 741q0 -84 49 -110h4h6q25 7 37 42.5t12 67.5q0 33 -12 69.5t-37 43.5l-10 -2q-49 -26 -49 -111zM633 -403h110q-5 50 -18 101 t-37 124.5t-31 97.5l97 27q12 -45 32.5 -115t31 -108.5t19.5 -100t9 -127.5h-113v-295h-100v396z" />
<glyph unicode="h" horiz-adv-x="1064" d="M205 -260v11q0 351 307 769q-49 0 -85 36t-51.5 83t-15.5 94q0 78 41.5 144.5t114.5 66.5q49 0 85.5 -35.5t52.5 -82.5t16 -95q0 -77 -42 -145q-41 -67 -112 -66h-2q71 -87 129.5 -175.5t110.5 -190.5t80 -212q26 -102 26 -198v-14h-69q-18 156 -87.5 297t-185.5 307 q-104 -163 -166 -304t-78 -292zM387 -176h297v-623h-100v523h-97v-523h-100v623zM461 731q0 -85 49 -110h4h4q25 7 38 42.5t13 67.5t-13 69t-38 44l-8 -2q-49 -25 -49 -111z" />
<glyph unicode="i" horiz-adv-x="2134" d="M205 143q0 307 116 615.5t312 595.5q453 -579 489 -1133l529 301q278 -421 278 -772v-12h-67q-17 254 -250 635q-174 -96 -488 -230h-69q-23 452 -416 1016q-342 -566 -365 -1016h-69zM303 -221q10 440 146 753l53 -18q-86 -284 -103 -643h203v-668h-94v576h-205z M412 1954h446l-92 -219q33 -56 33 -142q0 -84 -44 -157.5t-124 -73.5q-54 0 -94 38.5t-57 89.5t-17 103q0 81 37 148zM563 1593q0 -95 62 -131h6h6q30 8 45.5 50.5t15.5 80.5q0 39 -14.5 81t-44.5 50h-16q-60 -36 -60 -131zM727 -129h203q-13 354 -101 643l54 18 q135 -308 145 -753h-207v-576h-94v668zM1479 -172h297v-621h-99v521h-98v-521h-100v621zM1495 737q0 74 42 141.5t112 67.5q75 0 116 -66t41 -147q0 -75 -41.5 -143t-111.5 -68q-76 0 -117 67.5t-41 147.5zM1595 735q0 -84 50 -110l4 -2l6 2q25 5 38 41.5t13 68.5t-12.5 68 t-38.5 43h-8q-52 -27 -52 -111z" />
<glyph unicode="j" horiz-adv-x="1386" d="M205 147q0 301 113.5 608t304.5 586q226 -178 359.5 -383.5t199.5 -480.5l-672 4l2 70l223 10l-117 563q-324 -537 -344 -977h-69zM457 1575q0 85 44.5 158t123.5 73q54 0 94 -38.5t57 -89.5t17 -103q0 -85 -44.5 -159.5t-123.5 -74.5q-55 0 -95 39t-56.5 90.5 t-16.5 104.5zM506 348h317v-1147h-100v1047h-117v-1047h-100v1147zM557 1573q0 -96 59 -129l7 -2l8 2q30 8 45.5 50t15.5 81q0 38 -15.5 80.5t-45.5 50.5l-15 -2q-59 -31 -59 -131zM709 1116l116 -553l230 8q-45 140 -139 284t-207 261z" />
<glyph unicode="k" horiz-adv-x="2275" d="M205 135q1 307 116.5 617.5t307.5 595.5q-52 2 -90 42t-54 90.5t-16 100.5q0 86 43 156l-78 202h412l-80 -208q39 -65 39 -152q0 -51 -17 -102t-57 -90t-94 -39q204 -263 335 -552.5t150 -580.5l500 301h-2q-70 0 -110 67q-42 68 -42 144q0 79 41.5 146t114.5 67 q49 0 85.5 -35.5t52.5 -83t16 -94.5t-15.5 -93t-51 -81t-83.5 -37q186 -83 289 -219.5t154 -345.5l-646 -2v69q129 12 261 21l-84 342q-346 -182 -478 -246h-69q-25 458 -416 1022q-342 -576 -365 -1022h-69zM303 -221q10 440 146 753l53 -18q-90 -296 -103 -641l205 -2 l-2 -668h-94v574zM569 1579q0 -96 60 -129l6 -2h8q30 8 46 50.5t16 80.5t-15.5 80.5t-44.5 50.5h-16q-27 0 -43.5 -49t-16.5 -82zM727 -129l203 2q-13 338 -101 641l54 18q135 -310 145 -753l-207 -2l2 -574h-96v668zM1485 -174h297v-623h-101v523h-96v-523h-100v623z M1569 727q0 -86 49 -111h4h6q25 7 37 42.5t12 68.5q0 34 -12.5 70t-38.5 43l-8 -2q-49 -25 -49 -111zM1700 346l74 -301l153 8q-71 178 -227 293z" />
<glyph unicode="l" horiz-adv-x="1259" d="M205 725q0 74 19 140.5t46 114t74 100t86 87.5t99 88.5t98 90.5q-54 0 -93.5 38.5t-56 89.5t-16.5 103q0 103 51 168l-80 192h399l-81 -198q47 -67 47 -162q0 -83 -43 -155.5t-121 -75.5q44 -51 115 -119.5t117.5 -117t94 -113.5t71.5 -143.5t24 -172.5q0 -131 -56 -287 l-65 23q35 129 35 227q0 67 -14.5 125.5t-35.5 99.5t-58.5 87t-68.5 75t-82.5 77t-84.5 81l-36 -30q-61 -51 -91.5 -77.5t-76.5 -76t-68.5 -90t-40 -98.5t-17.5 -122q0 -135 57 -278l-63 -29q-84 182 -84 338zM283 -225q7 441 145 757l53 -18q-85 -279 -102 -645h203v-664 h-95v570h-204zM328 664q4 4 28 24t40.5 33.5t39.5 26t39 12.5h37q26 -53 39 -70q17 -25 33 -33q18 -9 39 2q16 23 16 76l-152 103l50 71l192 -129q0 -35 -1.5 -59t-9 -56.5t-20.5 -52t-38.5 -33.5t-61.5 -14q-68 0 -133 94l-84 -65zM561 1577q0 -95 60 -131h6h8 q30 8 45.5 50.5t15.5 80.5t-15.5 80.5t-45.5 50.5h-14q-60 -34 -60 -131zM680 883q0 40 29 69t69 29q31 0 52.5 -21.5t21.5 -52.5q0 -38 -30 -68t-68 -30q-31 0 -52.5 21.5t-21.5 52.5zM707 -131h202q-13 345 -100 641l53 18q137 -320 144 -753h-205v-574h-94v668z" />
<glyph unicode="m" horiz-adv-x="1773" d="M205 494v614q0 86 64 144.5t151 58.5h932q91 0 154 -58t63 -149v-617q-1 -86 -64 -143t-151 -57h-324v-1084h-100v1047h-117v-1047h-100v1084h-283q-92 0 -158.5 56t-66.5 151zM293 530q0 -82 32 -118.5t113 -36.5h213q0 114 44 168t157 61v98h-268v89h268v69h-231v88 h231v70h-199v88h199v117h-432q-51 0 -89 -33t-38 -84v-576zM713 1593q0 53 17 104t57.5 89.5t95.5 38.5q54 0 93.5 -39.5t56 -91t16.5 -103.5q0 -85 -44.5 -158t-123.5 -73q-55 0 -95 39.5t-56.5 90.5t-16.5 103zM737 375h297q-3 86 -32.5 113.5t-116.5 27.5 q-91 0 -118.5 -26.5t-29.5 -114.5zM813 1591q0 -96 59 -129l9 -2h6q30 8 45.5 50.5t15.5 80.5q0 35 -16.5 84t-44.5 49l-15 -2q-59 -33 -59 -131zM938 602q101 -11 141.5 -67t40.5 -160h234q52 0 90.5 31.5t38.5 82.5v613q0 55 -38 88t-93 33h-414v-117h203v-88h-203v-70 h231v-88h-231v-69h276v-89h-276v-100z" />
<glyph unicode="n" horiz-adv-x="3205" d="M205 -264h596v538h256q152 -136 270.5 -304t192 -370.5t73.5 -398.5h-100v24q-1 115 -35 242q-38 140 -106 267t-154.5 241t-181.5 201h-113v-541h-698v101zM348 217q17 125 72.5 235t135 192t183.5 148.5t214 111t231 73.5q-40 22 -60 66t-20 94q0 95 61.5 184.5 t151.5 89.5q69 0 105 -55.5t36 -128.5q0 -56 -26 -117t-76 -105t-107 -44q-35 0 -63 14q35 -98 83 -179t114 -148.5t156 -105.5t194 -38q122 0 237 45l25 -64q-140 -67 -297 -67q-193 0 -347.5 119t-236.5 305q-97 -29 -185.5 -68t-175 -96.5t-153.5 -125t-116.5 -156.5 t-67.5 -189zM1204 1139q0 -43 25 -74q8 -4 12 -4h6q43 1 76 59q35 62 35 113q0 67 -39 78q-51 -8 -83 -62t-32 -110zM1792 -139h958l-512 512l3 4h172l587 -588l-585 -588h-174l-3 2l533 533h-979v125z" />
<glyph unicode="o" horiz-adv-x="3203" d="M205 -698h1579q-18 230 -152.5 470t-320.5 412h-113v-540h-698v100h596v539h256q215 -193 362.5 -454t169.5 -527h330v921h100v-1022h-2109v101zM643 225q17 125 72.5 234.5t135 192t184 149t214.5 111t232 73.5q35 -99 83.5 -180.5t115 -149t156 -105.5t194.5 -38 q119 0 237 45l23 -63q-147 -70 -295 -70q-193 0 -348 120t-236 306q-97 -30 -185.5 -69t-176 -96t-154.5 -124.5t-116.5 -156.5t-67.5 -189zM1405 1159q0 94 61.5 184.5t151.5 90.5q69 0 105 -55.5t36 -127.5q0 -90 -62.5 -179t-148.5 -89q-68 0 -105.5 52t-37.5 124z M1505 1161q0 -43 25 -74q8 -4 12 -4h5q43 1 77 59q36 62 35 111q0 69 -39 80q-35 -6 -62 -35t-40 -65.5t-13 -71.5zM1880 965v391q0 100 71 170.5t171 70.5h637q103 0 171 -72t68 -175v-387q1 -99 -69.5 -169.5t-169.5 -70.5h-639q-100 0 -170 71t-70 171zM1968 1026h189 l88 393l127 -332l69 132l68 -129l88 237l133 -301h182v330q0 62 -44 107.5t-105 45.5h-645q-63 0 -106.5 -46t-43.5 -109v-328zM1970 938q9 -56 52.5 -91.5t101.5 -35.5h626q62 0 106 31.5t54 95.5h-237l-68 156l-80 -220l-84 158l-84 -155l-90 239l-39 -178h-258z" />
<glyph unicode="p" horiz-adv-x="2844" d="M205 1405q0 85 44.5 158t123.5 73q54 0 94 -39t57 -90t17 -102q0 -70 -30 -134.5t-89 -88.5q55 -369 219 -738h1499l-383 330l66 76l418 -361q82 114 129.5 306.5t64.5 382.5q-64 20 -96.5 86t-32.5 141q0 86 44 158.5t124 72.5q54 0 93.5 -39t56 -90t16.5 -102 q0 -66 -26.5 -127t-78.5 -90v-846v-50q0 -43 1 -86v-8q0 -39 -5 -78q-5 -42 -13 -81.5t-26.5 -74.5t-44.5 -62t-67 -45.5t-94 -24.5q-33 -5 -70 -6h-26q-28 0 -62 1q-53 1 -70 1v-627h-100v725q22 0 64 -1.5t76 -2.5q14 -1 30 -1q22 0 48 1q44 2 78.5 8t70.5 20t59 35.5 t38 56.5t15 81v547q-33 -101 -75 -175t-111 -147v2v-6h-770l-2 -1042h288v-101h-680v101h293v1042h-802q-99 212 -156 406v-609q0 -50 13.5 -88.5t34 -62t54 -39.5t65 -22.5t75.5 -8.5q32 -2 58 -2h20q33 1 79.5 2.5t73.5 1.5l6 -719l-100 -2l-6 623q-16 0 -66 -1 q-33 -1 -60 -1h-25q-34 1 -66 6q-110 13 -183 97.5t-73 195.5v1059q8 0 -9 9q-24 13 -26 15q-29 23 -49 62q-33 62 -33 139zM305 1403q0 -96 60 -129l6 -2l8 2q30 8 45.5 50t15.5 81q0 38 -15.5 80.5t-45.5 50.5l-14 -2q-60 -33 -60 -131zM2404 1403q0 -96 62 -129l6 -2l6 2 q30 8 46 50t16 81q0 38 -16 80.5t-46 50.5l-14 -2q-60 -33 -60 -131z" />
<glyph unicode="q" horiz-adv-x="2775" d="M205 -631v36q0 127 6 238q7 127 30.5 282t63 283t110 255.5t165.5 222.5q39 -278 158 -522t317 -410l-66 -76q-169 141 -288.5 345t-180.5 434q-81 -133 -131 -331t-66.5 -370.5t-17.5 -359.5h440q68 136 178.5 199.5t270.5 74.5q31 61 90 98t127 37q70 0 127 -38 t88 -103q319 -32 408 -268h436q-4 679 -205 1042q-20 -120 -57.5 -230.5t-95 -216.5t-144.5 -190t-194 -131l-41 92q63 27 117.5 68t96 92.5t75.5 108.5t58.5 124t43 131t31.5 136.5t20.5 134t13.5 129.5q94 -94 125 -141q74 -108 127.5 -259t80 -314.5t38.5 -311.5 q10 -135 10 -270v-23v-72h-610q-36 126 -106 185.5t-203 81.5v-9q0 -100 -67 -175q-71 -78 -177 -78q-102 0 -173 76q-69 73 -69 170v8l2 14q-141 -15 -219.5 -76t-138.5 -194h-604v71zM399 940q0 -56 18 -112t61 -99t102 -43t102 42.5t61.5 98.5t18.5 113q0 40 -11 82.5 t-32 81.5t-56.5 63.5t-80.5 24.5q-59 0 -102.5 -42.5t-62 -98t-18.5 -111.5zM500 938q0 48 16.5 92t52.5 60l19 2q17 1 32 -17.5t23.5 -44.5t13.5 -50.5t5 -39.5q0 -117 -74 -152l-8 -2q-26 0 -45.5 30.5t-27 63.5t-7.5 58zM584 1567v198h100v-184q0 -20 4 -20h1421q3 0 4 5 t1 10v5v184h100v-198q0 -58 -33 -82.5t-100 -24.5h-424q-30 -86 -99 -137t-159 -51t-159 51t-99 137h-424q-133 0 -133 107zM1249 1460q23 -40 64 -64t86 -24q46 0 86.5 24t62.5 64h-299zM1266 -449q0 -60 41.5 -105.5t101.5 -45.5t101.5 45.5t41.5 105.5q0 63 -40.5 108.5 t-102.5 45.5q-60 0 -101.5 -46.5t-41.5 -107.5zM2007 940q0 -59 18.5 -114.5t62 -97.5t103.5 -42q57 0 99.5 43t61 99t18.5 110q0 57 -18.5 113t-61.5 98.5t-103 42.5q-59 0 -101.5 -42.5t-60.5 -98t-18 -111.5zM2107 940q0 26 7.5 59t27 63t45.5 30q27 0 47 -30.5t27.5 -64 t7.5 -59.5t-7.5 -59t-27.5 -63t-47 -30q-26 0 -45.5 30t-27 63.5t-7.5 60.5z" />
<glyph unicode="r" horiz-adv-x="3182" d="M205 -483q0 54 38.5 93.5t89.5 56t103 16.5q75 0 141.5 -32.5t86.5 -96.5q277 125 585 178q-86 162 -86 393q0 384 199 666q4 -5 20.5 -26t27.5 -33.5t27.5 -29t33 -24.5t32.5 -8q14 0 26 2t23 9t18 11.5t17 17t13.5 17t14.5 21.5t13 20q61 -35 182 -93t177 -89 q414 -230 634 -557l160 6l4 -101l-604 -26l-412 -354v-125h1209v-101h-1309v271l473 407l393 19q-48 59 -99 111t-97 92t-103.5 80.5t-102.5 68t-111.5 63t-112 58t-122 60.5t-126.5 63q-44 -47 -111 -60h2v-289q43 -25 43 -75q0 -36 -26 -62t-62 -26q-35 0 -61.5 26.5 t-26.5 61.5q0 51 47 77v287q-47 11 -90 45q-59 -113 -91 -255.5t-32 -274.5q0 -192 70 -332q211 29 395 29v-70q-391 -25 -831 -178q367 -214 831 -254v-70h-7q-277 -1 -543 83q-270 84 -500 245q1 -7 1 -13q1 -50 -33 -88q-38 -42 -91 -60.5t-109 -18.5q-85 0 -158 44.5 t-73 123.5zM305 -479v-13q34 -59 131 -59q100 0 131 59l2 7q0 22 -26 39t-55 23.5t-52 6.5q-39 0 -81 -16t-50 -47zM1337 1092q0 53 17 103.5t57.5 89t95.5 38.5q54 0 93.5 -38.5t56 -89.5t16.5 -103q0 -53 -16.5 -104t-56.5 -89.5t-95 -38.5q-54 0 -94 39t-57 90t-17 103z M1438 1092q0 -99 61 -131h6h6q30 8 46 50t16 81q0 38 -16 80.5t-46 50.5h-14q-59 -35 -59 -131z" />
<glyph unicode="s" horiz-adv-x="2873" d="M205 -49v1192h100v-756h539v576h88v-576h110v1065q-37 0 -65.5 5t-55.5 18.5t-42 40.5t-15 67v232q0 24 5 43t16 32.5t21.5 23.5t30 15.5t32.5 9t37 4.5t36.5 2t37.5 0t34 -1q41 0 70 -4t60 -16.5t47 -40.5t16 -71q0 -25 1 -72t1 -85t-2 -72q-1 -41 -15.5 -68t-41 -40 t-54.5 -18t-66 -5v-498h1137q82 0 151 -18.5t125 -56.5t88.5 -103t34.5 -151q2 -99 2 -211.5t-1 -250t-1 -212.5h-100v336h-2261v-336h-100zM350 610q0 51 37 88.5t85.5 53.5t98.5 16q82 0 151 -42t69 -118q0 -52 -37 -90t-85.5 -53.5t-97.5 -15.5q-82 0 -151.5 42.5 t-69.5 118.5zM451 614l2 -12q30 -53 118 -53q89 0 119 53v6v6q-7 26 -46 40t-73 14t-73 -14t-47 -40zM952 1698h267v114q0 22 -15 32.5t-37 10.5h-174q-17 0 -29 -13t-12 -30v-114zM1149 387h1417v236q0 109 -76.5 170t-185.5 61h-1155v-467z" />
<glyph unicode="t" horiz-adv-x="2873" d="M205 -49v1192h100v-756h539v574h88v-574h117v567h1275q142 0 240.5 -94.5t101.5 -234.5q2 -100 2 -212.5t-1 -250t-1 -211.5h-100v336h-2261v-336h-100zM350 604q0 53 36 92t85 55.5t100 16.5q49 0 97.5 -16t85.5 -53.5t37 -88.5q0 -53 -36.5 -91t-84.5 -54t-99 -16 q-49 0 -97.5 16t-86 52.5t-37.5 86.5zM451 612l2 -10q30 -53 118 -53q89 0 119 53v6v4q-7 27 -45.5 41.5t-73.5 14.5q-34 0 -73 -14.5t-47 -41.5zM467 1323v393q0 100 71 170t171 70h639q100 0 170.5 -71t70.5 -171v-393q0 -100 -70.5 -170t-170.5 -70h-641q-100 0 -170 71 t-70 171zM555 1384h188l88 396l127 -334l70 131l70 -129l86 240l135 -304h182v332q0 61 -44 107.5t-105 46.5h-647q-62 0 -106 -46t-44 -110v-330zM557 1296q9 -57 53 -93t101 -36h626q60 0 107 39t55 90h-237l-70 156l-80 -219l-84 158l-84 -156l-90 240l-39 -179h-258z M1149 393h709h708v230q0 109 -76.5 170t-185.5 61h-1155v-461z" />
<glyph unicode="u" horiz-adv-x="2873" d="M205 -49v1192h100v-756h539v576h88v-576h117v567h1275q142 0 240.5 -94.5t101.5 -234.5q2 -99 2 -212t-1 -250.5t-1 -211.5h-100v336h-2261v-336h-100zM350 604q0 79 69 121.5t152 42.5q48 0 97 -16t86 -53t37 -87q0 -54 -36.5 -92.5t-84.5 -54.5t-99 -16q-49 0 -97.5 16 t-86 52.5t-37.5 86.5zM451 612l2 -10q30 -53 118 -53q89 0 119 53v6v6q-7 26 -46 40t-73 14t-73 -14.5t-47 -41.5zM1149 393h1417v230q0 96 -70 163.5t-167 67.5h-183h-997v-461z" />
<glyph unicode="v" horiz-adv-x="2873" d="M205 -49v1192h100v-756h199v574h100v-574h111v567h1581q157 0 262 -87.5t108 -241.5q2 -100 2 -212.5t-1 -250t-1 -211.5h-100v336h-2261v-336h-100zM815 393h1751v230q0 63 -24.5 109.5t-67.5 72t-93 37.5t-110 12h-1456v-461z" />
<glyph unicode="w" horiz-adv-x="2648" d="M205 137q3 585 428 1209q98 -130 180.5 -271t150.5 -297t106 -322q34 -150 34 -290v-29h-68q-30 462 -399 1010q-340 -559 -363 -1010h-69zM465 1579q0 85 44.5 158t123.5 73q54 0 93.5 -38.5t56 -89.5t16.5 -103t-16.5 -103t-56 -89.5t-93.5 -38.5q-80 0 -124 73.5 t-44 157.5zM494 350h317v-1147h-100v1047h-117v-1047h-100v1147zM565 1579q0 -95 60 -131h6h8q30 8 44.5 50t14.5 81t-15 81t-46 50h-12q-60 -34 -60 -131zM1253 -799v2786h125v-2786h-125zM1524 143q0 306 115.5 614.5t310.5 594.5q-54 0 -93.5 39t-56 90t-16.5 102 q0 53 17 104t57.5 89.5t95.5 38.5q54 0 93.5 -39t56 -90t16.5 -103t-16.5 -102.5t-56 -89t-93.5 -39.5q100 -131 185 -273.5t156 -301.5t111 -327q36 -153 35 -293v-28h-67q-25 460 -416 1028q-342 -564 -365 -1014h-69zM1622 -225q7 441 145 757l52 -18q-88 -299 -101 -645 h203v-664h-94v570h-205zM1884 1583q0 -98 60 -131h8h6q30 8 45.5 50t15.5 81q0 38 -15.5 80.5t-45.5 50.5h-14q-60 -36 -60 -131zM2046 -131h203q-16 357 -103 641l54 20q135 -311 145 -755h-205v-574h-94v668z" />
<glyph unicode="x" horiz-adv-x="2234" d="M205 -264q0 364 307 780q-71 0 -111.5 68.5t-40.5 144.5q0 78 41.5 144.5t114.5 66.5q49 0 85.5 -35t52.5 -82t16 -94q0 -78 -41.5 -145.5t-114.5 -67.5q96 -117 169.5 -235.5t126.5 -268.5q50 -142 50 -270v-14h-69q-18 155 -87.5 295.5t-185.5 306.5 q-105 -166 -167.5 -306.5t-76.5 -287.5h-69zM387 -176h297v-623h-100v523h-97v-523h-100v623zM461 729q0 -86 49 -111l4 -2h4q25 7 38 44t13 69q0 31 -13 67.5t-38 43.5h-8q-49 -29 -49 -111zM1008 -799v1856h125v-1856h-125zM1280 -270q0 365 344 784q-70 3 -108.5 69.5 t-38.5 141.5q0 78 41 144.5t114 66.5q49 0 85.5 -35t52.5 -82t16 -94q0 -46 -16 -93q-16 -48 -52 -84q-35 -35 -81 -34h-5q77 -82 143.5 -169t128.5 -191q61 -102 95 -214q31 -102 31 -197v-17h-70q-8 83 -38.5 167.5t-80.5 166.5t-96 144.5t-111 141.5 q-119 -163 -196.5 -314.5t-89.5 -301.5h-68zM1389 -502q3 134 22 218.5t72 234.5l94 -33q-26 -71 -39 -108.5t-27 -98t-18 -114.5h111v-394h-101v293zM1577 725q0 -86 49 -111h4h4q25 7 38.5 43t13.5 68t-13.5 69t-38.5 42h-8q-49 -25 -49 -111zM1706 -403h111 q-5 51 -17 100.5t-37 127t-30 95.5l96 29q12 -46 32.5 -116t30.5 -109t19 -100t10 -126l-115 -2l2 -293h-100z" />
<glyph unicode="y" horiz-adv-x="3274" d="M205 137v5q0 300 116 606q117 310 312 595q98 -130 180.5 -270.5t151 -297t105.5 -322.5q34 -150 34 -289v-29h-68q-29 460 -399 1012q-338 -562 -363 -1010h-69zM465 1577q0 86 44 158.5t124 72.5q54 0 93.5 -38.5t56 -89.5t16.5 -103q0 -84 -44 -157.5t-124 -73.5 q-54 0 -93.5 38.5t-56 89.5t-16.5 103zM494 348h317v-1145h-100v1045h-117v-1045h-100v1145zM565 1577q0 -97 60 -131h6h6q31 8 46 49.5t15 81.5q0 38 -15.5 80.5t-45.5 50.5l-12 -2q-60 -32 -60 -129zM1219 279q0 527 249 976q3 -3 21 -27t28.5 -36.5t28.5 -30.5t35 -26.5 t33 -8.5q22 0 40 7t34 24t24.5 27t24.5 36.5t20 32.5q297 -477 297 -995q0 -20 -1 -60t-1 -61h-70q0 488 -237 920q-43 -31 -84 -39v-240q43 -25 43 -73q0 -37 -26 -63t-62 -26t-62 26t-26 63q0 52 47 75v238q-48 12 -84 41q-96 -203 -148.5 -440.5t-52.5 -464.5v-17h-67 q-4 94 -4 142zM1286 -221q59 427 125 749l55 -8q-23 -316 -71 -647h172v-668h-94v574h-187zM1448 1579q0 53 17 103.5t57.5 89t95.5 38.5q54 0 93.5 -38.5t56 -89.5t16.5 -103q0 -85 -44.5 -158t-123.5 -73q-54 0 -94 38.5t-57 89.5t-17 103zM1548 1579q0 -98 60 -131h8h6 q30 8 45.5 50t15.5 81q0 38 -15.5 80.5t-45.5 50.5h-14q-60 -36 -60 -131zM1692 -127h184q-50 323 -84 645l55 10q68 -307 140 -749h-201l2 -574h-96v668zM2152 137v5q0 304 115 612q116 310 311 596q-54 0 -93 39t-55.5 90t-16.5 102q0 82 43.5 156.5t119.5 74.5 q82 0 127 -72.5t45 -158.5q0 -52 -16.5 -102.5t-55.5 -89t-93 -39.5q97 -128 182 -269.5t157 -300t112 -326.5q36 -153 36 -290v-27h-68q-53 488 -415 1018q-345 -570 -365 -1018h-70zM2251 -221q7 435 145 751l51 -18q-87 -296 -100 -639h203q-1 -99 -1 -211t0.5 -248.5 t0.5 -210.5h-94v574zM2513 1581q0 -98 59 -131h8h7q30 8 45.5 50t15.5 81q0 38 -15.5 80.5t-45.5 50.5h-15q-59 -35 -59 -131zM2673 -133l204 2q-17 358 -102 641l53 18q136 -313 146 -753h-205v-574h-96v666z" />
<glyph unicode="z" horiz-adv-x="2357" d="M205 -264h596v538h256q152 -136 270.5 -304t192 -370.5t73.5 -398.5h-100v24q-1 115 -35 242q-38 140 -106 267t-154.5 241t-181.5 201h-113v-541h-698v101zM348 217q17 125 72.5 235t135 192t183.5 148.5t214 111t231 73.5q-40 22 -60 66t-20 94q0 95 61.5 184.5 t151.5 89.5q69 0 105 -55.5t36 -128.5q0 -56 -26 -117t-76 -105t-107 -44q-35 0 -63 14q35 -98 83 -179t114 -148.5t156 -105.5t194 -38q122 0 237 45l25 -64q-140 -67 -297 -67q-193 0 -347.5 119t-236.5 305q-97 -29 -185.5 -68t-175 -96.5t-153.5 -125t-116.5 -156.5 t-67.5 -189zM1204 1139q0 -43 25 -74q8 -4 12 -4h6q43 1 76 59q35 62 35 113q0 67 -39 78q-51 -8 -83 -62t-32 -110zM1681 -557q0 96 69.5 164.5t166.5 68.5q92 0 163.5 -67t71.5 -158q0 -103 -67 -174.5t-168 -71.5q-98 0 -167 70t-69 168zM1782 -559q0 -55 40 -95t95 -40 t95 40t40 95t-40 95t-95 40q-57 0 -96 -39.5t-39 -95.5z" />
<glyph unicode="{" horiz-adv-x="573" d="M53 510v127q83 -4 111 33q19 25 26 91t5 142t4.5 160.5t22 152t61 112t118.5 44.5q19 0 29 -2v-86q-24 -2 -43 -12.5t-30.5 -23t-20 -35t-12.5 -39t-6.5 -45.5t-2.5 -43v-43v-4.5v-4v-4.5q0 -21 2.5 -85t1.5 -105.5t-6 -97t-22 -98.5t-45 -71q32 -32 48.5 -81t19.5 -86.5 t3 -94.5q0 -45 -3 -133.5t-3 -132.5q0 -37 1 -58t7.5 -52t18 -49t35 -33.5t57.5 -20.5v-86h-24q-44 -1 -79 13.5t-57 36t-38 58.5t-24 68.5t-12.5 79t-5 76t-0.5 72.5q0 9 1.5 55t1.5 82.5t-3 81.5t-12.5 76.5t-25.5 43.5q-32 25 -99 21z" />
<glyph unicode="|" horiz-adv-x="1646" d="M205 94v1102h1110l127 -125h-1018l1010 -1010l-88 -90l-1016 1016v-1018z" />
<glyph unicode="}" horiz-adv-x="573" d="M143 -168q34 5 57.5 20.5t35 33.5t18 49t7.5 52t1 58q0 44 -3 132.5t-3 133.5q0 56 3 94t20 87t49 81q-28 28 -45 70.5t-22.5 99.5t-7 96.5t0.5 106t2 84.5q0 113 -11 155q-24 90 -102 99v86q10 2 29 2q73 0 118.5 -44.5t61.5 -112t22.5 -152.5t4.5 -160.5t5 -141.5 t26 -91q28 -37 108 -33v-127q-65 4 -96 -21q-16 -12 -26 -43t-13 -77t-4 -81t0.5 -83.5t1.5 -54.5q0 -45 -0.5 -72.5t-5 -75.5t-12 -79t-23.5 -68.5t-38 -59t-57 -36t-79 -13.5h-23v86z" />
<glyph unicode="~" horiz-adv-x="753" d="M109 461q7 55 51 91t100 36q48 0 124 -33t112 -33q27 0 50.5 12t31.5 35l67 -16q-7 -55 -51 -92t-100 -37q-49 0 -124.5 34t-113.5 34q-24 0 -47 -13t-33 -35z" />
<glyph unicode="&#xa1;" horiz-adv-x="405" d="M158 -59q0 223 26 585h82q27 -376 27 -585v-351h-135v351zM162 678v145h127v-145h-127z" />
<glyph unicode="&#xa6;" horiz-adv-x="1785" d="M291 94v1102h1110l125 -125h-1016l1010 -1010l-90 -90l-1014 1016v-1018z" />
<glyph unicode="&#xa8;" horiz-adv-x="901" d="M225 1018v145h125v-145h-125zM551 1018v145h125v-145h-125z" />
<glyph unicode="&#xaa;" horiz-adv-x="743" d="M102 707q0 45 13.5 79.5t34 56t53.5 35.5t64 20t74 8t74 1t74.5 -2.5t65.5 -1.5q0 117 -47.5 159t-165.5 42q-104 0 -154 -43l-47 49q82 82 230 82q280 0 280 -281v-399h-96v72q-69 -86 -211 -86q-104 0 -173 54t-69 155zM199 707q0 -117 178 -117q57 0 106 21t72 65v139 h-178q-32 0 -51 -1t-46.5 -6.5t-42.5 -16.5t-26.5 -32t-11.5 -52z" />
<glyph unicode="&#xac;" horiz-adv-x="2080" d="M205 524v127h1435l-720 719h178l778 -778l-786 -787h-177l719 719h-1427z" />
<glyph unicode="&#xad;" horiz-adv-x="1087" d="M184 356v115h719v-115h-719z" />
<glyph unicode="&#xb0;" horiz-adv-x="731" d="M92 889q0 153 62 238t213 85q78 0 132.5 -23.5t84.5 -69t42.5 -101t12.5 -129.5q0 -75 -12.5 -131t-42.5 -101t-84.5 -68.5t-132.5 -23.5q-151 0 -213 85t-62 239zM188 889q0 -43 3.5 -74t14.5 -64t30 -53.5t52 -33.5t79 -13q56 0 93 18.5t54.5 54t24 73t6.5 90.5 q0 54 -6.5 91.5t-24 73.5t-54.5 54t-93 18t-93.5 -18t-55 -53t-24 -72.5t-6.5 -91.5z" />
<glyph unicode="&#xb4;" horiz-adv-x="776" d="M307 1018q15 35 38 76.5t35.5 62.5t48 78t40.5 65h164q-138 -183 -219 -282h-107z" />
<glyph unicode="&#xb7;" horiz-adv-x="1636" d="M205 -35v1110l125 125v-1016l1009 1010l91 -90l-1016 -1014h1018l-125 -125h-1102z" />
<glyph unicode="&#xba;" horiz-adv-x="731" d="M92 848q0 344 275 344q272 0 272 -344q0 -59 -7.5 -108t-26.5 -94t-49 -75.5t-78 -48.5t-111 -18q-275 0 -275 344zM188 848q0 -43 3.5 -76t14.5 -69t29.5 -59.5t52 -38.5t79.5 -15q45 0 78 15t52 38.5t30 59t14.5 68.5t3.5 75q0 43 -3.5 76t-14.5 69t-30 59.5t-52 38.5 t-78 15t-78.5 -15t-52.5 -38t-30 -58.5t-14.5 -68.5t-3.5 -76z" />
<glyph unicode="&#xbf;" horiz-adv-x="681" d="M102 -84q0 68 26.5 127t64 102t75 84.5t64 93t26.5 109.5q0 15 -2 46t-2 48h127v-129q0 -60 -26 -115t-63 -97.5t-74 -83t-63 -90t-26 -101.5q0 -100 48 -146.5t149 -46.5q69 0 120 28.5t109 86.5l88 -78q-125 -164 -311 -164q-161 0 -245.5 83t-84.5 243zM354 680v143 h127v-143h-127z" />
<glyph unicode="&#xc0;" horiz-adv-x="1081" d="M72 -43l366 1233h205l367 -1233h-140l-116 397h-426l-117 -397h-139zM262 1638h164q124 -193 162 -282h-107q-81 99 -219 282zM360 471h361l-180 592z" />
<glyph unicode="&#xc1;" horiz-adv-x="1081" d="M72 -43l366 1233h205l367 -1233h-140l-116 397h-426l-117 -397h-139zM360 471h361l-180 592zM504 1356q13 29 27.5 57t33.5 60.5t31 52t36.5 59t33.5 53.5h163q-120 -165 -217 -282h-108z" />
<glyph unicode="&#xc2;" horiz-adv-x="1081" d="M72 -43l366 1233h205l367 -1233h-140l-116 397h-426l-117 -397h-139zM233 1331l224 307h168l223 -307h-141l-166 213l-166 -213h-142zM360 471h361l-180 592z" />
<glyph unicode="&#xc4;" horiz-adv-x="1081" d="M72 -43l366 1233h205l367 -1233h-140l-116 397h-426l-117 -397h-139zM315 1356v145h125v-145h-125zM360 471h361l-180 592zM641 1356v145h125v-145h-125z" />
<glyph unicode="&#xc7;" horiz-adv-x="1058" d="M123 573q0 110 11 197t42.5 172t83.5 141t138.5 90.5t203.5 34.5q243 0 352 -141l-82 -80q-65 55 -124 75.5t-146 20.5q-67 0 -120.5 -15t-90 -40t-63 -64.5t-41.5 -80t-23.5 -96.5t-11 -103.5t-2.5 -110.5q0 -64 2.5 -111.5t11 -103t23 -95.5t41 -79.5t63 -63.5t90 -39 t121.5 -15q89 0 146.5 19t123.5 73l84 -80q-66 -79 -152 -109t-202 -30q-117 0 -204 34t-139 89.5t-83 140.5t-42 172t-11 198zM442 -410l113 240h104q-9 -25 -34 -110t-43 -130h-140z" />
<glyph unicode="&#xc8;" horiz-adv-x="1099" d="M158 -43v1235h784v-127h-659v-410h598v-127h-598v-446h659v-125h-784zM264 1638h164q9 -14 33.5 -53.5t36.5 -59t31 -52t33.5 -60.5t27.5 -57h-109q-81 101 -217 282z" />
<glyph unicode="&#xc9;" horiz-adv-x="1099" d="M158 -43v1233h784v-125h-659v-412h598v-125h-598v-446h659v-125h-784zM481 1356q15 35 37 76t36.5 65t47 75t41.5 66h164q-136 -181 -217 -282h-109z" />
<glyph unicode="&#xca;" horiz-adv-x="1099" d="M158 -43v1233h784v-125h-659v-412h598v-125h-598v-446h659v-125h-784zM221 1331l223 307h166l224 -307h-142l-164 213l-166 -213h-141z" />
<glyph unicode="&#xcb;" horiz-adv-x="1099" d="M158 -43v1235h784v-127h-659v-410h598v-127h-598v-446h659v-125h-784zM338 1356v145h125v-145h-125zM664 1356v145h124v-145h-124z" />
<glyph unicode="&#xcc;" horiz-adv-x="440" d="M-59 1638h163q9 -15 41.5 -66t47 -75t36.5 -65t37 -76h-106q-81 99 -219 282zM158 -43v1233h125v-1233h-125z" />
<glyph unicode="&#xcd;" horiz-adv-x="438" d="M158 -43v1233h125v-1233h-125zM172 1356q13 29 27.5 57t33.5 60.5t31 52t36.5 59t33.5 53.5h164q-95 -131 -217 -282h-109z" />
<glyph unicode="&#xce;" horiz-adv-x="612" d="M0 1331l223 307h166l223 -307h-141l-164 213l-166 -213h-141zM244 -43v1233h125v-1233h-125z" />
<glyph unicode="&#xcf;" horiz-adv-x="450" d="M0 1356v145h125v-145h-125zM162 -43v1233h127v-1233h-127zM326 1356v145h125v-145h-125z" />
<glyph unicode="&#xd1;" horiz-adv-x="2766" d="M205 555l35 121l2058 -598l-35 -121zM258 854l2 27q10 2 33 2q70 0 127 -45.5t57 -114.5q0 -27 -16 -43t-43 -16q-73 0 -118 59t-42 131zM258 1073l2 27q10 2 33 2q70 0 127 -45t57 -115q0 -26 -16.5 -42.5t-42.5 -16.5q-73 0 -119 59.5t-41 130.5zM258 1296l2 27 q10 2 33 2q70 0 127 -45.5t57 -114.5q0 -28 -15.5 -43.5t-43.5 -15.5q-73 0 -118 59t-42 131zM406 1421q0 39 23 77t58 65q32 -24 58 -64.5t26 -77.5q0 -27 -7 -57t-27 -57t-48 -27t-48 26.5t-27.5 57t-7.5 57.5zM498 942q0 70 57 115t127 45q23 0 33 -2l2 -27 q3 -72 -42 -131t-118 -59q-26 0 -42.5 16.5t-16.5 42.5zM498 1165q0 69 57.5 114.5t126.5 45.5q23 0 33 -2l2 -27q5 -72 -40.5 -131t-117.5 -59q-28 0 -44.5 15.5t-16.5 43.5zM500 723q0 69 56.5 114.5t125.5 45.5q23 0 33 -2l2 -27q5 -72 -40.5 -131t-117.5 -59 q-28 0 -43.5 15.5t-15.5 43.5zM653 -360l598 598l598 -598h-1196zM973 -229h559l-281 280zM1808 567q0 85 57 157.5t140 72.5q47 0 97.5 -20.5t82.5 -53.5q33 33 83.5 53.5t98.5 20.5q83 0 139 -72.5t56 -157.5q0 -76 -37 -165.5t-106.5 -157.5t-147.5 -68q-54 0 -86 23 q-29 -23 -84 -23q-79 0 -149 68t-107 157.5t-37 165.5zM2134 831q0 69 57 114.5t127 45.5q23 0 33 -2l2 -26q5 -72 -41 -131.5t-119 -59.5q-27 0 -43 16t-16 43z" />
<glyph unicode="&#xd2;" horiz-adv-x="1183" d="M123 594q0 104 12 189t44 166.5t83 136.5t135 88.5t195 33.5q92 0 166 -22.5t124.5 -65t86 -97.5t55.5 -126.5t28.5 -144t8.5 -158.5q0 -82 -2 -129t-10.5 -121t-30 -133t-57.5 -107q-122 -165 -369 -165t-369 165q-36 48 -57.5 107t-30 133t-10.5 121t-2 129zM250 551 q0 -61 2.5 -107.5t10.5 -100t22.5 -92t40.5 -76t61.5 -60.5t87 -37.5t117.5 -14.5q84 0 146 24t99 62.5t59.5 98.5t30 122t7.5 142v17q0 75 -1 114t-7 107.5t-18.5 106.5t-37.5 87t-60.5 74.5t-91 44t-126.5 18.5q-80 0 -140 -19.5t-96.5 -62t-59 -85t-32 -113t-12 -120.5 t-2.5 -130zM322 1638h163q124 -193 162 -282h-106q-81 99 -219 282z" />
<glyph unicode="&#xd3;" horiz-adv-x="1183" d="M123 594q0 104 12 189t44 166.5t83 136.5t135 88.5t195 33.5q92 0 166 -22.5t124.5 -65t86 -97.5t55.5 -126.5t28.5 -144t8.5 -158.5q0 -82 -2 -129t-10.5 -121t-30 -133t-57.5 -107q-122 -165 -369 -165t-369 165q-36 48 -57.5 107t-30 133t-10.5 121t-2 129zM250 551 q0 -61 2.5 -107.5t10.5 -100t22.5 -92t40.5 -76t61.5 -60.5t87 -37.5t117.5 -14.5q84 0 146 24t99 62.5t59.5 98.5t30 122t7.5 142v17q0 75 -1 114t-7 107.5t-18.5 106.5t-37.5 87t-60.5 74.5t-91 44t-126.5 18.5q-80 0 -140 -19.5t-96.5 -62t-59 -85t-32 -113t-12 -120.5 t-2.5 -130zM549 1356q38 89 162 282h163q-138 -183 -219 -282h-106z" />
<glyph unicode="&#xd4;" horiz-adv-x="1183" d="M123 594q0 104 12 189t44 166.5t83 136.5t135 88.5t195 33.5q92 0 166 -22.5t124.5 -65t86 -97.5t55.5 -126.5t28.5 -144t8.5 -158.5q0 -82 -2 -129t-10.5 -121t-30 -133t-57.5 -107q-122 -165 -369 -165t-369 165q-36 48 -57.5 107t-30 133t-10.5 121t-2 129zM250 551 q0 -61 2.5 -107.5t10.5 -100t22.5 -92t40.5 -76t61.5 -60.5t87 -37.5t117.5 -14.5q84 0 146 24t99 62.5t59.5 98.5t30 122t7.5 142v17q0 75 -1 114t-7 107.5t-18.5 106.5t-37.5 87t-60.5 74.5t-91 44t-126.5 18.5q-80 0 -140 -19.5t-96.5 -62t-59 -85t-32 -113t-12 -120.5 t-2.5 -130zM285 1333l225 305h166l223 -305h-141l-166 211l-166 -211h-141z" />
<glyph unicode="&#xd6;" horiz-adv-x="1183" d="M123 586q0 74 5.5 137.5t20 128t37.5 116.5t59.5 97.5t84.5 76.5t114.5 48.5t147.5 17.5q92 0 166 -22.5t124.5 -65t86 -97.5t55.5 -126.5t28.5 -144t8.5 -158.5q0 -82 -2 -129t-10.5 -121t-30 -133t-57.5 -107q-122 -165 -369 -165t-369 165q-35 47 -56.5 105 t-30.5 129.5t-11 120.5t-2 127zM250 551q0 -61 2.5 -107.5t10.5 -100t22.5 -92t40.5 -76t61.5 -60.5t87 -37.5t117.5 -14.5q84 0 146 24t99 62.5t59.5 98.5t30 122t7.5 142v17q0 75 -1 114t-7 107.5t-18.5 106.5t-37.5 87t-60.5 74.5t-91 44t-126.5 18.5q-55 0 -100 -10.5 t-78 -26.5t-59 -44t-43 -55t-29 -68.5t-18.5 -74t-10 -82t-4 -83t-0.5 -86.5zM367 1356v145h125v-145h-125zM692 1356v145h125v-145h-125z" />
<glyph unicode="&#xd9;" horiz-adv-x="1247" d="M158 547v332v311h125v-658q0 -82 6.5 -144t28 -126.5t57.5 -105.5t99 -67t149 -26q87 0 150.5 26t100 67.5t58 105.5t28.5 126t7 144v658h123v-248v-373v-86q-1 -118 -27 -214.5t-80 -172t-145.5 -117.5t-214.5 -42q-111 0 -195 33t-134.5 87.5t-81.5 135.5t-42.5 165.5 t-11.5 188.5zM356 1638h164q38 -58 85.5 -138t76.5 -144h-109q-122 151 -217 282z" />
<glyph unicode="&#xda;" horiz-adv-x="1247" d="M158 547q0 -103 11 -186.5t42.5 -165t82 -136t133.5 -88t194 -32.5q123 0 215 41t146 116t80.5 171t27.5 216v86v373v248h-123v-658q0 -82 -7 -144t-28.5 -126t-58 -105.5t-100 -67.5t-150.5 -26q-86 0 -149 26t-99 67t-57.5 105.5t-28 126.5t-6.5 144v658h-125v-281 v-362zM561 1356q15 35 37 76t36.5 65t47 75t41.5 66h164q-138 -183 -219 -282h-107z" />
<glyph unicode="&#xdb;" horiz-adv-x="1247" d="M158 547v332v311h125v-658q0 -82 6.5 -144t28 -126.5t57.5 -105.5t99 -67t149 -26q87 0 150.5 26t100 67.5t58 105.5t28.5 126t7 144v658h123v-248v-373v-86q-1 -118 -27 -214.5t-80 -172t-145.5 -117.5t-214.5 -42q-111 0 -195 33t-134.5 87.5t-81.5 135.5t-42.5 165.5 t-11.5 188.5zM315 1331l224 307h166l225 -307h-142l-165 213l-166 -213h-142z" />
<glyph unicode="&#xdc;" horiz-adv-x="1247" d="M158 547v332v311h125v-658q0 -82 6.5 -144t28 -126.5t57.5 -105.5t99 -67t149 -26q87 0 150.5 26t100 67.5t58 105.5t28.5 126t7 144v658h123v-215v-428q0 -105 -11.5 -189t-42.5 -165t-82 -135.5t-135 -87.5t-196 -33q-111 0 -195 33t-134.5 87.5t-81.5 135.5 t-42.5 165.5t-11.5 188.5zM397 1356v145h127v-145h-127zM723 1356v145h127v-145h-127z" />
<glyph unicode="&#xe0;" horiz-adv-x="937" d="M102 207q0 258 316 258h272v8q1 143 -65 196.5t-213 53.5q-131 0 -199 -53l-59 61q102 105 297 105q364 0 364 -363v-516h-125v92q-90 -110 -274 -110q-135 0 -224.5 69t-89.5 199zM184 1300h164q124 -193 162 -282h-107q-81 99 -219 282zM227 209q0 -154 230 -154 q74 0 137.5 28t95.5 87v178h-233q-34 0 -54 -1t-51 -4.5t-49.5 -12.5t-38 -24t-28.5 -39.5t-9 -57.5z" />
<glyph unicode="&#xe1;" horiz-adv-x="937" d="M102 207q0 258 316 258h272v12q1 141 -65.5 193.5t-212.5 52.5q-131 0 -199 -53l-59 61q102 105 297 105q364 0 364 -363v-516h-125v92q-90 -110 -274 -110q-135 0 -224.5 69t-89.5 199zM227 209q0 -154 232 -154q73 0 136 28t95 87v178h-233q-34 0 -54 -1t-51 -4.5 t-49.5 -12.5t-38 -24t-28.5 -39.5t-9 -57.5zM430 1018q13 29 27.5 57t33.5 60.5t31 52t36.5 59t33.5 53.5h164q-136 -181 -217 -282h-109z" />
<glyph unicode="&#xe2;" horiz-adv-x="937" d="M102 207q0 53 14.5 95t35.5 68.5t53 45.5t58.5 28t62 14.5t52.5 6t40 0.5h272v16q-1 72 -17 119t-49.5 72t-71.5 35.5t-95 13.5q-139 10 -221 -37l-12 -8t-8.5 -5.5t-2.5 -2.5l-59 63q22 22 42 36.5t59 34t98 28.5t134 6q328 -14 328 -363v-516h-125v92 q-87 -110 -274 -110q-152 0 -233 76.5t-81 191.5zM172 1004l223 307h166l223 -307h-141l-164 213l-166 -213h-141zM227 209q0 -154 230 -154q173 0 233 115v178h-233q-56 0 -92.5 -4.5t-70.5 -18t-50.5 -42.5t-16.5 -74z" />
<glyph unicode="&#xe4;" horiz-adv-x="937" d="M102 207q0 258 316 258h272v8q1 143 -65 196.5t-213 53.5q-131 0 -199 -53l-59 61q102 105 297 105q364 0 364 -363v-516h-125v92q-90 -110 -274 -110q-135 0 -224.5 69t-89.5 199zM227 209q0 -154 232 -154q73 0 136 28t95 87v178h-233q-34 0 -54 -1t-51 -4.5 t-49.5 -12.5t-38 -24t-28.5 -39.5t-9 -57.5zM264 1018v145h125v-145h-125zM590 1018v145h125v-145h-125z" />
<glyph unicode="&#xe7;" horiz-adv-x="813" d="M102 387q0 74 9.5 136.5t34.5 121.5t63.5 100.5t99.5 66t140 24.5q73 0 151.5 -27t110.5 -78l-58 -63q-66 55 -174 55q-64 0 -110 -18t-73 -46.5t-43 -74t-21 -91t-5 -106.5t5 -106.5t21 -91t43 -74t73 -46.5t110 -18q108 0 174 58l58 -64q-32 -52 -110 -79t-152 -27 q-79 0 -140 24.5t-99.5 65.5t-63.5 100t-34.5 121.5t-9.5 136.5zM285 -410l110 240h105q-7 -21 -22.5 -74.5t-28 -92t-27.5 -73.5h-137z" />
<glyph unicode="&#xe8;" d="M102 387q0 99 17 176t56.5 140.5t111.5 98t174 34.5q362 0 358 -445l-2 -41h-590q2 -69 14 -120.5t39 -94t76.5 -64.5t120.5 -22q64 0 130 14t100 46l57 -64q-35 -54 -115 -80t-160 -26q-110 0 -187 30.5t-120 91.5t-61.5 139.5t-18.5 186.5zM186 1300h164 q9 -14 33.5 -53.5t36.5 -59t31 -52t33.5 -60.5t27.5 -57h-109q-97 117 -217 282zM231 465h459q-18 258 -229 258q-212 0 -230 -258z" />
<glyph unicode="&#xe9;" d="M102 387q0 99 17 176t56.5 140.5t111.5 98t174 34.5q362 0 358 -445l-2 -41h-590q2 -69 14 -120.5t39 -94t76.5 -64.5t120.5 -22q64 0 130 14t100 46l57 -64q-35 -54 -115 -80t-160 -26q-110 0 -187 30.5t-120 91.5t-61.5 139.5t-18.5 186.5zM231 465h459 q-18 258 -229 258q-212 0 -230 -258zM416 1018q15 35 37 76t36.5 65t47 75t41.5 66h163q-138 -183 -219 -282h-106z" />
<glyph unicode="&#xea;" d="M102 387q0 99 17 176t56.5 140.5t111.5 98t174 34.5q362 0 358 -445l-2 -41h-590q2 -69 14 -120.5t39 -94t76.5 -64.5t120.5 -22q64 0 130 14t100 46l57 -64q-35 -54 -115 -80t-160 -26q-110 0 -187 30.5t-120 91.5t-61.5 139.5t-18.5 186.5zM154 1004l223 307h166 l223 -307h-141l-164 213l-166 -213h-141zM231 465h459q-18 258 -229 258q-212 0 -230 -258z" />
<glyph unicode="&#xeb;" d="M102 387q0 99 17 176t56.5 140.5t111.5 98t174 34.5q362 0 358 -445l-2 -41h-590q2 -69 14 -120.5t39 -94t76.5 -64.5t120.5 -22q64 0 130 14t100 46l57 -64q-35 -54 -115 -80t-160 -26q-110 0 -187 30.5t-120 91.5t-61.5 139.5t-18.5 186.5zM231 465h459 q-18 258 -229 258q-212 0 -230 -258zM246 1018v145h127v-145h-127zM571 1018v145h127v-145h-127z" />
<glyph unicode="&#xec;" horiz-adv-x="423" d="M-41 1300h164q9 -15 41.5 -66t47 -75t36.5 -65t37 -76h-107q-81 99 -219 282zM174 -43v858h127v-858h-127z" />
<glyph unicode="&#xed;" horiz-adv-x="421" d="M123 -43v858h125v-858h-125zM137 1018q38 89 162 282h164q-138 -183 -219 -282h-107z" />
<glyph unicode="&#xee;" horiz-adv-x="550" d="M-31 1004l224 307h165l224 -307h-142l-164 213l-165 -213h-142zM213 -43v858h125v-858h-125z" />
<glyph unicode="&#xef;" horiz-adv-x="389" d="M-31 1018v147h125v-147h-125zM131 -43v858h127v-858h-127zM295 1018v147h125v-147h-125z" />
<glyph unicode="&#xf1;" horiz-adv-x="2775" d="M205 358v99h450v-297h336v-295h352v-281h353v-280h350v-101h-451v283h-352v278h-352v295l-336 2v297h-350zM940 1374q0 65 32 115.5t93 50.5q55 0 102.5 -43.5t72 -102.5t24.5 -112q0 -111 -68 -152q158 -69 289 -69q295 0 446 305l60 -33q-68 -177 -209 -282t-328 -105 q-106 0 -215 39q-127 -279 -127 -514q0 -201 84 -352l-55 -41q-123 192 -123 440q0 298 170 608q-18 -10 -47 -10q-83 0 -142 85.5t-59 172.5zM1038 1380q0 -49 30 -102t75 -57q7 2 11.5 6t6.5 11.5t3 11.5t2 15l1 11q3 44 -26 93.5t-68 64.5h-12l-8 -4q-15 -20 -15 -50z M1360 463l180 174q152 31 297 31q216 0 407.5 -68t325.5 -213l-67 -74q-119 130 -294.5 190t-371.5 60q-139 0 -252 -22l-55 -56l368 -217l199 -508l-92 -39l-184 474z" />
<glyph unicode="&#xf2;" d="M102 387q0 449 359 449q358 0 358 -449q0 -98 -17 -174.5t-56 -140.5t-111 -98.5t-174 -34.5q-103 0 -175 34.5t-111 98.5t-56 140.5t-17 174.5zM174 1300h164q124 -193 162 -282h-107q-81 99 -219 282zM227 387q0 -55 4.5 -98.5t19 -90t39.5 -77t68.5 -50.5t102.5 -20 q49 0 87.5 13t63 38t41 54.5t25 70t11.5 77.5t3 83q0 55 -4.5 98.5t-18.5 90t-38.5 77t-67.5 50.5t-102 20t-102.5 -19.5t-68.5 -50t-39.5 -77t-19 -90t-4.5 -99.5z" />
<glyph unicode="&#xf3;" d="M102 387q0 449 359 449q358 0 358 -449q0 -98 -17 -174.5t-56 -140.5t-111 -98.5t-174 -34.5q-103 0 -175 34.5t-111 98.5t-56 140.5t-17 174.5zM227 387q0 -55 4.5 -98.5t19 -90t39.5 -77t68.5 -50.5t102.5 -20q49 0 87.5 13t63 38t41 54.5t25 70t11.5 77.5t3 83 q0 55 -4.5 98.5t-18.5 90t-38.5 77t-67.5 50.5t-102 20t-102.5 -19.5t-68.5 -50t-39.5 -77t-19 -90t-4.5 -99.5zM416 1018q15 35 37 76t36.5 65t47 75t41.5 66h163q-138 -183 -219 -282h-106z" />
<glyph unicode="&#xf4;" d="M102 387q0 449 359 449q358 0 358 -449q0 -98 -17 -174.5t-56 -140.5t-111 -98.5t-174 -34.5q-103 0 -175 34.5t-111 98.5t-56 140.5t-17 174.5zM154 1004l223 307h166l223 -307h-139l-166 213l-166 -213h-141zM227 387q0 -55 4.5 -98.5t19 -90t39.5 -77t68.5 -50.5 t102.5 -20q49 0 87.5 13t63 38t41 54.5t25 70t11.5 77.5t3 83q0 55 -4.5 98.5t-18.5 90t-38.5 77t-67.5 50.5t-102 20t-102.5 -19.5t-68.5 -50t-39.5 -77t-19 -90t-4.5 -99.5z" />
<glyph unicode="&#xf6;" d="M102 387q0 449 359 449q358 0 358 -449q0 -98 -17 -174.5t-56 -140.5t-111 -98.5t-174 -34.5q-103 0 -175 34.5t-111 98.5t-56 140.5t-17 174.5zM227 387q0 -55 4.5 -98.5t19 -90t39.5 -77t68.5 -50.5t102.5 -20q49 0 87.5 13t63 38t41 54.5t25 70t11.5 77.5t3 83 q0 55 -4.5 98.5t-18.5 90t-38.5 77t-67.5 50.5t-102 20t-102.5 -19.5t-68.5 -50t-39.5 -77t-19 -90t-4.5 -99.5zM236 1018v145h124v-145h-124zM561 1018v145h125v-145h-125z" />
<glyph unicode="&#xf9;" horiz-adv-x="962" d="M123 387v428h125v-250q0 -22 -1 -61.5t-1.5 -67.5t0 -67.5t4 -69t11 -64.5t19 -60t30 -49.5t43 -40t59.5 -25t77 -9.5q64 0 123.5 33t102.5 88v643h125v-858h-125v96q-36 -54 -105.5 -84t-140.5 -30q-79 0 -140 24.5t-99.5 65.5t-63 100t-34 121.5t-9.5 136.5zM201 1300 h164q10 -16 33.5 -53.5t36.5 -58.5t31.5 -52.5t33 -60t26.5 -57.5h-108q-81 101 -217 282z" />
<glyph unicode="&#xfa;" horiz-adv-x="962" d="M123 387v428h125v-250q0 -22 -1 -61.5t-1.5 -67.5t0 -67.5t4 -69t11 -64.5t19 -60t30 -49.5t43 -40t59.5 -25t77 -9.5q64 0 123.5 33t102.5 88v643h125v-858h-125v96q-36 -54 -105.5 -84t-140.5 -30q-79 0 -140 24.5t-99.5 65.5t-63 100t-34 121.5t-9.5 136.5zM408 1018 q40 94 161 282h164q-138 -183 -219 -282h-106z" />
<glyph unicode="&#xfb;" horiz-adv-x="962" d="M123 387v428h125v-250q0 -22 -1 -61.5t-1.5 -67.5t0 -67.5t4 -69t11 -64.5t19 -60t30 -49.5t43 -40t59.5 -25t77 -9.5q64 0 123.5 33t102.5 88v643h125v-858h-125v96q-36 -54 -105.5 -84t-140.5 -30q-79 0 -140 24.5t-99.5 65.5t-63 100t-34 121.5t-9.5 136.5zM174 1004 l223 307h166l223 -307h-139l-166 213l-166 -213h-141z" />
<glyph unicode="&#xfc;" horiz-adv-x="962" d="M123 387v428h125v-250q0 -22 -1 -61.5t-1.5 -67.5t0 -67.5t4 -69t11 -64.5t19 -60t30 -49.5t43 -40t59.5 -25t77 -9.5q64 0 123.5 33t102.5 88v643h125v-858h-125v96q-36 -54 -105.5 -84t-140.5 -30q-79 0 -140 24.5t-99.5 65.5t-63 100t-34 121.5t-9.5 136.5zM250 1018 v145h125v-145h-125zM575 1018v145h125v-145h-125z" />
<glyph unicode="&#x2000;" horiz-adv-x="993" />
<glyph unicode="&#x2001;" horiz-adv-x="1987" />
<glyph unicode="&#x2002;" horiz-adv-x="993" />
<glyph unicode="&#x2003;" horiz-adv-x="1987" />
<glyph unicode="&#x2004;" horiz-adv-x="662" />
<glyph unicode="&#x2005;" horiz-adv-x="496" />
<glyph unicode="&#x2006;" horiz-adv-x="331" />
<glyph unicode="&#x2007;" horiz-adv-x="331" />
<glyph unicode="&#x2008;" horiz-adv-x="248" />
<glyph unicode="&#x2009;" horiz-adv-x="397" />
<glyph unicode="&#x200a;" horiz-adv-x="110" />
<glyph unicode="&#x2010;" horiz-adv-x="1087" d="M184 356v115h719v-115h-719z" />
<glyph unicode="&#x2011;" horiz-adv-x="1087" d="M184 356v115h719v-115h-719z" />
<glyph unicode="&#x2012;" horiz-adv-x="1087" d="M184 356v115h719v-115h-719z" />
<glyph unicode="&#x2013;" horiz-adv-x="935" d="M109 356v115h718v-115h-718z" />
<glyph unicode="&#x2014;" horiz-adv-x="1636" d="M184 356v115h1268v-115h-1268z" />
<glyph unicode="&#x2018;" horiz-adv-x="372" d="M88 932q0 101 34 188t109 129l56 -65q-74 -105 -74 -250q0 -73 20 -119h-133q-12 44 -12 117z" />
<glyph unicode="&#x2019;" horiz-adv-x="372" d="M88 821q74 105 74 254q0 54 -23 115h133q15 -58 15 -117q0 -100 -35 -186.5t-111 -132.5z" />
<glyph unicode="&#x2022;" horiz-adv-x="878" d="M143 551q0 118 84 201.5t201 83.5q119 0 203 -83.5t84 -201.5t-84 -201.5t-203 -83.5q-117 0 -201 83.5t-84 201.5z" />
<glyph unicode="&#x202f;" horiz-adv-x="397" />
<glyph unicode="&#x205f;" horiz-adv-x="496" />
<glyph unicode="&#x25fc;" horiz-adv-x="1054" d="M0 0v1055h1055v-1055h-1055z" />
</font>
</defs>
</svg>
