<?xml version="1.0" standalone="no"?>
<!DOCTYPE svg PUBLIC "-//W3C//DTD SVG 1.1//EN" "http://www.w3.org/Graphics/SVG/1.1/DTD/svg11.dtd" >
<svg xmlns="http://www.w3.org/2000/svg" xmlns:xlink="http://www.w3.org/1999/xlink" version="1.1">
<metadata></metadata>
<defs>
<font id="hospital_boldbold" horiz-adv-x="1011" >
<font-face units-per-em="2048" ascent="1530" descent="-518" />
<missing-glyph horiz-adv-x="368" />
<glyph horiz-adv-x="0" />
<glyph horiz-adv-x="682" />
<glyph unicode=" "  horiz-adv-x="368" />
<glyph unicode="&#x09;" horiz-adv-x="368" />
<glyph unicode="&#xa0;" horiz-adv-x="368" />
<glyph unicode="!" horiz-adv-x="499" d="M133 823v367h209v-367q0 -145 -31 -557h-149q-29 385 -29 557zM135 -43v211h203v-211h-203z" />
<glyph unicode="&#x22;" horiz-adv-x="784" d="M102 903q45 54 61.5 99.5t16.5 113.5q0 55 -35 139h215q21 -75 21 -131q0 -105 -48 -185t-140 -124zM420 903q45 54 61.5 99.5t16.5 113.5q0 55 -35 139h215q18 -65 18 -131q0 -105 -47 -185.5t-139 -123.5z" />
<glyph unicode="#" horiz-adv-x="1310" d="M152 309v178h170l40 172h-129v175h173l83 358h201l-86 -358h236l86 358h200l-84 -358h117v-175h-158l-40 -172h118v-178h-161l-84 -352h-205l86 352h-236l-84 -352h-198l84 352h-129zM522 487h234l41 172h-234z" />
<glyph unicode="$" horiz-adv-x="1146" d="M113 162l141 119q101 -105 223 -140v361q-74 19 -128 43.5t-100 63t-69.5 96t-23.5 133.5q0 148 86 242.5t235 119.5v156h203v-156q210 -28 317 -160l-125 -131q-103 81 -192 101v-363q83 -20 141.5 -45t109.5 -66t77 -103t26 -146q0 -157 -97 -242.5t-257 -101.5v-183 h-203v187q-229 40 -364 215zM362 840q0 -55 29.5 -87t85.5 -53v308q-115 -35 -115 -168zM680 133q74 9 111.5 45.5t37.5 110.5q0 66 -38.5 102.5t-110.5 59.5v-318z" />
<glyph unicode="%" horiz-adv-x="1277" d="M88 932q0 54 5.5 97.5t20.5 87.5t40.5 73.5t68.5 48t101 18.5q60 0 104 -17.5t70.5 -46t42 -72.5t21 -88t5.5 -101t-4.5 -100.5t-19.5 -88.5t-40 -73.5t-69 -47t-104 -18.5t-104.5 18t-70.5 47t-41.5 73.5t-20.5 88.5t-5 101zM227 -240l625 1596h199l-625 -1596h-199z M251 967q0 -14 0.5 -37.5t0.5 -30.5q0 -135 78 -135q73 0 73 135q0 7 0.5 30t0.5 37.5t-1.5 37.5t-6.5 37.5t-13 29t-22 22t-33 7.5t-33 -7t-22 -22t-13.5 -29.5t-7 -37.5t-1.5 -37zM711 182q0 69 9 122t33 103t72 77.5t119 27.5q62 0 107.5 -18.5t71.5 -48.5t41.5 -75.5 t20.5 -90.5t5 -103q0 -70 -9.5 -122t-34 -99t-74 -71.5t-122.5 -24.5q-60 0 -103.5 17.5t-69.5 46t-41 72t-20 87t-5 100.5zM873 220q0 -14 0.5 -37.5t0.5 -30.5q0 -136 76 -136t76 138q0 7 0.5 30.5t0.5 37t-2 36.5t-7 36.5t-13.5 28.5t-23 22t-33.5 7t-32.5 -7t-21.5 -22 t-13 -29.5t-6.5 -37t-1.5 -36.5z" />
<glyph unicode="&#x26;" horiz-adv-x="1216" d="M88 291q0 205 229 358q-3 2 -18 17q-112 115 -119 229l-2 27q-7 87 40 154t122 99.5t160 32.5q135 0 228 -79.5t93 -210.5q0 -183 -207 -316l217 -254q66 87 101 225l192 -47q-57 -206 -168 -331l203 -240h-258l-82 104q-152 -120 -344 -120q-157 0 -272 100.5 t-115 251.5zM287 291q0 -70 55 -117t133 -47q119 0 219 80l-254 297q-153 -103 -153 -213zM375 920q0 -30 36 -88.5t70 -86.5q142 84 142 175q0 47 -33.5 72.5t-89.5 25.5q-59 0 -92 -25t-33 -73z" />
<glyph unicode="'" horiz-adv-x="466" d="M102 905q45 53 61.5 98t16.5 115q0 53 -35 137h215q21 -75 21 -131q0 -105 -48 -185t-140 -124z" />
<glyph unicode="(" horiz-adv-x="768" d="M164 555q0 64 3 128t14 148.5t28 158t48.5 146.5t72 124.5t102 82.5t135.5 29l37 -2v-143q-54 -6 -96.5 -45.5t-67.5 -103.5t-42 -131.5t-24 -148.5t-9.5 -134.5t-2.5 -108.5q0 -49 1.5 -92.5t7 -111t14.5 -123.5t27.5 -118t43 -106.5t63 -77.5t85.5 -41v-143l-35 -2 q-75 -2 -136.5 29t-102.5 82t-72 124t-48.5 145.5t-28.5 157t-14 148.5t-3 129z" />
<glyph unicode=")" horiz-adv-x="768" d="M164 -115q55 10 97.5 50.5t68 103.5t42.5 128.5t24 145t9.5 132.5t2.5 110q0 54 -2.5 108t-10 134.5t-24.5 148t-42.5 131.5t-68 104t-96.5 46v143l39 2q74 2 135 -29t101.5 -82.5t71.5 -124.5t48 -146.5t28 -158t14 -148.5t3 -128q0 -65 -3 -129t-14 -148.5t-28.5 -157 t-48.5 -145.5t-72 -124t-102.5 -82t-136.5 -29l-35 2v143z" />
<glyph unicode="*" horiz-adv-x="874" d="M61 979l72 145q24 -10 68 -26.5t79 -30.5t66 -29v230h176v-230q32 15 68 29t81.5 30.5t69.5 26.5l72 -147q-40 -16 -119 -48.5t-119 -49.5q26 -29 54 -63.5t61 -77t53 -66.5l-139 -99q-21 27 -80.5 98t-89.5 111q-22 -34 -48.5 -67t-66 -78t-53.5 -62l-139 97 q19 24 53 66.5t62.5 77.5t54.5 65q-27 9 -236 98z" />
<glyph unicode="+" horiz-adv-x="1028" d="M113 385v176h313v313h176v-313h313v-176h-313v-313h-176v313h-313z" />
<glyph unicode="," horiz-adv-x="458" d="M41 -334q37 271 111 494h215q-62 -231 -177 -494h-149z" />
<glyph unicode="-" horiz-adv-x="1212" d="M205 365v176h803v-176h-803z" />
<glyph unicode="." horiz-adv-x="387" d="M92 -43v211h203v-211h-203z" />
<glyph unicode="/" horiz-adv-x="1069" d="M143 -240l625 1596h199l-625 -1596h-199z" />
<glyph unicode="0" horiz-adv-x="1034" d="M123 510v211q0 80 8 143.5t32.5 130.5t66.5 111.5t114 73t170 28.5q304 0 373 -276q24 -101 24 -240v-229q0 -61 -2.5 -107t-11.5 -104t-25 -99.5t-46 -84t-71 -69t-102.5 -43.5t-138.5 -17q-262 0 -344 190q-34 78 -41 184q-6 63 -6 197zM322 418q0 -42 0.5 -63.5t4 -58 t10.5 -56t21 -44.5t34 -37.5t51.5 -22t72.5 -9.5q56 0 94.5 18t57.5 40.5t29 69t11 76t1 88.5v21v250q0 84 -2 127q-6 66 -23 109q-40 96 -172 96q-127 0 -166 -94q-17 -40 -20 -105q-4 -41 -4 -125v-258v-22z" />
<glyph unicode="1" horiz-adv-x="733" d="M102 766l306 424h192v-1233h-199v909l-153 -200z" />
<glyph unicode="2" horiz-adv-x="1036" d="M123 1038q66 78 158.5 124t191.5 46q92 0 167.5 -20.5t134.5 -62.5t91.5 -113t32.5 -166q0 -44 -13.5 -89t-31.5 -80t-50 -78t-54 -68t-60 -66l-291 -315h514v-193h-784v184l315 342q12 13 54.5 57.5t70.5 76.5t62.5 76t52.5 84t18 73q0 172 -225 172q-108 0 -211 -92z " />
<glyph unicode="3" horiz-adv-x="1062" d="M123 125l143 111q110 -107 248 -107q225 0 225 182q0 58 -20 97.5t-45.5 59t-76 29.5t-82 11.5t-92.5 1.5h-17v186l92 -2q50 0 85 5.5t68.5 21.5t50.5 50t17 85q0 84 -53 123t-142 39q-136 0 -237 -88l-144 108q142 170 381 170q108 0 196.5 -39t144 -119.5t55.5 -189.5 q0 -158 -99 -254q119 -105 119 -295q0 -185 -117 -278.5t-307 -93.5q-244 0 -393 186z" />
<glyph unicode="4" horiz-adv-x="1034" d="M102 291v170l519 729h196v-711h115v-188h-115v-334h-199v334h-516zM356 479h262v369z" />
<glyph unicode="5" horiz-adv-x="1058" d="M123 115l135 112q78 -59 133 -80.5t144 -21.5q110 0 156 52t46 163q0 119 -45.5 170t-163.5 51q-69 0 -120.5 -20.5t-102.5 -67.5l-137 86v631h700v-191h-501v-276q76 25 172 25q196 0 296.5 -106t100.5 -302q0 -188 -104.5 -294.5t-292.5 -106.5q-137 0 -232 39 t-184 137z" />
<glyph unicode="6" horiz-adv-x="1034" d="M123 283v559q0 176 122.5 271t307.5 95q172 0 328 -114l-111 -140q-119 68 -215 68q-115 0 -174 -44t-59 -142v-125q86 37 192 37q397 0 397 -414q0 -395 -409 -395q-164 0 -271.5 94t-107.5 250zM322 336q0 -106 43.5 -157.5t146.5 -51.5q110 0 155.5 49.5t45.5 159.5 q0 123 -41 174t-158 51q-108 0 -150 -55t-42 -170z" />
<glyph unicode="7" horiz-adv-x="1024" d="M102 -43l584 1042h-551v191h787v-172l-592 -1061h-228z" />
<glyph unicode="8" horiz-adv-x="1038" d="M121 309q0 188 117 297q-99 96 -99 250q0 160 102.5 256t272.5 96q173 0 278 -94.5t105 -257.5q0 -157 -98 -252q116 -108 116 -295q0 -169 -110 -269.5t-289 -100.5q-180 0 -287.5 100.5t-107.5 269.5zM319 313q0 -91 48 -138.5t141 -47.5q209 0 209 182 q0 100 -50.5 152.5t-150.5 52.5q-98 0 -147.5 -52t-49.5 -149zM340 856q0 -84 44 -123t134 -39t134 39t44 121q0 81 -44 123.5t-128 42.5q-92 0 -138 -39.5t-46 -124.5z" />
<glyph unicode="9" horiz-adv-x="1034" d="M123 813q0 395 407 395q165 0 273 -93.5t108 -248.5v-561q0 -90 -34 -161t-93.5 -115t-137 -67t-167.5 -23q-168 0 -325 112l110 139q122 -65 215 -65q234 0 234 186v125q-84 -37 -195 -37q-206 0 -300.5 110t-94.5 304zM322 811q0 -122 41 -172.5t155 -50.5 q111 0 153 53.5t42 171.5q0 106 -44.5 157.5t-148.5 51.5q-108 0 -153 -50.5t-45 -160.5z" />
<glyph unicode=":" horiz-adv-x="387" d="M92 -43v211h203v-211h-203zM92 518v211h203v-211h-203z" />
<glyph unicode=";" horiz-adv-x="458" d="M41 -334q36 267 109 494h217q-62 -231 -177 -494h-149zM164 518v211h203v-211h-203z" />
<glyph unicode="&#x3c;" horiz-adv-x="960" d="M133 350v203l705 295v-215l-447 -182l447 -181v-215z" />
<glyph unicode="=" horiz-adv-x="1181" d="M184 174v176h803v-176h-803zM184 432v178h803v-178h-803z" />
<glyph unicode="&#x3e;" horiz-adv-x="960" d="M123 55v215l446 181l-446 182v215l704 -295v-203z" />
<glyph unicode="?" horiz-adv-x="833" d="M61 987q38 91 140.5 147t206.5 56q170 0 267 -86.5t97 -255.5q0 -65 -23 -121.5t-57 -96.5t-69 -73.5t-63.5 -68.5t-35.5 -66q-8 -36 -8 -82l2 -70h-196v125q0 61 26 116t63 96t73.5 79t62.5 81t26 87q0 147 -174 147q-72 0 -118.5 -28.5t-96.5 -91.5zM317 -43v211h205 v-211h-205z" />
<glyph unicode="@" horiz-adv-x="1701" d="M133 496q0 190 92 352t258.5 259t370.5 97q225 0 388 -91.5t245 -252t82 -371.5q0 -50 -4 -92.5t-14 -93.5t-31.5 -89.5t-53.5 -72t-83 -51.5t-117 -18q-150 0 -211 78q-43 -43 -114.5 -69t-125.5 -26q-81 0 -143 24t-100 63.5t-62.5 95.5t-33.5 112.5t-9 122.5t9 122.5 t33.5 112.5t62.5 95.5t100 63.5t143 24q105 0 182 -51v32h187q0 -60 2 -518q0 -106 88 -106q68 0 94 76q16 51 16 172q0 246 -137 389t-391 143q-155 0 -279 -73t-192 -196t-68 -270q0 -255 138.5 -402.5t400.5 -147.5q113 0 234 49l63 -127q-157 -78 -326 -78 q-175 0 -309.5 54t-217.5 151t-125 225t-42 283zM653 473q0 -128 37 -190t144 -62q94 0 163 82v340q-69 82 -163 82q-107 0 -144 -62t-37 -190z" />
<glyph unicode="A" horiz-adv-x="1202" d="M72 -43l399 1235h260l399 -1235h-219l-118 383h-381l-121 -383h-219zM463 510h276l-137 442z" />
<glyph unicode="B" horiz-adv-x="1181" d="M158 -43v1233h426q72 0 135.5 -11.5t120.5 -37.5t98.5 -65.5t65.5 -99t24 -134.5q0 -81 -25.5 -137.5t-84.5 -96.5q76 -44 118.5 -124.5t42.5 -166.5q0 -182 -114.5 -271t-311.5 -89h-495zM360 145h289q122 0 178 42t56 145q0 170 -228 170h-295v-357zM360 682h250 q221 0 221 164q0 78 -60 116.5t-159 38.5h-252v-319z" />
<glyph unicode="C" horiz-adv-x="1159" d="M123 571q0 106 11.5 191.5t46 171.5t91.5 144t153.5 94t225.5 36q257 0 406 -166l-127 -124q-84 62 -139.5 82t-139.5 20q-61 0 -109 -12t-81.5 -32t-58 -53t-38.5 -68t-22.5 -84t-11 -94.5t-2.5 -105.5q0 -69 4 -119.5t15 -105.5t33.5 -92t57 -68t88.5 -46t125 -15 q85 0 139 19.5t140 82.5l127 -125q-79 -89 -178 -127t-228 -38q-94 0 -170.5 18.5t-130.5 50t-95 79.5t-65.5 100.5t-40 118.5t-21 129t-5.5 138z" />
<glyph unicode="D" horiz-adv-x="1234" d="M158 -43v1233h493q91 0 163 -20t119.5 -51.5t82 -82.5t52.5 -99.5t28.5 -117t13 -120.5t2.5 -124v-40q0 -242 -57 -363q-105 -215 -404 -215h-493zM360 145h291q66 0 113 18.5t75 48.5t44 78t21 96.5t5 115.5v106q0 72 -4 122t-19 105.5t-42 88.5t-75.5 55t-117.5 22 h-291v-856z" />
<glyph unicode="E" horiz-adv-x="1191" d="M158 -43v1233h876v-193h-674v-307h613v-192h-613v-348h674v-193h-876z" />
<glyph unicode="F" horiz-adv-x="1167" d="M158 -45v1235h876v-193h-674v-299h531v-192h-531v-551h-202z" />
<glyph unicode="G" horiz-adv-x="1189" d="M123 567q0 115 14 207.5t50 176t94 139t150 88t214 32.5q132 0 231.5 -38t180.5 -130l-127 -124q-75 58 -133 80t-146 22q-62 0 -111 -13t-83 -34t-58 -55.5t-37.5 -70t-21.5 -85.5t-10 -93t-2 -102q0 -67 4 -116.5t15 -104t33.5 -91.5t57 -68t88.5 -46.5t125 -15.5 q124 0 191 45v270h-260v178h462v-520q-112 -161 -393 -161q-121 0 -213 30.5t-151 84t-96.5 134t-52.5 173t-15 208.5z" />
<glyph unicode="H" horiz-adv-x="1236" d="M158 -43v1233h202v-508h517v508h202v-1233h-202v541h-517v-541h-202z" />
<glyph unicode="I" horiz-adv-x="518" d="M158 -43v1233h202v-1233h-202z" />
<glyph unicode="J" horiz-adv-x="960" d="M98 68l119 127q52 -34 96 -48t103 -14q52 0 87.5 17t53.5 38t27 64.5t10.5 71.5t1.5 83v5v778h207v-852q0 -215 -85.5 -307t-299.5 -92q-101 0 -172.5 29.5t-147.5 99.5z" />
<glyph unicode="K" horiz-adv-x="1169" d="M158 -43v1233h202v-545l459 545h264l-479 -565l488 -668h-261l-364 508l-107 -123v-385h-202z" />
<glyph unicode="L" horiz-adv-x="931" d="M158 -43v1233h202v-1040h480v-193h-682z" />
<glyph unicode="M" horiz-adv-x="1560" d="M158 -43v1233h280l342 -905l344 905h279v-1233h-203v868l-315 -831h-207l-318 831v-868h-202z" />
<glyph unicode="N" horiz-adv-x="1236" d="M158 -43v1233h282l437 -868v868h202v-1233h-278l-441 866v-866h-202z" />
<glyph unicode="O" horiz-adv-x="1280" d="M123 592q0 616 518 616q516 0 516 -616q0 -78 -2.5 -129t-12.5 -120.5t-33.5 -127.5t-61.5 -106q-70 -87 -177.5 -129.5t-228.5 -42.5t-229.5 42.5t-178.5 129.5q-38 48 -61.5 106t-33.5 127.5t-12.5 120.5t-2.5 129zM328 563q0 -59 2 -99.5t9 -90t19.5 -82.5t35.5 -66.5 t56 -53t81 -32t110 -12.5q54 0 97 8.5t74.5 26.5t55 39.5t38.5 54t24.5 63.5t14 75t6 81t1.5 88q0 47 -1 78.5t-4 74t-9 71.5t-17 63.5t-27 57t-39.5 45t-53.5 36t-70.5 21.5t-89.5 8t-90 -8t-71 -21t-54 -36t-39.5 -45.5t-27 -56.5t-17.5 -63t-9 -71.5t-4 -74.5t-1 -79z " />
<glyph unicode="P" horiz-adv-x="1146" d="M158 -43v1233h442q188 0 306 -93t118 -276q0 -81 -19 -144t-51 -103.5t-79 -68t-99 -41.5t-114 -20q-64 -6 -124 -7q-30 0 -61.5 -0.5t-64.5 0.5q-35 1 -52 1v-481h-202zM360 627h242q99 0 162 42t63 136q0 108 -60 152t-171 44h-236v-374z" />
<glyph unicode="Q" horiz-adv-x="1273" d="M123 592q0 616 518 616q516 0 516 -616q0 -73 -2 -121.5t-11.5 -116.5t-27.5 -117.5t-52.5 -102t-82.5 -91.5l137 -223h-235l-84 137q-73 -20 -158 -20q-121 0 -229.5 42.5t-178.5 129.5q-38 48 -61.5 106t-33.5 127.5t-12.5 120.5t-2.5 129zM328 565q0 -60 2 -100.5 t8.5 -90.5t19.5 -83t36 -66.5t56 -53t81 -32t110 -12.5q8 0 25 1t26 1l-117 186h238l64 -102q27 31 43.5 70t22.5 89.5t7.5 82t1.5 89.5v6.5v6v6.5q0 47 -1 78.5t-4 74t-9 71.5t-17 63.5t-27 57t-39.5 45t-53.5 36t-70.5 21.5t-89.5 8t-89.5 -8t-70.5 -21t-54 -36t-40 -45.5 t-27 -56t-17.5 -62.5t-9.5 -71t-4 -74.5t-1 -78.5z" />
<glyph unicode="R" horiz-adv-x="1187" d="M158 -45v1235h442q88 0 163 -21.5t134.5 -64t93 -113t33.5 -162.5q0 -82 -16.5 -145t-60.5 -117t-116 -84l269 -528h-221l-250 485h-269v-485h-202zM360 627h242q100 0 162.5 43t62.5 139q0 106 -61 149t-170 43h-236v-374z" />
<glyph unicode="S" horiz-adv-x="1146" d="M113 162l141 119q149 -152 332 -152q43 0 71 2t64 11t57 25t36 47t15 75q0 47 -23 81t-62 54t-89.5 34.5t-106 27.5t-111.5 27.5t-106.5 40t-89.5 60t-62 92t-23 132.5q0 92 33.5 164t92.5 116t135 67t165 23q120 0 233.5 -42t181.5 -126l-125 -131q-136 111 -290 111 q-103 0 -161.5 -40.5t-58.5 -139.5q0 -44 23 -75.5t62 -50t89.5 -32.5t106 -27t111 -28.5t106 -42t89.5 -63.5t62 -96.5t23 -137.5q0 -76 -24.5 -136.5t-65.5 -100t-98.5 -65.5t-120 -37t-133.5 -11q-143 0 -269 57.5t-210 167.5z" />
<glyph unicode="T" horiz-adv-x="1191" d="M82 997v193h1028v-193h-412v-1040h-204v1040h-412z" />
<glyph unicode="U" horiz-adv-x="1343" d="M158 487v703h202v-655q0 -76 6.5 -131.5t26 -110.5t53.5 -89.5t91.5 -55.5t136.5 -21q78 0 135 21.5t90.5 56t53 89.5t26 110.5t6.5 130.5v655h201v-703q0 -255 -130.5 -402.5t-381.5 -147.5q-253 0 -384.5 147t-131.5 403z" />
<glyph unicode="V" horiz-adv-x="1202" d="M72 1190h219l311 -946l309 946h219l-389 -1233h-280z" />
<glyph unicode="W" horiz-adv-x="1732" d="M72 1190h209l241 -940l240 936h211l239 -936l242 940h207l-309 -1233h-281l-203 831l-204 -831h-283z" />
<glyph unicode="X" horiz-adv-x="1259" d="M102 -43l408 639l-379 594h238l262 -410l258 410h239l-380 -594l409 -639h-233l-293 457l-295 -457h-234z" />
<glyph unicode="Y" horiz-adv-x="1136" d="M72 1190h235l260 -432l262 432h236l-397 -637v-596h-203v596z" />
<glyph unicode="Z" horiz-adv-x="1196" d="M137 -43v182l662 869h-635v182h895v-182l-660 -869h660v-182h-922z" />
<glyph unicode="[" horiz-adv-x="831" d="M164 -258v1628h422v-176h-224v-1274h224v-178h-422z" />
<glyph unicode="\" horiz-adv-x="1069" d="M102 1356h199l625 -1596h-199z" />
<glyph unicode="]" horiz-adv-x="831" d="M246 -80h225v1274h-225v176h422v-1628h-422v178z" />
<glyph unicode="^" horiz-adv-x="948" d="M102 711l273 506h200l271 -506h-215l-156 299l-158 -299h-215z" />
<glyph unicode="_" horiz-adv-x="1374" d="M184 -43v176h1006v-176h-1006z" />
<glyph unicode="`" horiz-adv-x="909" d="M147 1305h252q96 -126 183 -306h-183q-93 99 -252 306z" />
<glyph unicode="a" d="M94 227q0 78 30 134.5t83 87t114 44t134 13.5h237q0 96 -57 135t-186 39q-123 0 -205 -64l-113 105q84 78 168.5 106.5t187.5 28.5q210 0 311 -87.5t101 -291.5v-520h-205v90q-96 -108 -254 -108q-173 0 -259.5 70.5t-86.5 217.5zM297 229q0 -29 12.5 -50.5t31 -32.5 t47 -17.5t51.5 -8t55 -1.5q77 0 127.5 33.5t72.5 76.5v97h-200q-99 0 -131 -9q-65 -21 -66 -88z" />
<glyph unicode="b" horiz-adv-x="1034" d="M123 -43v1233h203v-451q40 54 101.5 85.5t127.5 31.5q377 0 377 -459q0 -458 -377 -458q-66 0 -129.5 30.5t-99.5 83.5v-96h-203zM326 229q64 -114 200 -114q61 0 103 23.5t62.5 66t29 88t8.5 104.5q0 47 -5 85t-18.5 76t-36 64t-60 42t-87.5 16q-63 0 -115 -31t-81 -86 v-334z" />
<glyph unicode="c" horiz-adv-x="915" d="M102 395q0 102 21.5 183.5t67 144.5t123 97t182.5 34q94 0 180 -34.5t137 -102.5l-102 -109q-79 70 -185 70q-57 0 -97.5 -14t-64 -37t-36.5 -61.5t-17 -76.5t-4 -94q0 -55 4 -93t17 -76.5t36.5 -61t64 -37t97.5 -14.5q102 0 185 73l102 -108q-48 -69 -135.5 -104 t-181.5 -35q-105 0 -182.5 34t-123 96.5t-67 143.5t-21.5 182z" />
<glyph unicode="d" horiz-adv-x="1034" d="M102 397q0 459 377 459q66 0 128 -31.5t100 -85.5v451h204v-1233h-204v96q-36 -53 -99 -83.5t-129 -30.5q-106 0 -181 34.5t-117 98.5t-60.5 143.5t-18.5 181.5zM305 397q0 -59 8.5 -104.5t29 -88t62.5 -66t103 -23.5q138 0 199 114v334q-29 55 -80.5 86t-114.5 31 q-50 0 -88 -16t-60 -42t-36 -64t-18.5 -76t-4.5 -85z" />
<glyph unicode="e" d="M102 393q0 459 404 459q111 0 190.5 -34t125 -98t66.5 -146.5t21 -190.5v-59h-606q0 -101 60 -161.5t161 -60.5q146 0 238 82l100 -110q-53 -73 -141.5 -106.5t-190.5 -33.5q-227 0 -327.5 114.5t-100.5 344.5zM307 487h398q-14 95 -60.5 144t-138.5 49q-169 0 -199 -193 z" />
<glyph unicode="f" horiz-adv-x="806" d="M82 664v165h143v30q0 180 56 253q36 45 93.5 70.5t117.5 25.5q75 0 150 -34t124 -105l-96 -104q-70 65 -129 65q-50 0 -81.5 -28t-31.5 -84v-89h266v-165h-266v-707h-203v707h-143z" />
<glyph unicode="g" horiz-adv-x="1034" d="M102 397q0 459 377 459q58 0 122 -29t106 -86v97h204v-777q0 -110 -21.5 -192.5t-70 -147t-135 -98t-209.5 -33.5q-54 0 -107 9t-118 43t-103 90l101 108q91 -80 231 -80q110 0 168 60.5t60 167.5v65q-33 -50 -98 -82t-130 -32q-377 0 -377 458zM305 397 q0 -135 46.5 -208.5t156.5 -73.5q133 0 197 112v340q-31 56 -82 84.5t-111 28.5q-113 0 -160 -73.5t-47 -209.5z" />
<glyph unicode="h" horiz-adv-x="1052" d="M123 -43v1235h203v-397q94 61 211 61q92 0 162.5 -27.5t113 -71.5t70 -107t37.5 -126.5t10 -136.5v-430h-205v430q0 55 -4.5 95t-17.5 78.5t-36 62.5t-60 38.5t-89 14.5q-105 0 -192 -94v-625h-203z" />
<glyph unicode="i" horiz-adv-x="448" d="M123 -43v881h203v-881h-203zM123 979v211h203v-211h-203z" />
<glyph unicode="j" horiz-adv-x="491" d="M-113 -324l86 119q52 -28 93 -28q32 0 53 11.5t31 33.5t13 43t3 51v932h203v-838v-34.5v-40.5t-1 -36t-2.5 -41t-4.5 -35.5t-8 -39t-11 -33.5q-58 -150 -246 -150q-128 0 -209 86zM166 977v211h203v-211h-203z" />
<glyph unicode="k" horiz-adv-x="964" d="M117 -43v1233h202v-658l299 306h263l-332 -340l354 -541h-229l-266 399l-89 -90v-309h-202z" />
<glyph unicode="l" horiz-adv-x="448" d="M123 -43v1233h203v-1233h-203z" />
<glyph unicode="m" horiz-adv-x="1654" d="M123 -43v881h203v-99q86 117 256 117q211 0 292 -137q57 72 125.5 104.5t184.5 32.5q99 0 167 -25t107.5 -77t56.5 -123.5t17 -171.5v-502h-203v410v22q0 63 -1 91t-6.5 69t-17.5 57.5t-34.5 36t-57.5 25.5t-86 6q-57 0 -112.5 -25.5t-83.5 -64.5v-627h-205v502 q0 60 -7 96.5t-28 65.5t-61.5 41t-106.5 12q-57 0 -112 -25t-84 -65v-627h-203z" />
<glyph unicode="n" horiz-adv-x="1052" d="M123 -43v881h203v-99q86 117 256 117q99 0 167 -25t107.5 -77t56.5 -123.5t17 -171.5v-502h-205v410v27q0 61 -1 89t-6.5 68t-17.5 56.5t-34.5 35.5t-57.5 25t-86 6q-57 0 -112 -25t-84 -65v-627h-203z" />
<glyph unicode="o" d="M102 397q0 214 96.5 335.5t305.5 121.5q211 0 308 -121t97 -336q0 -104 -22 -186t-69 -144t-126 -95t-186 -33q-210 0 -307 121t-97 337zM305 397q0 -48 3.5 -84.5t16 -75.5t33.5 -64.5t58 -41.5t88 -16q52 0 89.5 16t58.5 41t33.5 64t16 75.5t3.5 85.5t-3.5 85.5t-16 76 t-33.5 64.5t-58.5 41t-89.5 16q-51 0 -88 -16.5t-58 -41.5t-33.5 -64t-16 -76t-3.5 -85z" />
<glyph unicode="p" horiz-adv-x="1034" d="M123 -410v1248h203v-99q35 51 99.5 83t129.5 32q377 0 377 -459q0 -458 -377 -458q-58 0 -122.5 29t-106.5 87v-463h-203zM326 229q31 -58 83 -87t113 -29q113 0 160 73t47 209q0 135 -46.5 209t-156.5 74q-136 0 -200 -117v-332z" />
<glyph unicode="q" horiz-adv-x="1034" d="M102 395q0 459 377 459q65 0 130 -32t100 -83v99h202v-1248h-202v463q-42 -58 -107 -87t-123 -29q-377 0 -377 458zM305 395q0 -136 47 -209t160 -73q61 0 113.5 29t83.5 87v332q-64 117 -201 117q-110 0 -156.5 -74t-46.5 -209z" />
<glyph unicode="r" horiz-adv-x="868" d="M123 -43v881h203v-99q28 47 85.5 82t129.5 35q74 0 130.5 -21.5t114.5 -86.5l-122 -121q-43 34 -73.5 44.5t-72.5 10.5q-59 0 -110 -32t-82 -87v-606h-203z" />
<glyph unicode="s" horiz-adv-x="935" d="M102 104l105 107q64 -46 120.5 -70t123.5 -24q32 0 49 0.5t46 6t44.5 15.5t28 30.5t12.5 49.5q0 35 -17 57q-15 17 -59 27.5t-97 15t-113 19.5t-108 39t-80 77t-32 130q0 62 19.5 110t52 78t78.5 49.5t95 27t107 7.5q203 0 334 -137l-106 -107q-93 74 -213 74 q-34 0 -56.5 -2.5t-50.5 -11t-42.5 -30t-14.5 -54.5q0 -27 17.5 -45t46.5 -27t67 -15t80 -12.5t84 -15.5t80 -27.5t67 -45.5t46.5 -72t17.5 -105q0 -142 -97 -213t-245 -71q-244 0 -390 165z" />
<glyph unicode="t" horiz-adv-x="788" d="M82 664v165h143v215h203v-215h266v-165h-266v-410q0 -31 3 -52.5t13 -43.5t31 -33.5t53 -11.5q37 0 93 30l86 -120q-82 -84 -211 -84q-188 0 -244 147q-6 17 -11 34.5t-8 39t-4.5 35.5t-2.5 41t-1 36v40.5v35.5v316h-143z" />
<glyph unicode="u" horiz-adv-x="1052" d="M123 334v504h203v-412q0 -148 8 -190q16 -76 78 -101q43 -16 116 -16q58 0 113.5 25.5t83.5 64.5v629h205v-881h-205v96q-83 -114 -254 -114q-98 0 -167 28.5t-108 82.5t-56 123t-17 161z" />
<glyph unicode="v" horiz-adv-x="942" d="M51 834h225l191 -609l201 609h223l-307 -877h-226z" />
<glyph unicode="w" horiz-adv-x="1449" d="M51 834h223l158 -586l178 586h228l180 -588l158 588h223l-260 -877h-230l-184 594l-184 -594h-228z" />
<glyph unicode="x" horiz-adv-x="989" d="M61 -43l318 440l-307 437h239l189 -269l192 269h228l-306 -431l314 -446h-236l-198 281l-203 -281h-230z" />
<glyph unicode="y" horiz-adv-x="942" d="M41 -328l82 119q39 -27 80 -27q17 0 31.5 4t26.5 9.5t23 16.5t18.5 19.5t15.5 25t12.5 26t11.5 29t9.5 28t8 29t7.5 26.5l-312 857h224l196 -584l201 584h225q-166 -462 -319 -867q-93 -251 -181 -321q-67 -56 -174 -56q-131 0 -186 82z" />
<glyph unicode="z" horiz-adv-x="937" d="M102 -43v152l457 550h-442v179h719v-156l-457 -549h457v-176h-734z" />
<glyph unicode="{" horiz-adv-x="649" d="M57 469v193q85 0 112.5 20t27.5 98q0 25 -1 69t-2 77t-0.5 78.5t3.5 80.5t11 75t20.5 70t33 58.5t47.5 46t65 28t85 9.5h47v-147q-69 -10 -94 -46t-25 -108q0 -44 3 -132t3 -132q0 -161 -61 -242q61 -82 61 -260q0 -44 -3 -132t-3 -132q0 -72 25 -107.5t94 -44.5v-147 l-47 -2q-71 -2 -121.5 22.5t-77.5 61t-42.5 96.5t-19 109t-3.5 118q0 8 1.5 48t1.5 75.5t-1.5 76.5t-8 69.5t-18.5 36.5q-24 16 -113 16z" />
<glyph unicode="|" horiz-adv-x="448" d="M123 -240v1596h203v-1596h-203z" />
<glyph unicode="}" horiz-adv-x="649" d="M143 -111q69 9 94 44.5t25 107.5q0 44 -3 132t-3 132q0 178 61 260q-61 81 -61 242q0 44 3 132t3 132q0 72 -25 108t-94 46v147h50q58 1 102.5 -15.5t72 -42t46.5 -70t28 -83.5t12.5 -97.5t2.5 -97.5t-2.5 -99t-1.5 -87q0 -78 27 -98t112 -20v-193q-89 0 -113 -16 q-11 -8 -17.5 -36.5t-8 -69.5t-1.5 -76.5t1.5 -75.5t1.5 -48q0 -48 -1.5 -84t-8 -81.5t-17.5 -78t-30.5 -66t-47 -54t-68.5 -32.5t-92 -11l-47 2v147z" />
<glyph unicode="~" horiz-adv-x="753" d="M109 952q11 80 63 132.5t131 52.5q52 0 132.5 -31t107.5 -31q45 0 63 51l131 -30q-9 -81 -62 -134t-134 -53q-51 0 -129.5 33t-110.5 33q-39 0 -59 -53z" />
<glyph unicode="&#xa1;" horiz-adv-x="479" d="M158 -43q0 161 30 555h150q29 -381 29 -555v-367h-209v367zM160 612v211h202v-211h-202z" />
<glyph unicode="&#xa8;" horiz-adv-x="1007" d="M225 1006v213h203v-213h-203zM580 1006v213h202v-213h-202z" />
<glyph unicode="&#xaa;" horiz-adv-x="796" d="M96 715q0 45 13.5 80t33 57.5t54 38t62.5 23t74.5 11t73.5 3.5t76 -1t66 -1q-3 81 -49 107t-135 26q-93 0 -156 -49l-84 80q58 55 122 78.5t146 23.5q150 0 231 -70t81 -217v-393h-154v68q-70 -82 -193 -82q-124 0 -193 50t-69 167zM250 717q0 -28 14 -46.5t39.5 -26 t46 -9.5t49.5 -2q46 0 88.5 22t63.5 62v74h-180h-11q-31 0 -52.5 -4t-39.5 -21.5t-18 -48.5z" />
<glyph unicode="&#xac;" horiz-adv-x="1204" d="M164 393v178h876v-389h-178v211h-698z" />
<glyph unicode="&#xad;" horiz-adv-x="1212" d="M205 365v176h803v-176h-803z" />
<glyph unicode="&#xb0;" horiz-adv-x="798" d="M96 887q0 159 72 242t233 83q160 0 233 -83.5t73 -241.5q0 -160 -72.5 -244t-233.5 -84t-233 83.5t-72 244.5zM250 887q0 -47 5 -78.5t20 -60t46.5 -42.5t79.5 -14t79.5 14t46.5 42.5t20.5 60t5.5 78.5q0 94 -31 143t-121 49q-91 0 -121 -48.5t-30 -143.5z" />
<glyph unicode="&#xb4;" horiz-adv-x="909" d="M328 997q88 183 182 303h254q-181 -225 -254 -303h-182z" />
<glyph unicode="&#xb7;" horiz-adv-x="530" d="M164 367v211h203v-211h-203z" />
<glyph unicode="&#xba;" horiz-adv-x="798" d="M96 846q0 346 305 346q158 0 232 -92.5t74 -253.5q0 -163 -73 -255.5t-233 -92.5q-305 0 -305 348zM250 846q0 -37 3 -65.5t12 -58t25 -48.5t44 -31t67 -12q48 0 79.5 17t46.5 50t20.5 67t5.5 81q0 46 -5.5 80t-21 66.5t-47 49.5t-78.5 17q-39 0 -67 -12t-44 -31 t-25 -48.5t-12 -57t-3 -64.5z" />
<glyph unicode="&#xbf;" horiz-adv-x="751" d="M102 -70q0 66 23 123t57 97t69 74t64 68.5t37 65.5q6 27 6 82v70h195v-125q0 -61 -25.5 -116t-62.5 -96t-74 -79.5t-62.5 -82t-25.5 -87.5q0 -145 174 -145q72 0 117.5 28.5t95.5 92.5l123 -107q-38 -91 -139.5 -147t-206.5 -56q-170 0 -267.5 86t-97.5 254zM354 612v211 h203v-211h-203z" />
<glyph unicode="&#xc0;" horiz-adv-x="1202" d="M72 -43l399 1235h260l399 -1235h-219l-118 383h-381l-121 -383h-219zM256 1636h252q102 -127 182 -305h-180q-32 34 -69 77.5t-58 69t-68 85t-59 73.5zM463 510h276l-137 442z" />
<glyph unicode="&#xc1;" horiz-adv-x="1202" d="M72 -45l399 1235h260l399 -1235h-219l-118 383h-381l-121 -383h-219zM463 508h276l-137 442zM510 1331q84 180 182 305h252q-174 -222 -252 -305h-182z" />
<glyph unicode="&#xc2;" horiz-adv-x="1202" d="M72 -43l399 1235h260l399 -1235h-219l-118 383h-381l-121 -383h-219zM254 1333l246 305h202l246 -305h-209l-137 176l-139 -176h-209zM463 510h276l-137 442z" />
<glyph unicode="&#xc4;" horiz-adv-x="1202" d="M72 -43l399 1235h260l399 -1235h-219l-118 383h-381l-121 -383h-219zM322 1331v213h204v-213h-204zM463 508h276l-137 442zM678 1331v213h203v-213h-203z" />
<glyph unicode="&#xc7;" horiz-adv-x="1146" d="M123 567q0 115 14.5 206.5t51 172t95 134.5t150 85t211.5 31q256 0 399 -166l-124 -123q-73 57 -131 80t-144 23q-61 0 -109 -12.5t-81.5 -33t-57.5 -54.5t-37.5 -68.5t-21 -83t-10 -91.5t-2.5 -100q0 -58 2.5 -100.5t10 -91.5t21 -83.5t37.5 -68t57.5 -53.5t81.5 -32.5 t109 -12.5q86 0 144 22t131 78l124 -123q-142 -165 -399 -165q-121 0 -212.5 31t-149.5 84.5t-94.5 134.5t-51 173t-14.5 207zM418 -430l133 260h178q-4 -15 -15 -51.5t-17.5 -55.5t-16 -49t-19 -55t-20.5 -49h-223z" />
<glyph unicode="&#xc8;" horiz-adv-x="1191" d="M158 -43v1233h876v-193h-674v-307h613v-192h-613v-348h674v-193h-876zM238 1636h251q96 -120 183 -305h-183q-41 43 -80 90t-96.5 120.5t-74.5 94.5z" />
<glyph unicode="&#xc9;" horiz-adv-x="1191" d="M158 -43v1233h876v-193h-674v-307h613v-192h-613v-348h674v-193h-876zM489 1331q87 185 183 305h252q-197 -246 -252 -305h-183z" />
<glyph unicode="&#xca;" horiz-adv-x="1191" d="M158 -43v1233h876v-193h-674v-305h613v-192h-613v-350h674v-193h-876zM242 1333l245 305h201l248 -305h-209l-139 176l-139 -176h-207z" />
<glyph unicode="&#xcb;" horiz-adv-x="1191" d="M158 -43v1233h876v-193h-674v-307h613v-192h-613v-348h674v-193h-876zM317 1331v213h203v-213h-203zM672 1331v213h202v-213h-202z" />
<glyph unicode="&#xcc;" horiz-adv-x="542" d="M-59 1636h252q102 -127 182 -305h-182q-32 34 -67.5 76t-60 72.5t-64.5 81t-60 75.5zM180 -43v1233h205v-1233h-205z" />
<glyph unicode="&#xcd;" horiz-adv-x="544" d="M158 -43v1233h202v-1233h-202zM168 1331q84 180 182 305h254q-183 -228 -254 -305h-182z" />
<glyph unicode="&#xce;" horiz-adv-x="694" d="M0 1333l246 305h203l245 -305h-209l-139 176l-137 -176h-209zM246 -43v1233h203v-1233h-203z" />
<glyph unicode="&#xcf;" horiz-adv-x="557" d="M0 1331v213h203v-213h-203zM178 -43v1233h203v-1233h-203zM354 1331v213h203v-213h-203z" />
<glyph unicode="&#xd1;" horiz-adv-x="1236" d="M158 -43v1233h282l437 -868v868h202v-1233h-278l-441 868v-868h-202zM305 1376q13 87 68.5 136t126.5 49q55 0 145 -35q6 -2 21 -8.5t25 -10t24 -7t26 -3.5q22 0 36.5 11t25.5 42l133 -32q-13 -89 -68.5 -138t-128.5 -49q-53 0 -143 37q-4 1 -22.5 9t-26.5 10.5t-22.5 6 t-26.5 3.5q-38 0 -60 -51z" />
<glyph unicode="&#xd2;" horiz-adv-x="1280" d="M123 592q0 616 518 616q516 0 516 -616q0 -78 -2.5 -129t-12.5 -120.5t-33.5 -127.5t-61.5 -106q-70 -87 -177.5 -129.5t-228.5 -42.5t-229.5 42.5t-178.5 129.5q-38 48 -61.5 106t-33.5 127.5t-12.5 120.5t-2.5 129zM293 1636h252q94 -117 182 -305h-182 q-55 59 -252 305zM328 563q0 -59 2 -99.5t9 -90t19.5 -82.5t35.5 -66.5t56 -53t81 -32t110 -12.5q76 0 132 19t90 51.5t54.5 84t27.5 106.5t7 128q0 184 -11 254q-27 167 -145 220q-63 28 -155 28q-49 0 -90 -8t-71 -21t-54 -36t-39.5 -45.5t-27 -56.5t-17.5 -63t-9 -71.5 t-4 -74.5t-1 -79z" />
<glyph unicode="&#xd3;" horiz-adv-x="1280" d="M123 592q0 616 518 616q516 0 516 -616q0 -78 -2.5 -129t-12.5 -120.5t-33.5 -127.5t-61.5 -106q-70 -87 -177.5 -129.5t-228.5 -42.5t-229.5 42.5t-178.5 129.5q-38 48 -61.5 106t-33.5 127.5t-12.5 120.5t-2.5 129zM328 563q0 -59 2 -99.5t9 -90t19.5 -82.5t35.5 -66.5 t56 -53t81 -32t110 -12.5q76 0 132 19t90 51.5t54.5 84t27.5 106.5t7 128q0 184 -11 254q-27 167 -145 220q-63 28 -155 28q-49 0 -90 -8t-71 -21t-54 -36t-39.5 -45.5t-27 -56.5t-17.5 -63t-9 -71.5t-4 -74.5t-1 -79zM563 1331q88 188 182 305h252q-20 -25 -60 -75.5 t-64.5 -81t-60 -72.5t-67.5 -76h-182z" />
<glyph unicode="&#xd4;" horiz-adv-x="1280" d="M123 592q0 616 518 616q516 0 516 -616q0 -78 -2.5 -129t-12.5 -120.5t-33.5 -127.5t-61.5 -106q-70 -87 -177.5 -129.5t-228.5 -42.5t-229.5 42.5t-178.5 129.5q-38 48 -61.5 106t-33.5 127.5t-12.5 120.5t-2.5 129zM293 1329l246 307h202l246 -307h-209l-139 176 l-137 -176h-209zM328 563q0 -59 2 -99.5t9 -90t19.5 -82.5t35.5 -66.5t56 -53t81 -32t110 -12.5q76 0 132 19t90 51.5t54.5 84t27.5 106.5t7 128q0 184 -11 254q-27 167 -145 220q-63 28 -155 28q-49 0 -90 -8t-71 -21t-54 -36t-39.5 -45.5t-27 -56.5t-17.5 -63t-9 -71.5 t-4 -74.5t-1 -79z" />
<glyph unicode="&#xd6;" horiz-adv-x="1280" d="M123 592q0 616 518 616q516 0 516 -616q0 -78 -2.5 -129t-12.5 -120.5t-33.5 -127.5t-61.5 -106q-70 -87 -177.5 -129.5t-228.5 -42.5t-229.5 42.5t-178.5 129.5q-38 48 -61.5 106t-33.5 127.5t-12.5 120.5t-2.5 129zM328 565q0 -60 2 -100.5t8.5 -90.5t19.5 -83 t36 -66.5t56 -53t81 -32t110 -12.5q61 0 109 12.5t80 32t55.5 53t36 66.5t19.5 82t9 90t2 100q0 47 -1 78.5t-4 74t-9 71.5t-17 63.5t-27 57t-39.5 45t-53.5 36t-70.5 21.5t-89.5 8t-89.5 -8t-70.5 -21t-54 -36t-40 -45.5t-27 -56t-17.5 -62.5t-9.5 -71t-4 -74.5t-1 -78.5z M360 1331v213h205v-213h-205zM717 1331v213h203v-213h-203z" />
<glyph unicode="&#xd9;" horiz-adv-x="1343" d="M158 487v703h202v-655q0 -76 6.5 -131.5t26 -110.5t53.5 -89.5t91.5 -55.5t136.5 -21q78 0 135 21.5t90.5 56t53 89.5t26 110.5t6.5 130.5v655h201v-703q0 -255 -130.5 -402.5t-381.5 -147.5q-253 0 -384.5 147t-131.5 403zM328 1636h252q94 -117 182 -305h-182 q-32 34 -67.5 76t-60 72.5t-64.5 81t-60 75.5z" />
<glyph unicode="&#xda;" horiz-adv-x="1343" d="M158 487v703h202v-655q0 -76 6.5 -131.5t26 -110.5t53.5 -89.5t91.5 -55.5t136.5 -21q78 0 135 21.5t90.5 56t53 89.5t26 110.5t6.5 130.5v655h201v-703q0 -255 -130.5 -402.5t-381.5 -147.5q-253 0 -384.5 147t-131.5 403zM580 1331q84 180 182 305h252 q-174 -222 -252 -305h-182z" />
<glyph unicode="&#xdb;" horiz-adv-x="1343" d="M158 487v703h202v-655q0 -76 6.5 -131.5t26 -110.5t53.5 -89.5t91.5 -55.5t136.5 -21q78 0 135 21.5t90.5 56t53 89.5t26 110.5t6.5 130.5v655h201v-703q0 -255 -130.5 -402.5t-381.5 -147.5q-253 0 -384.5 147t-131.5 403zM324 1331l245 307h203l246 -307h-209l-139 176 l-138 -176h-208z" />
<glyph unicode="&#xdc;" horiz-adv-x="1343" d="M158 487v703h202v-655q0 -76 6.5 -131.5t26 -110.5t53.5 -89.5t91.5 -55.5t136.5 -21q78 0 135 21.5t90.5 56t53 89.5t26 110.5t6.5 130.5v655h201v-703q0 -255 -130.5 -402.5t-381.5 -147.5q-253 0 -384.5 147t-131.5 403zM393 1331v213h203v-213h-203zM748 1331v213 h202v-213h-202z" />
<glyph unicode="&#xe0;" d="M94 227q0 -288 346 -288q162 0 254 108v-90h205v520q0 204 -102 290.5t-310 86.5q-109 0 -194.5 -30.5t-161.5 -102.5l113 -105q81 62 205 62q43 0 74 -3t65.5 -13.5t55.5 -28.5t35 -50t13 -77q-23 0 -69.5 1t-78 1.5t-78.5 -1t-80.5 -5.5t-75 -13t-70 -22.5t-58.5 -35.5 t-47.5 -50t-29 -67t-11.5 -87zM152 1309h251q104 -129 183 -305h-180q-32 34 -69.5 77.5t-59 70t-66.5 83.5t-59 74zM297 229q0 26 10.5 45t25 29t38.5 15.5t42 6.5t44 1h237v-97q-28 -54 -83 -83t-117 -29q-38 0 -65 3t-61 13t-52.5 34.5t-18.5 61.5z" />
<glyph unicode="&#xe1;" d="M94 227q0 -288 346 -288q162 0 254 108v-90h205v520q0 204 -102 290.5t-310 86.5q-109 0 -194.5 -30.5t-161.5 -102.5l113 -105q81 62 205 62q43 0 74 -3t65.5 -13.5t55.5 -28.5t35 -50t13 -77q-23 0 -69.5 1t-78 1.5t-78.5 -1t-80.5 -5.5t-75 -13t-70 -22.5t-58.5 -35.5 t-47.5 -50t-29 -67t-11.5 -87zM297 229q0 26 10.5 45t25 29t38.5 15.5t42 6.5t44 1h237v-97q-28 -54 -83 -83t-117 -29q-38 0 -65 3t-61 13t-52.5 34.5t-18.5 61.5zM422 1004q80 178 182 305h252q-197 -246 -252 -305h-182z" />
<glyph unicode="&#xe2;" d="M94 227q0 48 11.5 87t29 67t47.5 50t58.5 35.5t70 22.5t75 13t80.5 5.5t78.5 1t78 -1.5t69.5 -1q1 45 -13 77t-35 50t-55.5 28.5t-65.5 13.5t-74 3q-124 0 -205 -62l-113 105q76 72 161.5 102.5t194.5 30.5q208 0 310 -86t102 -291v-520h-205v90q-92 -108 -254 -108 q-346 0 -346 288zM168 1006l246 305h200l248 -305h-209l-139 176l-139 -176h-207zM297 229q0 -37 18.5 -61.5t52.5 -34.5t61 -13t65 -3q62 0 117 29t83 83v97h-237q-26 0 -44 -1t-42 -6.5t-38.5 -15.5t-25 -29t-10.5 -45z" />
<glyph unicode="&#xe4;" d="M94 227q0 -288 346 -288q162 0 254 108v-90h205v520q0 204 -102 290.5t-310 86.5q-109 0 -194.5 -30.5t-161.5 -102.5l113 -105q81 62 205 62q43 0 74 -3t65.5 -13.5t55.5 -28.5t35 -50t13 -77q-23 0 -69.5 1t-78 1.5t-78.5 -1t-80.5 -5.5t-75 -13t-70 -22.5t-58.5 -35.5 t-47.5 -50t-29 -67t-11.5 -87zM242 1004v213h202v-213h-202zM297 229q0 26 10.5 45t25 29t38.5 15.5t42 6.5t44 1h237v-97q-28 -54 -83 -83t-117 -29q-38 0 -65 3t-61 13t-52.5 34.5t-18.5 61.5zM596 1004v213h203v-213h-203z" />
<glyph unicode="&#xe7;" horiz-adv-x="905" d="M102 391q0 101 21.5 181t66.5 142.5t121.5 96t180.5 33.5q92 0 176.5 -34t134.5 -101l-98 -107q-86 70 -185 70q-56 0 -95.5 -14.5t-62.5 -37.5t-36 -61t-17 -76t-4 -92t4 -92t17 -75.5t36 -60t62.5 -36.5t95.5 -14q105 0 182 71l101 -106q-47 -69 -132.5 -104 t-178.5 -35q-104 0 -180.5 33.5t-121.5 95.5t-66.5 142t-21.5 181zM229 -430l133 262h179q-61 -200 -88 -262h-224z" />
<glyph unicode="&#xe8;" d="M102 393q0 459 404 459q111 0 190.5 -34t125 -98t66.5 -146.5t21 -190.5v-59h-606q0 -101 60 -161.5t161 -60.5q146 0 238 82l100 -110q-53 -73 -141.5 -106.5t-190.5 -33.5q-227 0 -327.5 114.5t-100.5 344.5zM158 1307h252q98 -125 182 -306h-180q-80 85 -254 306z M307 487h398q-14 95 -60.5 144t-138.5 49q-169 0 -199 -193z" />
<glyph unicode="&#xe9;" d="M102 393q0 459 404 459q111 0 190.5 -34t125 -98t66.5 -146.5t21 -190.5v-59h-606q0 -101 60 -161.5t161 -60.5q146 0 238 82l100 -110q-53 -73 -141.5 -106.5t-190.5 -33.5q-227 0 -327.5 114.5t-100.5 344.5zM307 487h398q-14 95 -60.5 144t-138.5 49q-169 0 -199 -193 zM434 1001q84 181 182 306h252q-174 -221 -254 -306h-180z" />
<glyph unicode="&#xea;" d="M102 393q0 459 404 459q111 0 190.5 -34t125 -98t66.5 -146.5t21 -190.5v-59h-606q0 -101 60 -161.5t161 -60.5q146 0 238 82l100 -110q-53 -73 -141.5 -106.5t-190.5 -33.5q-227 0 -327.5 114.5t-100.5 344.5zM158 1001l248 308h200l246 -308h-207l-139 177l-139 -177 h-209zM307 487h398q-14 95 -60.5 144t-138.5 49q-169 0 -199 -193z" />
<glyph unicode="&#xeb;" d="M102 393q0 459 404 459q111 0 190.5 -34t125 -98t66.5 -146.5t21 -190.5v-59h-606q0 -101 60 -161.5t161 -60.5q146 0 238 82l100 -110q-53 -73 -141.5 -106.5t-190.5 -33.5q-227 0 -327.5 114.5t-100.5 344.5zM236 1001v211h204v-211h-204zM307 487h398 q-14 95 -60.5 144t-138.5 49q-169 0 -199 -193zM592 1001v211h203v-211h-203z" />
<glyph unicode="&#xec;" horiz-adv-x="534" d="M-41 1309h252q30 -38 91 -139.5t91 -165.5h-182q-87 95 -252 305zM209 -43v881h203v-881h-203z" />
<glyph unicode="&#xed;" horiz-adv-x="532" d="M123 -43v881h203v-881h-203zM139 1004q30 63 91 164.5t92 140.5h251q-167 -214 -254 -305h-180z" />
<glyph unicode="&#xee;" horiz-adv-x="641" d="M-27 1004l246 307h203l246 -307h-209l-140 178l-137 -178h-209zM225 -43v881h203v-881h-203z" />
<glyph unicode="&#xef;" horiz-adv-x="503" d="M-27 1004v213h203v-213h-203zM152 -43v881h202v-881h-202zM328 1004v213h202v-213h-202z" />
<glyph unicode="&#xf1;" horiz-adv-x="1052" d="M123 -43v881h203v-99q86 117 256 117q99 0 167 -25t107.5 -77t56.5 -123.5t17 -171.5v-502h-205v410v27q0 61 -1 89t-6.5 68t-17.5 56.5t-34.5 35.5t-57.5 25t-86 6q-57 0 -112 -25t-84 -65v-627h-203zM207 991q13 87 68 136t126 49q56 0 146 -35q6 -2 21 -8.5t25 -10 t24 -7t26 -3.5q22 0 36.5 11t25.5 42l133 -32q-13 -89 -68.5 -138t-128.5 -49q-53 0 -143 37q-2 1 -22.5 9t-27.5 10.5t-22 6t-27 3.5q-37 0 -59 -51z" />
<glyph unicode="&#xf2;" d="M102 397q0 214 96.5 335.5t305.5 121.5q211 0 308 -121t97 -336q0 -104 -22 -186t-69 -144t-126 -95t-186 -33q-210 0 -307 121t-97 337zM145 1309h252q104 -129 183 -305h-181q-71 77 -254 305zM305 397q0 -48 3.5 -84.5t16 -75.5t33.5 -64.5t58 -41.5t88 -16 q52 0 89.5 16t58.5 41t33.5 64t16 75.5t3.5 85.5t-4 86t-16.5 76t-33.5 64t-58.5 41t-88.5 16t-88 -16.5t-58 -41.5t-33.5 -64t-16 -76t-3.5 -85z" />
<glyph unicode="&#xf3;" d="M102 397q0 214 96.5 335.5t305.5 121.5q211 0 308 -121t97 -336q0 -104 -22 -186t-69 -144t-126 -95t-186 -33q-210 0 -307 121t-97 337zM305 397q0 -48 3.5 -84.5t16 -75.5t33.5 -64.5t58 -41.5t88 -16q52 0 89.5 16t58.5 41t33.5 64t16 75.5t3.5 85.5t-4 86t-16.5 76 t-33.5 64t-58.5 41t-88.5 16t-88 -16.5t-58 -41.5t-33.5 -64t-16 -76t-3.5 -85zM434 1004q80 178 182 305h252q-183 -228 -254 -305h-180z" />
<glyph unicode="&#xf4;" d="M102 397q0 214 96.5 335.5t305.5 121.5q211 0 308 -121t97 -336q0 -104 -22 -186t-69 -144t-126 -95t-186 -33q-210 0 -307 121t-97 337zM152 1004l247 307h201l246 -307h-207l-139 178l-140 -178h-208zM305 397q0 -48 3.5 -84.5t16 -75.5t33.5 -64.5t58 -41.5t88 -16 q52 0 89.5 16t58.5 41t33.5 64t16 75.5t3.5 85.5t-4 86t-16.5 76t-33.5 64t-58.5 41t-88.5 16t-88 -16.5t-58 -41.5t-33.5 -64t-16 -76t-3.5 -85z" />
<glyph unicode="&#xf6;" d="M102 397q0 214 96.5 335.5t305.5 121.5q211 0 308 -121t97 -336q0 -104 -22 -186t-69 -144t-126 -95t-186 -33q-210 0 -307 121t-97 337zM231 1004v213h203v-213h-203zM305 397q0 -48 3.5 -84.5t16 -75.5t33.5 -64.5t58 -41.5t88 -16q52 0 89.5 16t58.5 41t33.5 64 t16 75.5t3.5 85.5t-3.5 85.5t-16 76t-33.5 64.5t-58.5 41t-89.5 16q-51 0 -88 -16.5t-58 -41.5t-33.5 -64t-16 -76t-3.5 -85zM586 1004v213h202v-213h-202z" />
<glyph unicode="&#xf9;" horiz-adv-x="1052" d="M123 334v504h203v-412q0 -148 8 -189q15 -75 77 -100q42 -16 117 -16q58 0 114 25t83 65v627h205v-881h-205v96q-83 -114 -254 -114q-98 0 -167 28.5t-108 82.5t-56 123t-17 161zM178 1311h252q30 -37 91 -139t91 -166h-180q-59 63 -254 305z" />
<glyph unicode="&#xfa;" horiz-adv-x="1052" d="M123 334v504h203v-412q0 -148 8 -189q15 -75 77 -100q42 -16 117 -16q58 0 114 25t83 65v627h205v-881h-205v96q-83 -114 -254 -114q-98 0 -167 28.5t-108 82.5t-56 123t-17 161zM436 1004q30 65 91 167t91 138h252q-165 -210 -252 -305h-182z" />
<glyph unicode="&#xfb;" horiz-adv-x="1052" d="M123 334v504h203v-412q0 -148 8 -189q15 -75 77 -100q42 -16 117 -16q58 0 114 25t83 65v627h205v-881h-205v96q-83 -114 -254 -114q-98 0 -167 28.5t-108 82.5t-56 123t-17 161zM172 1006l246 305h203l245 -305h-209l-137 176l-139 -176h-209z" />
<glyph unicode="&#xfc;" horiz-adv-x="1052" d="M123 334v504h203v-412q0 -148 8 -189q15 -75 77 -100q42 -16 117 -16q58 0 114 25t83 65v627h205v-881h-205v96q-83 -114 -254 -114q-98 0 -167 28.5t-108 82.5t-56 123t-17 161zM248 1006v211h203v-211h-203zM602 1006v211h203v-211h-203z" />
<glyph unicode="&#x2000;" horiz-adv-x="819" />
<glyph unicode="&#x2001;" horiz-adv-x="1638" />
<glyph unicode="&#x2002;" horiz-adv-x="819" />
<glyph unicode="&#x2003;" horiz-adv-x="1638" />
<glyph unicode="&#x2004;" horiz-adv-x="546" />
<glyph unicode="&#x2005;" horiz-adv-x="409" />
<glyph unicode="&#x2006;" horiz-adv-x="273" />
<glyph unicode="&#x2007;" horiz-adv-x="273" />
<glyph unicode="&#x2008;" horiz-adv-x="204" />
<glyph unicode="&#x2009;" horiz-adv-x="327" />
<glyph unicode="&#x200a;" horiz-adv-x="91" />
<glyph unicode="&#x2010;" horiz-adv-x="1212" d="M205 365v176h803v-176h-803z" />
<glyph unicode="&#x2011;" horiz-adv-x="1212" d="M205 365v176h803v-176h-803z" />
<glyph unicode="&#x2012;" horiz-adv-x="1212" d="M205 365v176h803v-176h-803z" />
<glyph unicode="&#x2013;" horiz-adv-x="935" d="M109 365v176h802v-176h-802z" />
<glyph unicode="&#x2014;" horiz-adv-x="1746" d="M205 365v176h1337v-176h-1337z" />
<glyph unicode="&#x2018;" horiz-adv-x="452" d="M88 946q0 105 47 185.5t139 123.5l91 -90q-45 -53 -61.5 -98t-16.5 -115q0 -53 35 -137h-213q-21 65 -21 131z" />
<glyph unicode="&#x2019;" horiz-adv-x="372" d="M88 905q45 53 61.5 98t16.5 115q0 53 -35 137h213q21 -64 21 -131q0 -105 -48 -185.5t-141 -123.5z" />
<glyph unicode="&#x201c;" horiz-adv-x="784" d="M88 944q0 105 47 185.5t139 125.5l91 -90q-45 -54 -61.5 -99.5t-16.5 -113.5q0 -53 35 -137h-213q-21 61 -21 129zM406 944q0 105 47 185.5t139 125.5l90 -90q-45 -54 -61.5 -99.5t-16.5 -113.5q0 -53 35 -137h-213q-20 59 -20 129z" />
<glyph unicode="&#x201d;" horiz-adv-x="559" d="M66 903q44 54 60.5 99t16.5 114q0 58 -34 139h213q20 -61 20 -131q0 -105 -47 -185.5t-139 -123.5zM383 903q45 54 61.5 99.5t16.5 113.5q0 55 -35 139h213q20 -61 20 -131q0 -105 -47 -185.5t-139 -123.5z" />
<glyph unicode="&#x2022;" horiz-adv-x="909" d="M143 561q0 121 86.5 208t208.5 87q123 0 210 -86.5t87 -208.5q0 -123 -87 -209t-210 -86q-122 0 -208.5 86t-86.5 209z" />
<glyph unicode="&#x202f;" horiz-adv-x="327" />
<glyph unicode="&#x205f;" horiz-adv-x="409" />
<glyph unicode="&#x25fc;" horiz-adv-x="829" d="M0 0v829h829v-829h-829z" />
</font>
</defs>
</svg>
